<?xml version="1.0" standalone="no"?>
<!DOCTYPE svg PUBLIC "-//W3C//DTD SVG 1.1//EN" "http://www.w3.org/Graphics/SVG/1.1/DTD/svg11.dtd" >
<svg xmlns="http://www.w3.org/2000/svg" xmlns:xlink="http://www.w3.org/1999/xlink" version="1.1">
<metadata>
Created by FontForge 20170731 at Sat Apr 29 01:51:58 2017
 By Aleksey,,,
Copyright (c) 2017 by Typetype. Designer Ivan Gladkikh, technical designers Eugenia Pestova, Tanya Cherkiz, Dmitriy Greshnev. All rights reserved.
</metadata>
<defs>
<font id="TTBerlinerins-Grotesk" horiz-adv-x="430" >
  <font-face 
    font-family="TT Berlinerins"
    font-weight="400"
    font-stretch="normal"
    units-per-em="1000"
    panose-1="2 0 5 6 0 0 0 2 0 4"
    ascent="850"
    descent="-150"
    x-height="700"
    cap-height="700"
    bbox="-88.7778 -314.5 1438 980"
    underline-thickness="50"
    underline-position="-250"
    unicode-range="U+000D-FB04"
  />
<missing-glyph horiz-adv-x="0" 
 />
    <glyph glyph-name="ff" unicode="FF" horiz-adv-x="690" 
d="M360 30v530q0 12 -4 16t-16 4h-130q-12 0 -16 -4t-4 -16v-140q0 -12 4 -16t16 -4h70q18 0 24 -6t6 -24v-60q0 -18 -6 -24t-24 -6h-70q-12 0 -16 -4t-4 -16v-230q0 -18 -6 -24t-24 -6h-90q-18 0 -24 6t-6 24v640q0 18 6 24t24 6h580q18 0 24 -6t6 -24v-60q0 -18 -6 -24
t-24 -6h-120q-12 0 -16 -4t-4 -16v-140q0 -12 4 -16t16 -4h70q18 0 24 -6t6 -24v-60q0 -18 -6 -24t-24 -6h-70q-12 0 -16 -4t-4 -16v-230q0 -18 -6 -24t-24 -6h-90q-18 0 -24 6t-6 24z" />
    <glyph glyph-name="fl" unicode="FL" horiz-adv-x="670" 
d="M360 30v530q0 12 -4 16t-16 4h-130q-12 0 -16 -4t-4 -16v-140q0 -12 4 -16t16 -4h70q18 0 24 -6t6 -24v-60q0 -18 -6 -24t-24 -6h-70q-12 0 -16 -4t-4 -16v-230q0 -18 -6 -24t-24 -6h-90q-18 0 -24 6t-6 24v640q0 18 6 24t24 6h410q18 0 24 -6t6 -24v-530q0 -12 4 -16
t16 -4h100q18 0 24 -6t6 -24v-60q0 -18 -6 -24t-24 -6h-240q-18 0 -24 6t-6 24z" />
    <glyph glyph-name="ffl" unicode="FFL" horiz-adv-x="990" 
d="M680 30v530q0 12 -4 16t-16 4h-130q-12 0 -16 -4t-4 -16v-140q0 -12 4 -16t16 -4h70q18 0 24 -6t6 -24v-60q0 -18 -6 -24t-24 -6h-70q-12 0 -16 -4t-4 -16v-230q0 -18 -6 -24t-24 -6h-90q-18 0 -24 6t-6 24v530q0 12 -4 16t-16 4h-130q-12 0 -16 -4t-4 -16v-140
q0 -12 4 -16t16 -4h70q18 0 24 -6t6 -24v-60q0 -18 -6 -24t-24 -6h-70q-12 0 -16 -4t-4 -16v-230q0 -18 -6 -24t-24 -6h-90q-18 0 -24 6t-6 24v640q0 18 6 24t24 6h730q18 0 24 -6t6 -24v-530q0 -12 4 -16t16 -4h100q18 0 24 -6t6 -24v-60q0 -18 -6 -24t-24 -6h-240
q-18 0 -24 6t-6 24z" />
    <glyph glyph-name="s_s" unicode="SS" horiz-adv-x="700" 
d="M230 155q0 41 -20.5 77t-50 65.5t-59 61.5t-50 80t-20.5 106q0 73 47.5 119t127.5 46q102 0 149 -74q47 74 151 74q79 0 127 -46t48 -119v-25q0 -18 -6 -24t-24 -6h-60q-18 0 -24 6t-6 24v30q0 17 -11.5 28.5t-28.5 11.5t-28.5 -11.5t-11.5 -28.5q0 -41 20.5 -77
t50 -65.5t59 -61.5t50 -80t20.5 -106q0 -77 -48.5 -123.5t-131.5 -46.5q-102 0 -150 67q-48 -67 -150 -67q-83 0 -131.5 46.5t-48.5 123.5v30q0 18 6 24t24 6h60q18 0 24 -6t6 -24v-35q0 -19 13 -32t32 -13t32 13t13 32zM393 220h17q18 0 24 -6t6 -24v-35q0 -19 13 -32
t32 -13t32 13t13 32q0 36 -15.5 68t-40 58t-50 52t-49.5 62t-35 75q-7 20 -24 20h-26q-18 0 -24 6t-6 24v30q0 17 -11.5 28.5t-28.5 11.5t-28.5 -11.5t-11.5 -28.5q0 -44 24 -83.5t54 -66.5t63.5 -70.5t47.5 -89.5q7 -20 24 -20z" />
    <glyph glyph-name="h_e" unicode="HE" horiz-adv-x="600" 
d="M290 0q-18 0 -24 6t-6 24v250q0 12 -4 16t-16 4h-30q-12 0 -16 -4t-4 -16v-250q0 -18 -6 -24t-24 -6h-90q-18 0 -24 6t-6 24v640q0 18 6 24t24 6h90q18 0 24 -6t6 -24v-230q0 -12 4 -16t16 -4h30q12 0 16 4t4 16v230q0 18 6 24t24 6h260q18 0 24 -6t6 -24v-60
q0 -18 -6 -24t-24 -6h-120q-12 0 -16 -4t-4 -16v-120q0 -12 4 -16t16 -4h70q18 0 24 -6t6 -24v-60q0 -18 -6 -24t-24 -6h-70q-12 0 -16 -4t-4 -16v-140q0 -12 4 -16t16 -4h120q18 0 24 -6t6 -24v-60q0 -18 -6 -24t-24 -6h-260z" />
    <glyph glyph-name="t_h_e" unicode="THE" horiz-adv-x="900" 
d="M590 0q-18 0 -24 6t-6 24v250q0 12 -4 16t-16 4h-30q-12 0 -16 -4t-4 -16v-250q0 -18 -6 -24t-24 -6h-90q-18 0 -24 6t-6 24v530q0 12 -4 16t-16 4h-30q-12 0 -16 -4t-4 -16v-530q0 -18 -6 -24t-24 -6h-90q-18 0 -24 6t-6 24v530q0 12 -4 16t-16 4h-60q-18 0 -24 6t-6 24
v60q0 18 6 24t24 6h420q18 0 24 -6t6 -24v-230q0 -12 4 -16t16 -4h30q12 0 16 4t4 16v230q0 18 6 24t24 6h260q18 0 24 -6t6 -24v-60q0 -18 -6 -24t-24 -6h-120q-12 0 -16 -4t-4 -16v-120q0 -12 4 -16t16 -4h70q18 0 24 -6t6 -24v-60q0 -18 -6 -24t-24 -6h-70q-12 0 -16 -4
t-4 -16v-140q0 -12 4 -16t16 -4h120q18 0 24 -6t6 -24v-60q0 -18 -6 -24t-24 -6h-260z" />
    <glyph glyph-name="t_t" unicode="TT" horiz-adv-x="610" 
d="M10 610v60q0 18 6 24t24 6h530q18 0 24 -6t6 -24v-60q0 -18 -6 -24t-24 -6h-60q-12 0 -16 -4t-4 -16v-530q0 -18 -6 -24t-24 -6h-90q-18 0 -24 6t-6 24v530q0 12 -4 16t-16 4h-30q-12 0 -16 -4t-4 -16v-530q0 -18 -6 -24t-24 -6h-90q-18 0 -24 6t-6 24v530q0 12 -4 16
t-16 4h-60q-18 0 -24 6t-6 24z" />
    <glyph glyph-name="l_l" unicode="LL" horiz-adv-x="530" 
d="M40 30v640q0 18 6 24t24 6h90q18 0 24 -6t6 -24v-530q0 -12 4 -16t16 -4h270q18 0 24 -6t6 -24v-60q0 -18 -6 -24t-24 -6h-410q-18 0 -24 6t-6 24zM260 220v450q0 18 6 24t24 6h90q18 0 24 -6t6 -24v-340q0 -12 4 -16t16 -4h50q18 0 24 -6t6 -24v-60q0 -18 -6 -24t-24 -6
h-190q-18 0 -24 6t-6 24z" />
    <glyph glyph-name="afii10036_afii10037" unicode="&#x422;&#x423;" horiz-adv-x="746" 
d="M480 145q4 19 -3 47l-92 369q-3 11 -8 15t-17 4h-70q-12 0 -16 -4t-4 -16v-530q0 -18 -6 -24t-24 -6h-90q-18 0 -24 6t-6 24v530q0 12 -4 16t-16 4h-60q-18 0 -24 6t-6 24v60q0 18 6 24t24 6h445q18 0 25 -6t10 -24l35 -190h10l35 190q3 18 10 24t25 6h75q18 0 22.5 -6
t0.5 -23l-135 -556q-17 -71 -37.5 -95.5t-80.5 -24.5h-45q-15 0 -20 5t-5 20v70q0 15 4.5 20t15.5 5h20q12 0 19 6.5t11 23.5z" />
    <glyph glyph-name="afii10028_afii10029" unicode="&#x41a;&#x41b;" horiz-adv-x="870" 
d="M410 115h35q15 0 24.5 10t10.5 25l28 520q2 18 8 24t24 6h260q18 0 24 -6t6 -24v-640q0 -18 -6 -24t-24 -6h-90q-18 0 -24 6t-6 24v535q0 9 -3 12t-12 3h-27q-15 0 -16 -15l-22 -415q-5 -89 -36 -122t-119 -33h-40h-45q-64 0 -92 27.5t-28 92.5v160q0 25 -23 25h-4
q-14 0 -18.5 -5t-4.5 -20v-250q0 -15 -5 -20t-20 -5h-100q-15 0 -20 5t-5 20v650q0 15 5 20t20 5h100q15 0 20 -5t5 -20v-230q0 -15 4.5 -20t18.5 -5h4q23 0 23 25v140q0 65 28 92.5t92 27.5h45q15 0 20 -5t5 -20v-70q0 -15 -4.5 -20t-15.5 -5t-15.5 -5t-4.5 -20v-95
q0 -25 -6 -44.5t-15 -29.5t-18 -16.5t-15 -8.5l-6 -1v-10q2 0 6.5 -1.5t14.5 -8t18 -16.5t14.5 -29.5t6.5 -44.5v-115q0 -15 4.5 -20t15.5 -5z" />
    <glyph glyph-name="afii10024_afii10029" unicode="&#x416;&#x41b;" horiz-adv-x="1060" 
d="M600 115h35q15 0 24.5 10t10.5 25l28 520q2 18 8 24t24 6h260q18 0 24 -6t6 -24v-640q0 -18 -6 -24t-24 -6h-90q-18 0 -24 6t-6 24v535q0 9 -3 12t-12 3h-27q-15 0 -16 -15l-22 -415q-5 -89 -36 -122t-119 -33h-85q-64 0 -92 27.5t-28 92.5v150q0 35 -24 35h-1
q-10 0 -10 -10v-260q0 -18 -6 -24t-24 -6h-90q-18 0 -24 6t-6 24v260q0 10 -10 10h-1q-24 0 -24 -35v-150q0 -65 -28 -92.5t-92 -27.5h-45q-15 0 -20 5t-5 20v70q0 15 4.5 20t15.5 5t15.5 5t4.5 20v115q0 40 15 65t30 30l15 5v10q-2 0 -6.5 1.5t-14.5 8t-18 16t-14.5 29.5
t-6.5 45v95q0 15 -4.5 20t-15.5 5t-15.5 5t-4.5 20v70q0 15 5 20t20 5h45q64 0 92 -27.5t28 -92.5v-130q0 -35 24 -35h1q10 0 10 10v240q0 18 6 24t24 6h90q18 0 24 -6t6 -24v-240q0 -10 10 -10h1q24 0 24 35v130q0 65 28 92.5t92 27.5h45q15 0 20 -5t5 -20v-70
q0 -15 -4.5 -20t-15.5 -5t-15.5 -5t-4.5 -20v-95q0 -40 -15 -65t-30 -30l-15 -5v-10q2 0 6.5 -1.5t14.5 -8t18 -16t14.5 -29.5t6.5 -45v-115q0 -15 4.5 -20t15.5 -5z" />
    <glyph glyph-name="afii10028_afii10037" unicode="&#x41a;&#x423;" horiz-adv-x="841" 
d="M575 145q4 19 -3 47l-92 369q-3 11 -8 15t-17 4h-45q-11 0 -15.5 -5t-4.5 -20v-90q0 -25 -6 -44.5t-15 -29.5t-18 -16.5t-15 -8.5l-6 -1v-10q2 0 6.5 -1.5t14.5 -8t18 -16.5t14.5 -29.5t6.5 -44.5v-115q0 -15 4.5 -20t15.5 -5t15.5 -5t4.5 -20v-70q0 -15 -5 -20t-20 -5
h-45q-64 0 -92 27.5t-28 92.5v160q0 25 -23 25h-4q-14 0 -18.5 -5t-4.5 -20v-250q0 -15 -5 -20t-20 -5h-100q-15 0 -20 5t-5 20v650q0 15 5 20t20 5h100q15 0 20 -5t5 -20v-230q0 -15 4.5 -20t18.5 -5h4q23 0 23 25v135q0 64 28 92t92 28h220q18 0 25 -6t10 -24l35 -190h10
l35 190q3 18 10 24t25 6h75q18 0 22.5 -6t0.5 -23l-135 -556q-17 -71 -37.5 -95.5t-80.5 -24.5h-45q-15 0 -20 5t-5 20v70q0 15 4.5 20t15.5 5h20q23 0 30 30z" />
    <glyph glyph-name="afii10024_afii10037" unicode="&#x416;&#x423;" horiz-adv-x="1031" 
d="M550 700h220q18 0 25 -6t10 -24l35 -190h10l35 190q3 18 10 24t25 6h75q18 0 22.5 -6t0.5 -23l-135 -556q-17 -71 -37.5 -95.5t-80.5 -24.5h-45q-15 0 -20 5t-5 20v70q0 15 4.5 20t15.5 5h20q23 0 30 30q4 19 -3 47l-92 369q-3 11 -8 15t-17 4h-45q-11 0 -15.5 -5
t-4.5 -20v-90q0 -40 -15 -65t-30 -30l-15 -5v-10q2 0 6.5 -1.5t14.5 -8t18 -16t14.5 -29.5t6.5 -45v-115q0 -15 4.5 -20t15.5 -5t15.5 -5t4.5 -20v-70q0 -15 -5 -20t-20 -5h-45q-64 0 -92 27.5t-28 92.5v150q0 35 -24 35h-1q-10 0 -10 -10v-260q0 -18 -6 -24t-24 -6h-90
q-18 0 -24 6t-6 24v260q0 10 -10 10h-1q-24 0 -24 -35v-150q0 -65 -28 -92.5t-92 -27.5h-45q-15 0 -20 5t-5 20v70q0 15 4.5 20t15.5 5t15.5 5t4.5 20v115q0 40 15 65t30 30l15 5v10q-2 0 -6.5 1.5t-14.5 8t-18 16t-14.5 29.5t-6.5 45v95q0 15 -4.5 20t-15.5 5t-15.5 5
t-4.5 20v70q0 15 5 20t20 5h45q64 0 92 -27.5t28 -92.5v-130q0 -35 24 -35h1q10 0 10 10v240q0 18 6 24t24 6h90q18 0 24 -6t6 -24v-240q0 -10 10 -10h1q24 0 24 35v125q0 64 28 92t92 28z" />
    <glyph glyph-name=".notdef" horiz-adv-x="0" 
 />
    <glyph glyph-name=".null" horiz-adv-x="0" 
 />
    <glyph glyph-name=".null" horiz-adv-x="0" 
 />
    <glyph glyph-name="nonmarkingreturn" horiz-adv-x="333" 
 />
    <glyph glyph-name="CR" unicode="&#xd;" horiz-adv-x="0" 
 />
    <glyph glyph-name="space" unicode=" " horiz-adv-x="180" 
 />
    <glyph glyph-name="exclam" unicode="!" horiz-adv-x="260" 
d="M209 670l-18 -430q-1 -18 -7 -24t-24 -6h-60q-18 0 -24 6t-7 24l-18 430q-1 18 5 24t24 6h100q18 0 24 -6t5 -24zM50 70q0 34 23 57t57 23t57 -23t23 -57t-23 -57t-57 -23t-57 23t-23 57z" />
    <glyph glyph-name="quotedbl" unicode="&#x22;" horiz-adv-x="382" 
d="M126 450h-30q-16 0 -22.5 6t-7.5 24l-15 190q-1 18 4 24t21 6h70q16 0 21 -6t4 -24l-15 -190q-1 -18 -7.5 -24t-22.5 -6zM286 450h-30q-16 0 -22.5 6t-7.5 24l-15 190q-1 18 4 24t21 6h70q16 0 21 -6t4 -24l-15 -190q-1 -18 -7.5 -24t-22.5 -6z" />
    <glyph glyph-name="numbersign" unicode="#" horiz-adv-x="527" 
d="M105 530h20q18 0 25 6t10 24l20 110q3 18 10 24t25 6h50q18 0 23 -6t2 -24l-21 -120q-2 -12 1 -16t15 -4h20q12 0 17 4t7 16l21 120q3 18 10 24t25 6h50q18 0 23 -6t2 -24l-20 -110q-3 -18 2 -24t23 -6h20q18 0 23 -6t2 -24l-12 -70q-4 -18 -11 -24t-25 -6h-19
q-18 0 -25 -6t-10 -24l-8 -40q-3 -18 2 -24t23 -6h19q18 0 23 -6t2 -24l-12 -70q-4 -18 -11 -24t-25 -6h-19q-18 0 -25 -6t-10 -24l-20 -110q-3 -18 -10 -24t-25 -6h-50q-18 0 -23 6t-2 24l21 120q2 12 -1.5 16t-15.5 4h-20q-12 0 -16.5 -4t-6.5 -16l-21 -120
q-3 -18 -10 -24t-25 -6h-50q-18 0 -23 6t-2 24l20 110q3 18 -2 24t-23 6h-21q-18 0 -23 6t-1 24l12 70q3 18 10 24t25 6h21q18 0 25 6t10 24l8 40q3 18 -2 24t-23 6h-21q-18 0 -23 6t-1 24l12 70q3 18 10 24t25 6zM239 380l-11 -60q-2 -12 1 -16t15 -4h20q12 0 17 4t7 16
l11 60q2 12 -1.5 16t-15.5 4h-20q-12 0 -16.5 -4t-6.5 -16z" />
    <glyph glyph-name="dollar" unicode="$" horiz-adv-x="400" 
d="M122 3q-48 18 -75 59.5t-27 97.5v30q0 18 6 24t24 6h60q18 0 24 -6t6 -24v-35q0 -19 13 -32t32 -13t32 13t13 32q0 41 -20.5 77t-50 65.5t-59 61.5t-50 80t-20.5 106q0 51 24 89.5t68 58.5q18 9 18 27v40q0 18 6 24t24 6h60q18 0 24 -6t6 -24v-40q0 -4 1 -7t2.5 -5.5
t3 -4t4.5 -3t4.5 -2.5t4 -2t3.5 -1q46 -19 71.5 -58t25.5 -92v-25q0 -18 -6 -24t-24 -6h-60q-18 0 -24 6t-6 24v30q0 17 -11.5 28.5t-28.5 11.5t-28.5 -11.5t-11.5 -28.5q0 -41 20.5 -77t50 -65.5t59 -61.5t50 -80t20.5 -106q0 -55 -25.5 -95.5t-71.5 -59.5q-1 0 -3.5 -1
t-4 -2t-4.5 -2.5t-4.5 -3t-3 -4t-2.5 -5.5t-1 -7v-40q0 -18 -6 -24t-24 -6h-60q-18 0 -24 6t-6 24v37q0 19 -18 26z" />
    <glyph glyph-name="percent" unicode="%" horiz-adv-x="690" 
d="M179 28l212 643q5 17 13 23t26 6h60q18 0 22 -6t-1 -23l-143 -434l-69 -209q-5 -17 -13 -22.5t-26 -5.5h-60q-18 0 -22 6t1 22zM270 600v-150q0 -46 -33 -78t-87 -32t-87 32t-33 78v150q0 46 33 78t87 32t87 -32t33 -78zM170 440v170q0 20 -20 20t-20 -20v-170
q0 -20 20 -20t20 20zM660 250v-150q0 -46 -33 -78t-87 -32t-87 32t-33 78v150q0 46 33 78t87 32t87 -32t33 -78zM560 90v170q0 20 -20 20t-20 -20v-170q0 -20 20 -20t20 20z" />
    <glyph glyph-name="ampersand" unicode="&#x26;" horiz-adv-x="435" 
d="M109 398v5q-59 48 -59 114v47q0 60 44.5 103t110.5 43t110.5 -43t44.5 -103v-47q0 -25 -11 -50.5t-23 -38.5l-11 -13v-5h70q18 0 24 -6t6 -24v-60q0 -18 -6 -24t-24 -6h-70q-40 0 -70 20l-29 20q-9 6 -15 0q-26 -26 -26 -68v-106q0 -20 12.5 -33t32.5 -13t32.5 13
t12.5 33v20q0 45 19.5 64.5t64.5 19.5h36q18 0 24 -6t6 -24v-50q0 -15 -15 -25t-15 -25q0 -55 -50.5 -97.5t-129.5 -42.5q-82 0 -131 47t-49 123v107q0 73 84 131zM240 534v21q0 13 -10.5 24t-24.5 11q-13 0 -24 -11t-11 -24v-21q0 -28 25 -55q10 -10 20 0q25 25 25 55z" />
    <glyph glyph-name="quotesingle" unicode="'" horiz-adv-x="232" 
d="M136 450h-40q-16 0 -22.5 6t-7.5 24l-15 190q-1 18 4 24t21 6h80q16 0 21 -6t4 -24l-15 -190q-1 -18 -7.5 -24t-22.5 -6z" />
    <glyph glyph-name="parenleft" unicode="(" horiz-adv-x="294" 
d="M40 335q0 87 17.5 165.5t45.5 133t49.5 86.5t42.5 55q15 15 30 2l41 -35q13 -11 4 -27q-20 -32 -39 -74.5t-40 -129t-21 -176.5t21 -176.5t40 -129t39 -74.5q9 -16 -4 -27l-41 -35q-15 -13 -30 2q-21 23 -42.5 55t-49.5 86.5t-45.5 133t-17.5 165.5z" />
    <glyph glyph-name="parenright" unicode=")" horiz-adv-x="294" 
d="M254 335q0 -87 -17.5 -165.5t-45.5 -133t-49.5 -86.5t-42.5 -55q-15 -15 -30 -2l-41 35q-13 11 -4 27q20 32 39 74.5t40 129t21 176.5t-21 176.5t-40 129t-39 74.5q-9 16 4 27l41 35q15 13 30 -2q21 -23 42.5 -55t49.5 -86.5t45.5 -133t17.5 -165.5z" />
    <glyph glyph-name="asterisk" unicode="*" horiz-adv-x="371" 
d="M238 670l-5 -50q-1 -9 1.5 -11t10.5 1q16 6 48 16q16 5 23.5 1t11.5 -21q10 -42 12 -43l-2 6q5 -17 0.5 -24.5t-21.5 -11.5q-29 -7 -46 -10q-9 -1 -10 -4t5 -10l40 -46q12 -14 11 -22t-15 -19l2 1l1 1l1 1h1h-1h-1v-1l-1 -1l-1 -1h-2l-1 -1l-1 -2l-2 -1l-2 -1l-2 -2
l-2 -1l-2 -2l-2 -1l-3 -2l-3 -2l-3 -3l-3 -3l-5 -3q-14 -11 -22.5 -9.5t-18.5 16.5l-35 52q-8 13 -16 0l-35 -52q-10 -15 -18.5 -16.5t-22.5 9.5l2 -1l1 -1l1 -1h1h-1h-1v1l-1 1l-1 1h-2l-1 1l-1 2l-2 1l-2 1l-2 2l-2 1l-2 2l-2 1l-3 2l-3 2l-3 3l-3 3l-5 3q-14 11 -15 19
t11 22l40 46q6 7 5 10t-10 4l-48 10h2q-17 5 -21.5 12t-0.5 24q10 42 12 43l-2 -6q4 17 12 21t24 -1q32 -10 48 -16q8 -3 10.5 -1t1.5 11l-5 52v-2q-2 18 3.5 24t23.5 6h-2h-1h-1h-1v0h-1h1v0h1h1h1h1h1h1h1h1h1h2h1h2h2h1h2h2h2h2h2h2h3h2h3h3h3h3h9q18 0 23.5 -6t3.5 -24z
" />
    <glyph glyph-name="plus" unicode="+" horiz-adv-x="390" 
d="M170 520h50q18 0 24 -6t6 -24v-70q0 -12 4 -16t16 -4h60q18 0 24 -6t6 -24v-50q0 -18 -6 -24t-24 -6h-60q-12 0 -16 -4t-4 -16v-70q0 -18 -6 -24t-24 -6h-50q-18 0 -24 6t-6 24v70q0 12 -4 16t-16 4h-60q-18 0 -24 6t-6 24v50q0 18 6 24t24 6h60q12 0 16 4t4 16v70
q0 18 6 24t24 6z" />
    <glyph glyph-name="comma" unicode="," horiz-adv-x="220" 
d="M190 70q0 -108 -83 -185q-16 -16 -28 0l-8 11q-10 14 0 24q25 27 28 57q1 7 -1.5 10t-11.5 5q-23 6 -39.5 28t-16.5 50q0 34 23 57t57 23t57 -23t23 -57z" />
    <glyph glyph-name="hyphen" unicode="-" horiz-adv-x="390" 
d="M30 320v50q0 18 6 24t24 6h270q18 0 24 -6t6 -24v-50q0 -18 -6 -24t-24 -6h-270q-18 0 -24 6t-6 24z" />
    <glyph glyph-name="period" unicode="." horiz-adv-x="220" 
d="M190 70q0 -34 -23 -57t-57 -23t-57 23t-23 57t23 57t57 23t57 -23t23 -57z" />
    <glyph glyph-name="slash" unicode="/" horiz-adv-x="328" 
d="M4 28l230 644q6 17 14 22.5t26 5.5h30q18 0 22 -6t-2 -22v0v0v1v0v0v0v0v0v0v0v-1v0v0v0v0v-1v0v0h-1v-1v0v-1v0v-1v0h-1v-1v0v-1v0v-1h-1v-1v0v-1v-1h-1v-1v-1l-1 -1v-1v-1h-1v-1v-1v-1l-1 -1v-1v-1h-1v-1v-1v-1h-1v-1v-1l-1 -1v-1v-1l-1 -1v-1v-1h-1v-1v-1v-1l-1 -1v-1
v-1h-1v-1v-1v-1h-1v-1v-1h-1v-1v-1v-1l-1 -1v-1v-1l-1 -1v-1l-1 -1v-1v-1l-1 -1v-1v-1l-1 -1v-1l-1 -1v-1v-1v-1l-1 -1v-1l-1 -1v-1v-1l-1 -1v-1v-1l-1 -1v-1l-1 -1v-1v-1l-1 -1v-1v-1l-1 -1v-1v-1l-1 -1v-1v-1l-1 -1v-1v-1l-1 -1v-1v-1l-1 -1v-1v-1l-1 -1v-1l-1 -1v-1v-1
l-1 -1v-1v-1l-1 -1v-1v-1l-1 -1v-1l-1 -1v-1v-1l-1 -1v-1l-1 -1v-2v-1l-1 -1v-1v-1l-1 -1v-1l-1 -1v-1v-1l-1 -2v-1l-1 -1v-1v-1l-1 -1v-1l-1 -1v-2v-1l-1 -1v-1l-1 -1v-1l-1 -2v-1v-1l-1 -1v-1l-1 -1v-2v-1l-1 -1v-1l-1 -1v-2l-1 -1v-1l-1 -1v-1v-2l-1 -1v-1l-1 -1v-2
l-1 -1v-1v-1l-1 -2v-1l-1 -1v-1l-1 -2v-1l-1 -1v-1l-1 -2v-1v-1l-1 -1v-2l-1 -1v-1l-1 -2v-1l-1 -1v-2l-1 -1v-1l-1 -1v-2v-1l-1 -1v-2l-1 -1v-1l-1 -2v-1l-1 -1v-2l-1 -1v-1l-1 -2v-1l-1 -2v-1l-1 -1v-2l-1 -1v-1l-1 -2v-1l-1 -2v-1l-1 -1v-2l-1 -1v-2l-1 -1v-1l-1 -2v-1
l-1 -2v-1l-1 -1v-2l-1 -1v-2l-1 -1v-2l-1 -1v-1l-1 -2v-1l-1 -2v-1l-1 -2v-1l-1 -2v-1l-1 -1v-2l-1 -1v-2l-1 -1l-1 -2v-1l-1 -2v-1l-1 -2v-1l-1 -2v-1l-1 -2v-1l-1 -2v-1l-1 -2v-1l-1 -2l-1 -1v-2l-1 -1v-2l-1 -1v-2l-1 -2v-1l-1 -2v-1l-1 -2l-1 -1v-2l-1 -1v-2l-1 -1v-2
l-1 -2v-1l-1 -2l-1 -1v-2l-1 -1v-2l-1 -2v-1l-1 -2l-1 -1v-2l-1 -2v-1l-1 -2v-1l-1 -2l-1 -2v-1l-1 -2v-2l-1 -1v-2l-1 -1l-1 -2v-2l-1 -1v-2l-1 -2l-1 -1v-2l-1 -2v-1l-1 -2l-1 -2v-1l-1 -2v-2l-1 -1l-1 -2v-2l-1 -1v-2l-1 -2l-1 -1v-2l-1 -2v-1l-1 -2l-1 -2v-1l-1 -2v-2
l-1 -2l-1 -1v-2l-1 -2v-1l-1 -2l-1 -2v-2l-1 -1l-1 -2v-2l-1 -2v-1l-1 -2l-1 -2v-2l-1 -1l-1 -2v-2l-1 -2v-1l-1 -2l-1 -2v-2l-1 -2l-1 -1v-2l-1 -2l-1 -2v-1l-1 -2v-2l-1 -2l-1 -2v-1l-1 -2l-1 -2v-2l-1 -2l-1 -2v-1l-1 -2l-1 -2v-2l-1 -2l-1 -2v-1l-1 -2l-1 -2v-2l-1 -2
l-1 -2v-2l-1 -2l-1 -1v-2l-1 -2l-1 -2v-2l-1 -2l-1 -2v-2l-1 -2l-1 -1v-2l-1 -2l-1 -2v-2l-1 -2l-1 -2v-2l-1 -2l-1 -2l-1 -2v-2l-1 -2l-1 -2v-2l-1 -2l-1 -2l-1 -2v-2l-1 -2l-1 -2v-2l-1 -2l-1 -2l-1 -2v-2l-1 -2l-1 -2v-2l-1 -2l-1 -2l-1 -2v-2l-1 -2l-1 -2l-1 -2v-3
l-1 -2l-1 -2l-1 -2v-2l-1 -2l-1 -2l-1 -3l-1 -2v-2l-1 -2l-1 -3l-1 -2l-1 -2v-3l-1 -2l-1 -2l-1 -3l-1 -2l-1 -3l-1 -3q-6 -17 -14 -22.5t-26 -5.5h-30q-18 0 -22 6t2 22z" />
    <glyph glyph-name="zero" unicode="0" horiz-adv-x="440" 
d="M400 540v-380q0 -76 -49 -123t-131 -47t-131 47t-49 123v380q0 76 49 123t131 47t131 -47t49 -123zM250 140v420q0 14 -8 22t-22 8t-22 -8t-8 -22v-420q0 -14 8 -22t22 -8t22 8t8 22z" />
    <glyph glyph-name="one" unicode="1" horiz-adv-x="370" 
d="M30 610v60q0 18 6 24t24 6h180q18 0 24 -6t6 -24v-530q0 -12 4 -16t16 -4h40q18 0 24 -6t6 -24v-60q0 -18 -6 -24t-24 -6h-270q-18 0 -24 6t-6 24v60q0 18 6 24t24 6h40q12 0 16 4t4 16v420q0 12 -4 16t-16 4h-40q-18 0 -24 6t-6 24z" />
    <glyph glyph-name="two" unicode="2" horiz-adv-x="400" 
d="M335 120q18 0 24 -6t6 -24v-60q0 -18 -6 -24t-24 -6h-270q-18 0 -24 6t-6 24v90q0 55 19.5 106.5t47.5 90.5t56 76t47.5 79t19.5 83q0 16 -9.5 25.5t-25.5 9.5t-25.5 -9.5t-9.5 -25.5v-65q0 -18 -6 -24t-24 -6h-60q-18 0 -24 6t-6 24v60q0 68 48 114t122 46t122 -46
t48 -114q0 -55 -19.5 -106t-47.5 -89t-56 -73.5t-47.5 -74.5t-19.5 -77q0 -10 10 -10h140z" />
    <glyph glyph-name="three" unicode="3" horiz-adv-x="400" 
d="M210 450v110q0 14 -8 22t-22 8t-22 -8t-8 -22v-40q0 -18 -6 -24t-24 -6h1h1h1h1h1v0h-1v0h-1h-1h-1h-1h-1h-1h-1h-1h-2h-1h-1h-2h-1h-2h-1h-2h-2h-1h-2h-2h-2h-2h-2h-3h-2h-2h-3h-3h-2h-4h-3h-9q-18 0 -24 6t-6 24v35q0 72 44 113.5t121 41.5t121 -41.5t44 -113.5v-65
q0 -27 -8 -48.5t-20 -33.5t-24 -20t-20 -10l-8 -3v-10l10 -2.5t21.5 -9.5t27.5 -19.5t21.5 -33.5t9.5 -50v-100q0 -73 -46 -116.5t-124 -43.5t-124 43.5t-46 116.5v30q0 18 6 24t24 6h-1h-1h-1h-1h-1v0h1v0h1h1h1h1h1h1h1h1h2h1h1h2h1h2h1h2h2h1h2h2h2h2h2h3h2h2h3h3h2h4h3
h9q18 0 24 -6t6 -24v-35q0 -16 9.5 -25.5t25.5 -9.5t25.5 9.5t9.5 25.5v135q0 14 -8 22t-22 8h-20q-18 0 -24 6t-6 24v60q0 18 6 24t24 6h20q20 0 20 20z" />
    <glyph glyph-name="four" unicode="4" horiz-adv-x="415" 
d="M190 140h-140q-18 0 -24 6t-6 24v60q0 31 11 58l158 384q7 17 15 22.5t26 5.5h90q18 0 24 -6t6 -24v-400q0 -10 10 -10h5q18 0 24 -6t6 -24v-60q0 -18 -6 -24t-24 -6h-5q-10 0 -10 -10v-100q0 -18 -6 -24t-24 -6h-90q-18 0 -24 6t-6 24v100q0 10 -10 10zM192 401
l-48 -129q-5 -12 6 -12h40q10 0 10 10v130q0 4 -3 5t-5 -4z" />
    <glyph glyph-name="five" unicode="5" horiz-adv-x="400" 
d="M150 180v-35q0 -16 9.5 -25.5t25.5 -9.5t25.5 9.5t9.5 25.5v180q0 25 -25 25t-25 -25q0 -18 -6 -24t-24 -6h-60q-18 0 -24 6t-6 24v345q0 18 6 24t24 6h240q18 0 24 -6t6 -24v-60q0 -18 -6 -24t-24 -6h-130q-12 0 -16 -4t-4 -16v-110h10q3 4 8.5 11t26.5 18t45 11
q50 0 80 -37.5t30 -112.5v-190q0 -73 -46 -116.5t-124 -43.5t-124 43.5t-46 116.5v30q0 18 6 24t24 6h-1h-1h-1h-1h-1v0h1v0h1h1h1h1h1h1h1h1h2h1h1h2h1h2h1h2h2h1h2h2h2h2h2h3h2h2h3h3h2h4h3h9q18 0 24 -6t6 -24z" />
    <glyph glyph-name="six" unicode="6" horiz-adv-x="410" 
d="M230 130v190q0 20 -20 20t-20 -20v-190q0 -20 20 -20t20 20zM40 150v405q0 72 44 113.5t121 41.5t121 -41.5t44 -113.5v-25q0 -18 -6 -24t-24 -6h1h1h1h1h1v0h-1v0h-1h-1h-1h-1h-1h-1h-1h-1h-2h-1h-1h-2h-1h-2h-1h-2h-2h-1h-2h-2h-2h-2h-2h-3h-2h-2h-3h-3h-2h-4h-3h-9
q-18 0 -24 6t-6 24v30q0 14 -8 22t-22 8t-22 -8t-8 -22v-140h10q2 4 6 11t22 18t42 11q50 0 80 -37.5t30 -112.5v-160q0 -73 -46 -116.5t-124 -43.5t-124 43.5t-46 116.5z" />
    <glyph glyph-name="seven" unicode="7" horiz-adv-x="400" 
d="M150 560v-50q0 -18 -6 -24t-24 -6h-60q-18 0 -24 6t-6 24v160q0 18 6 24t24 6h290q18 0 24 -6t6 -24v-50q0 -32 -7 -59l-134 -532q-5 -17 -12 -23t-25 -6h-90q-18 0 -22.5 6t-0.5 23l134 532q5 19 -19 19h-34q-20 0 -20 -20z" />
    <glyph glyph-name="eight" unicode="8" horiz-adv-x="420" 
d="M390 230v-80q0 -75 -48.5 -117.5t-131.5 -42.5q-82 0 -131 47t-49 123v70q0 34 8 60.5t20 41t24 23.5t20 12l8 3v10q-3 1 -7.5 3.5t-16.5 12t-21.5 21t-17 31.5t-7.5 42v60q0 68 48 114t122 46t122 -46t48 -114v-60q0 -22 -7 -42t-17.5 -31.5t-21 -20.5t-17.5 -12l-7 -4
v-10q3 -1 8.5 -3t19.5 -12t24.5 -24t19 -40.5t8.5 -60.5zM190 570v-120q0 -20 20 -20t20 20v120q0 20 -20 20t-20 -20zM240 140v140q0 30 -30 30t-30 -30v-140q0 -14 8 -22t22 -8q30 0 30 30z" />
    <glyph glyph-name="nine" unicode="9" horiz-adv-x="410" 
d="M180 570v-190q0 -20 20 -20t20 20v190q0 20 -20 20t-20 -20zM370 550v-405q0 -72 -44 -113.5t-121 -41.5t-121 41.5t-44 113.5v25q0 18 6 24t24 6h-1h-1h-1h-1h-1v0h1v0h1h1h1h1h1h1h1h1h2h1h1h2h1h2h1h2h2h1h2h2h2h2h2h3h2h2h3h3h2h4h3h9q18 0 24 -6t6 -24v-30
q0 -14 8 -22t22 -8t22 8t8 22v140h-10q-2 -4 -6 -11t-22 -18t-42 -11q-50 0 -80 37.5t-30 112.5v160q0 73 46 116.5t124 43.5t124 -43.5t46 -116.5z" />
    <glyph glyph-name="colon" unicode=":" horiz-adv-x="220" 
d="M190 70q0 -34 -23 -57t-57 -23t-57 23t-23 57t23 57t57 23t57 -23t23 -57zM190 450q0 -34 -23 -57t-57 -23t-57 23t-23 57t23 57t57 23t57 -23t23 -57z" />
    <glyph glyph-name="semicolon" unicode=";" horiz-adv-x="220" 
d="M190 450q0 -34 -23 -57t-57 -23t-57 23t-23 57t23 57t57 23t57 -23t23 -57zM190 70q0 -108 -83 -185q-16 -16 -28 0l-8 11q-10 14 0 24q25 27 28 57q1 7 -1.5 10t-11.5 5q-23 6 -39.5 28t-16.5 50q0 34 23 57t57 23t57 -23t23 -57z" />
    <glyph glyph-name="less" unicode="&#x3c;" horiz-adv-x="479" 
d="M40 305v75q0 18 6 26t23 13l341 106q17 5 23 1t6 -22v-67q0 -18 -6 -25t-23 -12l-210 -55v-5l210 -55q17 -5 23 -12t6 -25v-67q0 -18 -6 -22t-23 1l-341 106q-17 5 -23 13t-6 26z" />
    <glyph glyph-name="equal" unicode="=" horiz-adv-x="390" 
d="M30 230v50q0 18 6 24t24 6h270q18 0 24 -6t6 -24v-50q0 -18 -6 -24t-24 -6h-270q-18 0 -24 6t-6 24zM30 410v50q0 18 6 24t24 6h270q18 0 24 -6t6 -24v-50q0 -18 -6 -24t-24 -6h-270q-18 0 -24 6t-6 24z" />
    <glyph glyph-name="greater" unicode="&#x3e;" horiz-adv-x="479" 
d="M439 380v-75q0 -18 -6 -26t-23 -13l-341 -106q-17 -5 -23 -1t-6 22v67q0 18 6 25t23 12l210 55v5l-210 55q-17 5 -23 12t-6 25v67q0 18 6 22t23 -1l341 -106q17 -5 23 -13t6 -26z" />
    <glyph glyph-name="question" unicode="?" horiz-adv-x="400" 
d="M230 550q0 17 -11.5 28.5t-28.5 11.5t-28.5 -11.5t-11.5 -28.5v-90q0 -18 -6 -24t-24 -6h-60q-18 0 -24 6t-6 24v85q0 73 47.5 119t127.5 46t127.5 -46t47.5 -119q0 -47 -13 -85.5t-31 -65t-36.5 -50t-31.5 -52.5t-13 -62q0 -12 -4 -16t-16 -4h-80q-12 0 -16 4t-4 16
q0 53 15 96t32.5 67.5t32.5 65.5t15 91zM275 70q0 -34 -23 -57t-57 -23t-57 23t-23 57t23 57t57 23t57 -23t23 -57z" />
    <glyph glyph-name="at" unicode="@" horiz-adv-x="690" 
d="M230 270v160q0 110 80 110q20 0 34 -7.5t18 -14.5l4 -8h4v5q0 12 4 16t16 4h60q12 0 16 -4t4 -16v-247q0 -13 15 -13q65 0 65 100v75q0 87 -53.5 138.5t-146.5 51.5t-146.5 -51.5t-53.5 -138.5v-170q0 -79 52 -129.5t138 -50.5h95q15 0 20 -5t5 -20v-50q0 -15 -5 -20
t-20 -5h-95q-134 0 -217 79.5t-83 200.5v170q0 129 84.5 209.5t225.5 80.5t225.5 -80.5t84.5 -209.5v-85q0 -83 -50.5 -131.5t-139.5 -48.5h-65q-20 0 -30 17l-5 8h-4q-1 -3 -4 -8t-17.5 -13.5t-34.5 -8.5q-80 0 -80 110zM370 270v160q0 20 -20 20t-20 -20v-160
q0 -20 20 -20t20 20z" />
    <glyph glyph-name="A" unicode="A" 
d="M360 0h-90q-18 0 -24 6t-6 24v200q0 12 -4 16t-16 4h-40q-12 0 -16 -4t-4 -16v-200q0 -18 -6 -24t-24 -6h-60q-18 0 -24 6t-6 24v515q0 73 47.5 119t127.5 46t127.5 -46t47.5 -119v-515q0 -18 -6 -24t-24 -6zM160 550v-160q0 -12 4 -16t16 -4h40q12 0 16 4t4 16v160
q0 17 -11.5 28.5t-28.5 11.5t-28.5 -11.5t-11.5 -28.5z" />
    <glyph glyph-name="B" unicode="B" horiz-adv-x="435" 
d="M70 700h156q77 0 120.5 -41.5t43.5 -113.5v-40q0 -27 -6 -48.5t-15 -33.5t-18 -20t-15 -11l-6 -2v-10q3 -1 8.5 -3t19.5 -10.5t24.5 -20t19 -33t8.5 -48.5v-90q0 -79 -49.5 -127t-135.5 -48h-155q-18 0 -24 6t-6 24v640q0 18 6 24t24 6zM240 455v100q0 25 -25 25h-10
q-9 0 -12 -3t-3 -12v-120q0 -9 3 -12t12 -3h-2h-1h-1h1h1h1h1h1h9q25 0 25 25zM225 310h-20q-9 0 -12 -3t-3 -12v-160q0 -9 3 -12t12 -3h20q15 0 25 10t10 25v120q0 15 -10 25t-25 10z" />
    <glyph glyph-name="C" unicode="C" horiz-adv-x="420" 
d="M190 550v-400q0 -17 11.5 -28.5t28.5 -11.5t28.5 11.5t11.5 28.5v60q0 18 6 24t24 6h-1h-1h-1h-1h-1v0h1v0h1h1h1h1h1h1h1h1h2h1h1h2h1h2h1h2h2h1h2h2h2h2h2h3h2h2h3h3h2h4h3h9q18 0 24 -6t6 -24v-55q0 -73 -47.5 -119t-127.5 -46t-127.5 46t-47.5 119v390q0 73 47.5 119
t127.5 46t127.5 -46t47.5 -119v-55q0 -18 -6 -24t-24 -6h1h1h1h1h1v0h-1v0h-1h-1h-1h-1h-1h-1h-1h-1h-2h-1h-1h-2h-1h-2h-1h-2h-2h-1h-2h-2h-2h-2h-2h-3h-2h-2h-3h-3h-2h-4h-3h-9q-18 0 -24 6t-6 24v60q0 17 -11.5 28.5t-28.5 11.5t-28.5 -11.5t-11.5 -28.5z" />
    <glyph glyph-name="D" unicode="D" horiz-adv-x="450" 
d="M225 0h-155q-18 0 -24 6t-6 24v640q0 18 6 24t24 6h155q86 0 135.5 -48t49.5 -127v-350q0 -79 -49.5 -127t-135.5 -48zM205 120h20q15 0 25 10t10 25v390q0 15 -10 25t-25 10h-20q-9 0 -12 -3t-3 -12v-430q0 -9 3 -12t12 -3z" />
    <glyph glyph-name="E" unicode="E" horiz-adv-x="380" 
d="M40 30v640q0 18 6 24t24 6h260q18 0 24 -6t6 -24v-60q0 -18 -6 -24t-24 -6h-120q-12 0 -16 -4t-4 -16v-120q0 -12 4 -16t16 -4h70q18 0 24 -6t6 -24v-60q0 -18 -6 -24t-24 -6h-70q-12 0 -16 -4t-4 -16v-140q0 -12 4 -16t16 -4h120q18 0 24 -6t6 -24v-60q0 -18 -6 -24
t-24 -6h-260q-18 0 -24 6t-6 24z" />
    <glyph glyph-name="F" unicode="F" horiz-adv-x="370" 
d="M40 30v640q0 18 6 24t24 6h260q18 0 24 -6t6 -24v-60q0 -18 -6 -24t-24 -6h-120q-12 0 -16 -4t-4 -16v-140q0 -12 4 -16t16 -4h70q18 0 24 -6t6 -24v-60q0 -18 -6 -24t-24 -6h-70q-12 0 -16 -4t-4 -16v-230q0 -18 -6 -24t-24 -6h-90q-18 0 -24 6t-6 24z" />
    <glyph glyph-name="G" unicode="G" horiz-adv-x="425" 
d="M270 150v80q0 12 -4 16t-16 4h-10q-18 0 -24 6t-6 24v60q0 18 6 24t24 6h120q18 0 24 -6t6 -24v-185q0 -73 -47.5 -119t-127.5 -46t-127.5 46t-47.5 119v390q0 73 47.5 119t127.5 46t127.5 -46t47.5 -119v-55q0 -18 -6 -24t-24 -6h1h1h1h1h1v0h-1v0h-1h-1h-1h-1h-1h-1h-1
h-1h-2h-1h-1h-2h-1h-2h-1h-2h-2h-1h-2h-2h-2h-2h-2h-3h-2h-2h-3h-3h-2h-4h-3h-9q-18 0 -24 6t-6 24v60q0 17 -11.5 28.5t-28.5 11.5t-28.5 -11.5t-11.5 -28.5v-400q0 -17 11.5 -28.5t28.5 -11.5t28.5 11.5t11.5 28.5z" />
    <glyph glyph-name="H" unicode="H" horiz-adv-x="450" 
d="M260 30v250q0 12 -4 16t-16 4h-30q-12 0 -16 -4t-4 -16v-250q0 -18 -6 -24t-24 -6h-90q-18 0 -24 6t-6 24v640q0 18 6 24t24 6h90q18 0 24 -6t6 -24v-230q0 -12 4 -16t16 -4h30q12 0 16 4t4 16v230q0 18 6 24t24 6h90q18 0 24 -6t6 -24v-640q0 -18 -6 -24t-24 -6h-90
q-18 0 -24 6t-6 24z" />
    <glyph glyph-name="I" unicode="I" horiz-adv-x="350" 
d="M20 610v60q0 18 6 24t24 6h250q18 0 24 -6t6 -24v-60q0 -18 -6 -24t-24 -6h-30q-12 0 -16 -4t-4 -16v-420q0 -12 4 -16t16 -4h30q18 0 24 -6t6 -24v-60q0 -18 -6 -24t-24 -6h-250q-18 0 -24 6t-6 24v60q0 18 6 24t24 6h30q12 0 16 4t4 16v420q0 12 -4 16t-16 4h-30
q-18 0 -24 6t-6 24z" />
    <glyph glyph-name="J" unicode="J" horiz-adv-x="410" 
d="M220 150v410q0 12 -4 16t-16 4h-85q-18 0 -24 6t-6 24v60q0 18 6 24t24 6h225q18 0 24 -6t6 -24v-515q0 -73 -47.5 -119t-127.5 -46t-127.5 46t-47.5 119v55q0 18 6 24t24 6h-1h-1h-1h-1h-1v0h1v0h1h1h1h1h1h1h1h1h2h1h1h2h1h2h1h2h2h1h2h2h2h2h2h3h2h2h3h3h2h4h3h9
q18 0 24 -6t6 -24v-60q0 -17 11.5 -28.5t28.5 -11.5t28.5 11.5t11.5 28.5z" />
    <glyph glyph-name="K" unicode="K" horiz-adv-x="440" 
d="M400 255v-225q0 -18 -6 -24t-24 -6h-90q-18 0 -24 6t-6 24v235q0 15 -10 25t-25 10h-10q-9 0 -12 -3t-3 -12v-255q0 -18 -6 -24t-24 -6h-90q-18 0 -24 6t-6 24v640q0 18 6 24t24 6h90q18 0 24 -6t6 -24v-235q0 -9 3 -12t12 -3h10q15 0 25 10t10 25v215q0 18 6 24t24 6h90
q18 0 24 -6t6 -24v-205q0 -40 -17.5 -65t-34.5 -30l-18 -5v-10q3 0 7.5 -1.5t16.5 -8t21.5 -16.5t17 -29.5t7.5 -44.5z" />
    <glyph glyph-name="L" unicode="L" horiz-adv-x="350" 
d="M40 30v640q0 18 6 24t24 6h90q18 0 24 -6t6 -24v-530q0 -12 4 -16t16 -4h100q18 0 24 -6t6 -24v-60q0 -18 -6 -24t-24 -6h-240q-18 0 -24 6t-6 24z" />
    <glyph glyph-name="M" unicode="M" horiz-adv-x="580" 
d="M285 375h10l64 297q4 17 12.5 22.5t27.5 5.5h111q18 0 24 -6t6 -24v-640q0 -18 -6 -24t-24 -6h-90q-18 0 -24 6t-6 24v295h-10l-62 -297q-4 -17 -12.5 -22.5t-27.5 -5.5h8h-1h-2h-3h-8q-19 0 -27.5 5.5t-12.5 22.5l-62 297h-10v-295q0 -18 -6 -24t-24 -6h-60q-18 0 -24 6
t-6 24v640q0 18 6 24t24 6h112q19 0 27.5 -5.5t12.5 -22.5z" />
    <glyph glyph-name="N" unicode="N" 
d="M160 290v-260q0 -18 -6 -24t-24 -6h-60q-18 0 -24 6t-6 24v640q0 18 6 24t24 6h70q18 0 26 -6t13 -23l81 -261h10v260q0 18 6 24t24 6h60q18 0 24 -6t6 -24v-640q0 -18 -6 -24t-24 -6h-70q-18 0 -26 6t-13 23l-81 261h-10z" />
    <glyph glyph-name="O" unicode="O" horiz-adv-x="450" 
d="M190 555v-410q0 -15 10 -25t25 -10t25 10t10 25v410q0 15 -10 25t-25 10t-25 -10t-10 -25zM40 165v370q0 79 49.5 127t135.5 48t135.5 -48t49.5 -127v-370q0 -79 -49.5 -127t-135.5 -48t-135.5 48t-49.5 127z" />
    <glyph glyph-name="P" unicode="P" 
d="M215 180h-25v-150q0 -18 -6 -24t-24 -6h-90q-18 0 -24 6t-6 24v640q0 18 6 24t24 6h145q86 0 135.5 -48t49.5 -127v-170q0 -79 -49.5 -127t-135.5 -48zM205 300h10q15 0 25 10t10 25v210q0 15 -10 25t-25 10h-10q-9 0 -12 -3t-3 -12v-250q0 -9 3 -12t12 -3z" />
    <glyph glyph-name="Q" unicode="Q" horiz-adv-x="455" 
d="M190 555v-410q0 -15 10 -25t25 -10t25 10t10 25v410q0 15 -10 25t-25 10t-25 -10t-10 -25zM425 -140h5q-45 0 -81 13.5t-55.5 32.5t-32.5 38t-17 32l-4 14h-15q-86 0 -135.5 48t-49.5 127v370q0 79 49.5 127t135.5 48t135.5 -48t49.5 -127v-370q0 -44 -15 -78t-30 -45
l-15 -12q1 -2 2.5 -5.5t7.5 -12t13.5 -15t20 -12t26.5 -5.5h5q18 0 24 -6t6 -24v-60q0 -18 -6 -24t-24 -6z" />
    <glyph glyph-name="R" unicode="R" horiz-adv-x="440" 
d="M205 395h10q15 0 25 10t10 25v115q0 15 -10 25t-25 10h-10q-9 0 -12 -3t-3 -12v-155q0 -9 3 -12t12 -3zM240 115v125q0 35 -25 35h-10q-9 0 -12 -3t-3 -12v-230q0 -18 -6 -24t-24 -6h-90q-18 0 -24 6t-6 24v640q0 18 6 24t24 6h145q86 0 135.5 -48t49.5 -127v-75
q0 -40 -17.5 -67.5t-34.5 -34.5l-18 -8v-10q2 -1 6.5 -3t14.5 -10t18 -19t14.5 -32t6.5 -46v-80q0 -15 6 -20.5t14 -5t14 -5t6 -19.5v-70q0 -15 -5 -20t-20 -5h-45q-64 0 -92 27.5t-28 92.5z" />
    <glyph glyph-name="S" unicode="S" horiz-adv-x="400" 
d="M230 155q0 41 -20.5 77t-50 65.5t-59 61.5t-50 80t-20.5 106q0 73 47.5 119t127.5 46q79 0 127 -46t48 -119v-25q0 -18 -6 -24t-24 -6h1h1h1h1h1v0h-1v0h-1h-1h-1h-1h-1h-1h-1h-1h-2h-1h-1h-2h-1h-2h-1h-2h-2h-1h-2h-2h-2h-2h-2h-3h-2h-2h-3h-3h-2h-4h-3h-9q-18 0 -24 6
t-6 24v30q0 17 -11.5 28.5t-28.5 11.5t-28.5 -11.5t-11.5 -28.5q0 -41 20.5 -77t50 -65.5t59 -61.5t50 -80t20.5 -106q0 -77 -48.5 -123.5t-131.5 -46.5t-131.5 46.5t-48.5 123.5v30q0 18 6 24t24 6h-1h-1h-1h-1h-1v0h1v0h1h1h1h1h1h1h1h1h2h1h1h2h1h2h1h2h2h1h2h2h2h2h2h3
h2h2h3h3h2h4h3h9q18 0 24 -6t6 -24v-35q0 -19 13 -32t32 -13t32 13t13 32z" />
    <glyph glyph-name="T" unicode="T" horiz-adv-x="390" 
d="M10 610v60q0 18 6 24t24 6h310q18 0 24 -6t6 -24v-60q0 -18 -6 -24t-24 -6h-60q-12 0 -16 -4t-4 -16v-530q0 -18 -6 -24t-24 -6h-90q-18 0 -24 6t-6 24v530q0 12 -4 16t-16 4h-60q-18 0 -24 6t-6 24z" />
    <glyph glyph-name="U" unicode="U" 
d="M270 150v520q0 18 6 24t24 6h60q18 0 24 -6t6 -24v-515q0 -73 -47.5 -119t-127.5 -46t-127.5 46t-47.5 119v515q0 18 6 24t24 6h90q18 0 24 -6t6 -24v-520q0 -17 11.5 -28.5t28.5 -11.5t28.5 11.5t11.5 28.5z" />
    <glyph glyph-name="V" unicode="V" horiz-adv-x="424" 
d="M407 670l-100 -640q-3 -18 -10 -24t-25 -6h-120q-18 0 -25 6t-10 24l-100 640q-3 18 2 24t23 6h105q18 0 24.5 -6t8.5 -24l42 -350h10l42 350q2 18 8.5 24t24.5 6h75q18 0 23 -6t2 -24z" />
    <glyph glyph-name="W" unicode="W" horiz-adv-x="566" 
d="M288 265h-10l-37 -235q-3 -18 -9.5 -24t-24.5 -6h-85q-18 0 -24.5 6t-8.5 24l-73 640q-2 18 3.5 24t23.5 6h100q18 0 25 -6t8 -24l25 -265h10l43 265q3 18 9.5 24t24.5 6h-4h-2h-1v0h1h1h1h1h2h2h2h2h3h4h8q18 0 24.5 -6t9.5 -24l43 -265h10l25 265q1 18 8 24t25 6h70
q18 0 23.5 -6t3.5 -24l-73 -640q-2 -18 -8.5 -24t-24.5 -6h-85q-18 0 -24.5 6t-9.5 24z" />
    <glyph glyph-name="X" unicode="X" horiz-adv-x="400" 
d="M382 671l-84 -292q-8 -29 0 -58l84 -292q5 -17 0.5 -23t-22.5 -6h-108q-18 0 -25 6t-11 23l-26 121h-10l-26 -121q-4 -17 -11 -23t-25 -6h-78q-18 0 -22.5 6t0.5 23l84 292q8 29 0 58l-84 292q-5 17 -0.5 23t22.5 6h108q18 0 25 -6t11 -23l26 -131h10l26 131q4 17 11 23
t25 6h78q18 0 22.5 -6t-0.5 -23z" />
    <glyph glyph-name="Y" unicode="Y" horiz-adv-x="392" 
d="M271 160v-130q0 -18 -6 -24t-24 -6h-90q-18 0 -24 6t-6 24v130q0 32 -7 59l-101 452q-4 17 0.5 23t22.5 6h105q18 0 24.5 -6t9.5 -24l31 -210h10l31 210q3 18 9.5 24t24.5 6h75q18 0 22.5 -6t0.5 -23l-101 -452q-7 -27 -7 -59z" />
    <glyph glyph-name="Z" unicode="Z" horiz-adv-x="380" 
d="M20 610v60q0 18 6 24t24 6h280q18 0 24 -6t6 -24v-70q0 -32 -12 -58l-164 -394q-5 -10 -2.5 -14t14.5 -4h134q18 0 24 -6t6 -24v-70q0 -18 -6 -24t-24 -6h-280q-18 0 -24 6t-6 24v70q0 32 12 58l168 404q5 10 2.5 14t-14.5 4h-138q-18 0 -24 6t-6 24z" />
    <glyph glyph-name="bracketleft" unicode="[" horiz-adv-x="260" 
d="M200 10h20q18 0 24 -6t6 -24v2v1v1v0v1v0v-1v-1v-1v-1v-1v-1v-1v-2v-1v-1v-2v-1v-2v-2v-2v-1v-2v-3v-2v-2v-2v-3v-3v-2v-4v-3v-8q0 -18 -6 -24t-24 -6h-130q-18 0 -24 6t-6 24v820q0 18 6 24t24 6h130q18 0 24 -6t6 -24v2v1v1v1v0v0v0v-1v-1v-1v-1v-1v-1v-1v-1v-2v-1v-1
v-2v-2v-1v-2v-2v-2v-2v-2v-2v-2v-3v-2v-3v-3v-3v-10q0 -18 -6 -24t-24 -6h-20q-12 0 -16 -4t-4 -16v-620q0 -12 4 -16t16 -4z" />
    <glyph glyph-name="backslash" unicode="\" horiz-adv-x="328" 
d="M94 672l230 -644q6 -16 2 -22t-22 -6h-30q-18 0 -26 5.5t-14 22.5v0v0v-1v0v0v0v0v0v0v0v1v0v0v0v0v1v0v0h-1v1v0v1v0v1v0h-1v1v0v1v0v1h-1v1v0v1v1h-1v1v1l-1 1v1v1h-1v1v1v1l-1 1v1v1h-1v1v1v1h-1v1v1l-1 1v1v1l-1 1v1v1h-1v1v1v1l-1 1v1v1h-1v1v1v1h-1v1v1h-1v1v1v1
l-1 1v1v1l-1 1v1l-1 1v1v1l-1 1v1v1l-1 1v1l-1 1v1v1v1l-1 1v1l-1 1v1v1l-1 1v1v1l-1 1v1l-1 1v1v1l-1 1v1v1l-1 1v1v1l-1 1v1v1l-1 1v1v1l-1 1v1v1l-1 1v1v1l-1 1v1l-1 1v1v1l-1 1v1v1l-1 1v1v1l-1 1v1l-1 1v1v1l-1 1v1l-1 1v2v1l-1 1v1v1l-1 1v1l-1 1v1v1l-1 2v1l-1 1v1v1
l-1 1v1l-1 1v2v1l-1 1v1l-1 1v1l-1 2v1v1l-1 1v1l-1 1v2v1l-1 1v1l-1 1v2l-1 1v1l-1 1v1v2l-1 1v1l-1 1v2l-1 1v1v1l-1 2v1l-1 1v1l-1 2v1l-1 1v1l-1 2v1v1l-1 1v2l-1 1v1l-1 2v1l-1 1v2l-1 1v1l-1 1v2v1l-1 1v2l-1 1v1l-1 2v1l-1 1v2l-1 1v1l-1 2v1l-1 2v1l-1 1v2l-1 1v1
l-1 2v1l-1 2v1l-1 1v2l-1 1v2l-1 1v1l-1 2v1l-1 2v1l-1 1v2l-1 1v2l-1 1v2l-1 1v1l-1 2v1l-1 2v1l-1 2v1l-1 2v1l-1 1v2l-1 1v2l-1 1l-1 2v1l-1 2v1l-1 2v1l-1 2v1l-1 2v1l-1 2v1l-1 2v1l-1 2l-1 1v2l-1 1v2l-1 1v2l-1 2v1l-1 2v1l-1 2l-1 1v2l-1 1v2l-1 1v2l-1 2v1l-1 2
l-1 1v2l-1 1v2l-1 2v1l-1 2l-1 1v2l-1 2v1l-1 2v1l-1 2l-1 2v1l-1 2v2l-1 1v2l-1 1l-1 2v2l-1 1v2l-1 2l-1 1v2l-1 2v1l-1 2l-1 2v1l-1 2v2l-1 1l-1 2v2l-1 1v2l-1 2l-1 1v2l-1 2v1l-1 2l-1 2v1l-1 2v2l-1 2l-1 1v2l-1 2v1l-1 2l-1 2v2l-1 1l-1 2v2l-1 2v1l-1 2l-1 2v2l-1 1
l-1 2v2l-1 2v1l-1 2l-1 2v2l-1 2l-1 1v2l-1 2l-1 2v1l-1 2v2l-1 2l-1 2v1l-1 2l-1 2v2l-1 2l-1 2v1l-1 2l-1 2v2l-1 2l-1 2v1l-1 2l-1 2v2l-1 2l-1 2v2l-1 2l-1 1v2l-1 2l-1 2v2l-1 2l-1 2v2l-1 2l-1 1v2l-1 2l-1 2v2l-1 2l-1 2v2l-1 2l-1 2l-1 2v2l-1 2l-1 2v2l-1 2l-1 2
l-1 2v2l-1 2l-1 2v2l-1 2l-1 2l-1 2v2l-1 2l-1 2v2l-1 2l-1 2l-1 2v2l-1 2l-1 2l-1 2v3l-1 2l-1 2l-1 2v2l-1 2l-1 2l-1 3l-1 2v2l-1 2l-1 3l-1 2l-1 2v3l-1 2l-1 2l-1 3l-1 2l-1 3l-1 3q-6 16 -2 22t22 6h30q18 0 26 -5.5t14 -22.5z" />
    <glyph glyph-name="bracketright" unicode="]" horiz-adv-x="260" 
d="M40 0h20q12 0 16 4t4 16v640q0 12 -4 16t-16 4h-20q-18 0 -24 6t-6 24v-2v-1v-1v-1v0v0v1v1v1v1v1v2v1v2v1v2v2v2v2v2v2v3v3v3v3v4v6q0 18 6 24t24 6h130q18 0 24 -6t6 -24v-820q0 -18 -6 -24t-24 -6h-130q-18 0 -24 6t-6 24v-2v-1v-2v-1v0v1v0v1v1v1v1v1v2v1v1v2v2v1v2
v2v3v2v2v3v2v3v4v8q0 18 6 24t24 6z" />
    <glyph glyph-name="asciicircum" unicode="^" horiz-adv-x="395" 
d="M167 700h61q18 0 25.5 -6t13.5 -23l94 -293q5 -16 1 -22t-22 -6h-57q-18 0 -26 6t-12 23l-45 161h-5l-45 -161q-4 -17 -12 -23t-26 -6h-57q-18 0 -22 6t1 23l94 292q6 17 13.5 23t25.5 6z" />
    <glyph glyph-name="underscore" unicode="_" horiz-adv-x="270" 
d="M-30 -130v50q0 18 6 24t24 6h270q18 0 24 -6t6 -24v-50q0 -18 -6 -24t-24 -6h-270q-18 0 -24 6t-6 24z" />
    <glyph glyph-name="grave" unicode="`" horiz-adv-x="229" 
d="M100 547l-64 126q-8 17 -4.5 22t21.5 5h80q18 0 25 -6t11 -23l27 -122q4 -17 -0.5 -23t-22.5 -6h-30q-18 0 -27 5.5t-16 21.5z" />
    <glyph glyph-name="a" unicode="a" 
d="M360 0h-90q-18 0 -24 6t-6 24v200q0 12 -4 16t-16 4h-40q-12 0 -16 -4t-4 -16v-200q0 -18 -6 -24t-24 -6h-60q-18 0 -24 6t-6 24v515q0 73 47.5 119t127.5 46t127.5 -46t47.5 -119v-515q0 -18 -6 -24t-24 -6zM160 550v-160q0 -12 4 -16t16 -4h40q12 0 16 4t4 16v160
q0 17 -11.5 28.5t-28.5 11.5t-28.5 -11.5t-11.5 -28.5z" />
    <glyph glyph-name="b" unicode="b" horiz-adv-x="435" 
d="M70 700h156q77 0 120.5 -41.5t43.5 -113.5v-40q0 -27 -6 -48.5t-15 -33.5t-18 -20t-15 -11l-6 -2v-10q3 -1 8.5 -3t19.5 -10.5t24.5 -20t19 -33t8.5 -48.5v-90q0 -79 -49.5 -127t-135.5 -48h-155q-18 0 -24 6t-6 24v640q0 18 6 24t24 6zM240 455v100q0 25 -25 25h-10
q-9 0 -12 -3t-3 -12v-120q0 -9 3 -12t12 -3h-2h-1h-1h1h1h1h1h1h9q25 0 25 25zM225 310h-20q-9 0 -12 -3t-3 -12v-160q0 -9 3 -12t12 -3h20q15 0 25 10t10 25v120q0 15 -10 25t-25 10z" />
    <glyph glyph-name="c" unicode="c" horiz-adv-x="420" 
d="M190 550v-400q0 -17 11.5 -28.5t28.5 -11.5t28.5 11.5t11.5 28.5v60q0 18 6 24t24 6h-1h-1h-1h-1h-1v0h1v0h1h1h1h1h1h1h1h1h2h1h1h2h1h2h1h2h2h1h2h2h2h2h2h3h2h2h3h3h2h4h3h9q18 0 24 -6t6 -24v-55q0 -73 -47.5 -119t-127.5 -46t-127.5 46t-47.5 119v390q0 73 47.5 119
t127.5 46t127.5 -46t47.5 -119v-55q0 -18 -6 -24t-24 -6h1h1h1h1h1v0h-1v0h-1h-1h-1h-1h-1h-1h-1h-1h-2h-1h-1h-2h-1h-2h-1h-2h-2h-1h-2h-2h-2h-2h-2h-3h-2h-2h-3h-3h-2h-4h-3h-9q-18 0 -24 6t-6 24v60q0 17 -11.5 28.5t-28.5 11.5t-28.5 -11.5t-11.5 -28.5z" />
    <glyph glyph-name="d" unicode="d" horiz-adv-x="450" 
d="M225 0h-155q-18 0 -24 6t-6 24v640q0 18 6 24t24 6h155q86 0 135.5 -48t49.5 -127v-350q0 -79 -49.5 -127t-135.5 -48zM205 120h20q15 0 25 10t10 25v390q0 15 -10 25t-25 10h-20q-9 0 -12 -3t-3 -12v-430q0 -9 3 -12t12 -3z" />
    <glyph glyph-name="e" unicode="e" horiz-adv-x="380" 
d="M40 30v640q0 18 6 24t24 6h260q18 0 24 -6t6 -24v-60q0 -18 -6 -24t-24 -6h-120q-12 0 -16 -4t-4 -16v-120q0 -12 4 -16t16 -4h70q18 0 24 -6t6 -24v-60q0 -18 -6 -24t-24 -6h-70q-12 0 -16 -4t-4 -16v-140q0 -12 4 -16t16 -4h120q18 0 24 -6t6 -24v-60q0 -18 -6 -24
t-24 -6h-260q-18 0 -24 6t-6 24z" />
    <glyph glyph-name="f" unicode="f" horiz-adv-x="370" 
d="M40 30v640q0 18 6 24t24 6h260q18 0 24 -6t6 -24v-60q0 -18 -6 -24t-24 -6h-120q-12 0 -16 -4t-4 -16v-140q0 -12 4 -16t16 -4h70q18 0 24 -6t6 -24v-60q0 -18 -6 -24t-24 -6h-70q-12 0 -16 -4t-4 -16v-230q0 -18 -6 -24t-24 -6h-90q-18 0 -24 6t-6 24z" />
    <glyph glyph-name="g" unicode="g" horiz-adv-x="425" 
d="M270 150v80q0 12 -4 16t-16 4h-10q-18 0 -24 6t-6 24v60q0 18 6 24t24 6h120q18 0 24 -6t6 -24v-185q0 -73 -47.5 -119t-127.5 -46t-127.5 46t-47.5 119v390q0 73 47.5 119t127.5 46t127.5 -46t47.5 -119v-55q0 -18 -6 -24t-24 -6h1h1h1h1h1v0h-1v0h-1h-1h-1h-1h-1h-1h-1
h-1h-2h-1h-1h-2h-1h-2h-1h-2h-2h-1h-2h-2h-2h-2h-2h-3h-2h-2h-3h-3h-2h-4h-3h-9q-18 0 -24 6t-6 24v60q0 17 -11.5 28.5t-28.5 11.5t-28.5 -11.5t-11.5 -28.5v-400q0 -17 11.5 -28.5t28.5 -11.5t28.5 11.5t11.5 28.5z" />
    <glyph glyph-name="h" unicode="h" horiz-adv-x="450" 
d="M260 30v250q0 12 -4 16t-16 4h-30q-12 0 -16 -4t-4 -16v-250q0 -18 -6 -24t-24 -6h-90q-18 0 -24 6t-6 24v640q0 18 6 24t24 6h90q18 0 24 -6t6 -24v-230q0 -12 4 -16t16 -4h30q12 0 16 4t4 16v230q0 18 6 24t24 6h90q18 0 24 -6t6 -24v-640q0 -18 -6 -24t-24 -6h-90
q-18 0 -24 6t-6 24z" />
    <glyph glyph-name="i" unicode="i" horiz-adv-x="350" 
d="M20 610v60q0 18 6 24t24 6h250q18 0 24 -6t6 -24v-60q0 -18 -6 -24t-24 -6h-30q-12 0 -16 -4t-4 -16v-420q0 -12 4 -16t16 -4h30q18 0 24 -6t6 -24v-60q0 -18 -6 -24t-24 -6h-250q-18 0 -24 6t-6 24v60q0 18 6 24t24 6h30q12 0 16 4t4 16v420q0 12 -4 16t-16 4h-30
q-18 0 -24 6t-6 24z" />
    <glyph glyph-name="j" unicode="j" horiz-adv-x="410" 
d="M220 150v410q0 12 -4 16t-16 4h-85q-18 0 -24 6t-6 24v60q0 18 6 24t24 6h225q18 0 24 -6t6 -24v-515q0 -73 -47.5 -119t-127.5 -46t-127.5 46t-47.5 119v55q0 18 6 24t24 6h-1h-1h-1h-1h-1v0h1v0h1h1h1h1h1h1h1h1h2h1h1h2h1h2h1h2h2h1h2h2h2h2h2h3h2h2h3h3h2h4h3h9
q18 0 24 -6t6 -24v-60q0 -17 11.5 -28.5t28.5 -11.5t28.5 11.5t11.5 28.5z" />
    <glyph glyph-name="k" unicode="k" horiz-adv-x="440" 
d="M400 255v-225q0 -18 -6 -24t-24 -6h-90q-18 0 -24 6t-6 24v235q0 15 -10 25t-25 10h-10q-9 0 -12 -3t-3 -12v-255q0 -18 -6 -24t-24 -6h-90q-18 0 -24 6t-6 24v640q0 18 6 24t24 6h90q18 0 24 -6t6 -24v-235q0 -9 3 -12t12 -3h10q15 0 25 10t10 25v215q0 18 6 24t24 6h90
q18 0 24 -6t6 -24v-205q0 -40 -17.5 -65t-34.5 -30l-18 -5v-10q3 0 7.5 -1.5t16.5 -8t21.5 -16.5t17 -29.5t7.5 -44.5z" />
    <glyph glyph-name="l" unicode="l" horiz-adv-x="350" 
d="M40 30v640q0 18 6 24t24 6h90q18 0 24 -6t6 -24v-530q0 -12 4 -16t16 -4h100q18 0 24 -6t6 -24v-60q0 -18 -6 -24t-24 -6h-240q-18 0 -24 6t-6 24z" />
    <glyph glyph-name="m" unicode="m" horiz-adv-x="580" 
d="M285 375h10l64 297q4 17 12.5 22.5t27.5 5.5h111q18 0 24 -6t6 -24v-640q0 -18 -6 -24t-24 -6h-90q-18 0 -24 6t-6 24v295h-10l-62 -297q-4 -17 -12.5 -22.5t-27.5 -5.5h8h-1h-2h-3h-8q-19 0 -27.5 5.5t-12.5 22.5l-62 297h-10v-295q0 -18 -6 -24t-24 -6h-60q-18 0 -24 6
t-6 24v640q0 18 6 24t24 6h112q19 0 27.5 -5.5t12.5 -22.5z" />
    <glyph glyph-name="n" unicode="n" 
d="M160 290v-260q0 -18 -6 -24t-24 -6h-60q-18 0 -24 6t-6 24v640q0 18 6 24t24 6h70q18 0 26 -6t13 -23l81 -261h10v260q0 18 6 24t24 6h60q18 0 24 -6t6 -24v-640q0 -18 -6 -24t-24 -6h-70q-18 0 -26 6t-13 23l-81 261h-10z" />
    <glyph glyph-name="o" unicode="o" horiz-adv-x="450" 
d="M190 555v-410q0 -15 10 -25t25 -10t25 10t10 25v410q0 15 -10 25t-25 10t-25 -10t-10 -25zM40 165v370q0 79 49.5 127t135.5 48t135.5 -48t49.5 -127v-370q0 -79 -49.5 -127t-135.5 -48t-135.5 48t-49.5 127z" />
    <glyph glyph-name="p" unicode="p" 
d="M215 180h-25v-150q0 -18 -6 -24t-24 -6h-90q-18 0 -24 6t-6 24v640q0 18 6 24t24 6h145q86 0 135.5 -48t49.5 -127v-170q0 -79 -49.5 -127t-135.5 -48zM205 300h10q15 0 25 10t10 25v210q0 15 -10 25t-25 10h-10q-9 0 -12 -3t-3 -12v-250q0 -9 3 -12t12 -3z" />
    <glyph glyph-name="q" unicode="q" horiz-adv-x="455" 
d="M190 555v-410q0 -15 10 -25t25 -10t25 10t10 25v410q0 15 -10 25t-25 10t-25 -10t-10 -25zM425 -140h5q-45 0 -81 13.5t-55.5 32.5t-32.5 38t-17 32l-4 14h-15q-86 0 -135.5 48t-49.5 127v370q0 79 49.5 127t135.5 48t135.5 -48t49.5 -127v-370q0 -44 -15 -78t-30 -45
l-15 -12q1 -2 2.5 -5.5t7.5 -12t13.5 -15t20 -12t26.5 -5.5h5q18 0 24 -6t6 -24v-60q0 -18 -6 -24t-24 -6z" />
    <glyph glyph-name="r" unicode="r" horiz-adv-x="440" 
d="M205 395h10q15 0 25 10t10 25v115q0 15 -10 25t-25 10h-10q-9 0 -12 -3t-3 -12v-155q0 -9 3 -12t12 -3zM240 115v125q0 35 -25 35h-10q-9 0 -12 -3t-3 -12v-230q0 -18 -6 -24t-24 -6h-90q-18 0 -24 6t-6 24v640q0 18 6 24t24 6h145q86 0 135.5 -48t49.5 -127v-75
q0 -40 -17.5 -67.5t-34.5 -34.5l-18 -8v-10q2 -1 6.5 -3t14.5 -10t18 -19t14.5 -32t6.5 -46v-80q0 -15 6 -20.5t14 -5t14 -5t6 -19.5v-70q0 -15 -5 -20t-20 -5h-45q-64 0 -92 27.5t-28 92.5z" />
    <glyph glyph-name="s" unicode="s" horiz-adv-x="400" 
d="M230 155q0 41 -20.5 77t-50 65.5t-59 61.5t-50 80t-20.5 106q0 73 47.5 119t127.5 46q79 0 127 -46t48 -119v-25q0 -18 -6 -24t-24 -6h1h1h1h1h1v0h-1v0h-1h-1h-1h-1h-1h-1h-1h-1h-2h-1h-1h-2h-1h-2h-1h-2h-2h-1h-2h-2h-2h-2h-2h-3h-2h-2h-3h-3h-2h-4h-3h-9q-18 0 -24 6
t-6 24v30q0 17 -11.5 28.5t-28.5 11.5t-28.5 -11.5t-11.5 -28.5q0 -41 20.5 -77t50 -65.5t59 -61.5t50 -80t20.5 -106q0 -77 -48.5 -123.5t-131.5 -46.5t-131.5 46.5t-48.5 123.5v30q0 18 6 24t24 6h-1h-1h-1h-1h-1v0h1v0h1h1h1h1h1h1h1h1h2h1h1h2h1h2h1h2h2h1h2h2h2h2h2h3
h2h2h3h3h2h4h3h9q18 0 24 -6t6 -24v-35q0 -19 13 -32t32 -13t32 13t13 32z" />
    <glyph glyph-name="t" unicode="t" horiz-adv-x="390" 
d="M10 610v60q0 18 6 24t24 6h310q18 0 24 -6t6 -24v-60q0 -18 -6 -24t-24 -6h-60q-12 0 -16 -4t-4 -16v-530q0 -18 -6 -24t-24 -6h-90q-18 0 -24 6t-6 24v530q0 12 -4 16t-16 4h-60q-18 0 -24 6t-6 24z" />
    <glyph glyph-name="u" unicode="u" 
d="M270 150v520q0 18 6 24t24 6h60q18 0 24 -6t6 -24v-515q0 -73 -47.5 -119t-127.5 -46t-127.5 46t-47.5 119v515q0 18 6 24t24 6h90q18 0 24 -6t6 -24v-520q0 -17 11.5 -28.5t28.5 -11.5t28.5 11.5t11.5 28.5z" />
    <glyph glyph-name="v" unicode="v" horiz-adv-x="424" 
d="M407 670l-100 -640q-3 -18 -10 -24t-25 -6h-120q-18 0 -25 6t-10 24l-100 640q-3 18 2 24t23 6h105q18 0 24.5 -6t8.5 -24l42 -350h10l42 350q2 18 8.5 24t24.5 6h75q18 0 23 -6t2 -24z" />
    <glyph glyph-name="w" unicode="w" horiz-adv-x="566" 
d="M288 265h-10l-37 -235q-3 -18 -9.5 -24t-24.5 -6h-85q-18 0 -24.5 6t-8.5 24l-73 640q-2 18 3.5 24t23.5 6h100q18 0 25 -6t8 -24l25 -265h10l43 265q3 18 9.5 24t24.5 6h-4h-2h-1v0h1h1h1h1h2h2h2h2h3h4h8q18 0 24.5 -6t9.5 -24l43 -265h10l25 265q1 18 8 24t25 6h70
q18 0 23.5 -6t3.5 -24l-73 -640q-2 -18 -8.5 -24t-24.5 -6h-85q-18 0 -24.5 6t-9.5 24z" />
    <glyph glyph-name="x" unicode="x" horiz-adv-x="400" 
d="M382 671l-84 -292q-8 -29 0 -58l84 -292q5 -17 0.5 -23t-22.5 -6h-108q-18 0 -25 6t-11 23l-26 121h-10l-26 -121q-4 -17 -11 -23t-25 -6h-78q-18 0 -22.5 6t0.5 23l84 292q8 29 0 58l-84 292q-5 17 -0.5 23t22.5 6h108q18 0 25 -6t11 -23l26 -131h10l26 131q4 17 11 23
t25 6h78q18 0 22.5 -6t-0.5 -23z" />
    <glyph glyph-name="y" unicode="y" horiz-adv-x="392" 
d="M271 160v-130q0 -18 -6 -24t-24 -6h-90q-18 0 -24 6t-6 24v130q0 32 -7 59l-101 452q-4 17 0.5 23t22.5 6h105q18 0 24.5 -6t9.5 -24l31 -210h10l31 210q3 18 9.5 24t24.5 6h75q18 0 22.5 -6t0.5 -23l-101 -452q-7 -27 -7 -59z" />
    <glyph glyph-name="z" unicode="z" horiz-adv-x="380" 
d="M20 610v60q0 18 6 24t24 6h280q18 0 24 -6t6 -24v-70q0 -32 -12 -58l-164 -394q-5 -10 -2.5 -14t14.5 -4h134q18 0 24 -6t6 -24v-70q0 -18 -6 -24t-24 -6h-280q-18 0 -24 6t-6 24v70q0 32 12 58l168 404q5 10 2.5 14t-14.5 4h-138q-18 0 -24 6t-6 24z" />
    <glyph glyph-name="braceleft" unicode="{" horiz-adv-x="290" 
d="M20 315v60q0 18 6 24t24 6h10q14 0 22 8.5t8 21.5v215q0 62 41 101t109 39h10q18 0 24 -6t6 -24v-50q0 -18 -6 -24t-24 -6h-10q-13 0 -21.5 -8.5t-8.5 -21.5v-205q0 -25 -5 -44.5t-12.5 -29t-15 -15t-12.5 -6.5l-5 -2v-6q2 0 5.5 -1t12 -7t15 -15.5t12 -29t5.5 -44.5
v-205q0 -13 8.5 -21.5t21.5 -8.5h10q18 0 24 -6t6 -24v-50q0 -18 -6 -24t-24 -6h-10q-68 0 -109 38.5t-41 101.5v215q0 13 -8 21.5t-22 8.5h-10q-18 0 -24 6t-6 24z" />
    <glyph glyph-name="bar" unicode="|" horiz-adv-x="280" 
d="M80 -70v840q0 18 6 24t24 6h60q18 0 24 -6t6 -24v-840q0 -18 -6 -24t-24 -6h-60q-18 0 -24 6t-6 24z" />
    <glyph glyph-name="braceright" unicode="}" horiz-adv-x="290" 
d="M270 375v-60q0 -18 -6 -24t-24 -6h-10q-14 0 -22 -8.5t-8 -21.5v-215q0 -62 -41 -101t-109 -39h-10q-18 0 -24 6t-6 24v50q0 18 6 24t24 6h10q13 0 21.5 8.5t8.5 21.5v205q0 25 5 44.5t12.5 29t15 15t12.5 6.5l5 2v6q-2 0 -5.5 1t-12 7t-15 15.5t-12 29t-5.5 44.5v205
q0 13 -8.5 21.5t-21.5 8.5h-10q-18 0 -24 6t-6 24v50q0 18 6 24t24 6h10q68 0 109 -38.5t41 -101.5v-215q0 -13 8 -21.5t22 -8.5h10q18 0 24 -6t6 -24z" />
    <glyph glyph-name="asciitilde" unicode="~" horiz-adv-x="390" 
d="M150 290q-20 0 -20 -20q0 -12 -4 -16t-16 -4h1h1h1v0h-1v0h-1h-1h-1h-1h-1h-1h-1h-1h-1h-2h-1h-2h-1h-2h-1h-2h-2h-2h-2h-2h-2h-2h-2h-3h-2h-3h-3h-3h-9q-15 0 -20 5t-5 20v65q0 30 20 50t50 20q32 0 77 -20t63 -20q20 0 20 20q0 12 4 16t16 4h-1h-1h-1v0h1v0h1h1h1h1h1
h1h1h1h1h2h1h2h1h2h1h2h2h2h2h2h2h2h2h3h2h3h3h3h9q15 0 20 -5t5 -20v-65q0 -30 -20 -50t-50 -20q-32 0 -77 20t-63 20z" />
    <glyph glyph-name="nbspace" unicode="&#xa0;" horiz-adv-x="180" 
 />
    <glyph glyph-name="exclamdown" unicode="&#xa1;" horiz-adv-x="260" 
d="M191 460l18 -430q1 -18 -5 -24t-24 -6h-100q-18 0 -24 6t-5 24l18 430q1 18 7 24t24 6h60q18 0 24 -6t7 -24zM50 630q0 34 23 57t57 23t57 -23t23 -57t-23 -57t-57 -23t-57 23t-23 57z" />
    <glyph glyph-name="cent" unicode="&#xa2;" horiz-adv-x="380" 
d="M121 4q-43 17 -67 54.5t-24 86.5v240q0 49 24 86.5t67 54.5q16 6 16 24v40q0 18 6 24t24 6h60q18 0 24 -6t6 -24v-40q0 -20 16 -26q41 -18 64 -55t23 -84v-20q0 -18 -6 -24t-24 -6h-65q-18 0 -24 6t-6 24v27q0 14 -9 23.5t-24 9.5q-14 0 -23 -9.5t-9 -23.5v-254
q0 -14 9 -23.5t23 -9.5q15 0 24 9.5t9 23.5v27q0 18 6 24t24 6h65q18 0 24 -6t6 -24v-20q0 -48 -23 -84.5t-64 -54.5q-16 -6 -16 -26v-40q0 -18 -6 -24t-24 -6h-60q-18 0 -24 6t-6 24v40q0 18 -16 24z" />
    <glyph glyph-name="sterling" unicode="&#xa3;" horiz-adv-x="390" 
d="M40 555q0 66 46.5 110.5t118.5 44.5t118.5 -44.5t46.5 -110.5v-35q0 -18 -6 -24t-24 -6h-60q-18 0 -24 6t-6 24v40q0 14 -8 22t-22 8t-22 -8t-8 -22q0 -93 48 -149q8 -11 23 -11h59q18 0 24 -6t6 -24v-60q0 -18 -6 -24t-24 -6h-46q-15 0 -15 -14q-5 -61 -48 -129
q-10 -17 7 -17h112q18 0 24 -6t6 -24v-60q0 -18 -6 -24t-24 -6h-270q-18 0 -24 6t-6 24v70q0 12 4 16t16 4q10 0 15 9q39 81 44 135q3 16 -14 16h-35q-18 0 -24 6t-6 24v60q0 18 6 24t24 6h5q18 0 9 17q-34 65 -34 138z" />
    <glyph glyph-name="currency" unicode="&#xa4;" horiz-adv-x="475" 
d="M235 255v-5q0 -9 3 -12t12 -3h65q18 0 24 -6t6 -24v-50q0 -18 -6 -24t-24 -6h-65q-9 0 -12 -3t-3 -12v-80q0 -18 -6 -24t-24 -6h-90q-18 0 -24 6t-6 24v80q0 9 -3 12t-12 3h-20q-18 0 -24 6t-6 24v50q0 18 6 24t24 6h20q9 0 12 3t3 12v5q0 9 -3 12t-12 3h-20q-18 0 -24 6
t-6 24v50q0 18 6 24t24 6h20q9 0 12 3t3 12v275q0 18 6 24t24 6h145q86 0 135.5 -48t49.5 -127v-90q0 -75 -45 -120t-120 -45h-30q-9 0 -12 -3t-3 -12zM250 380h10q15 0 25 10t10 25v130q0 15 -10 25t-25 10h-10q-9 0 -12 -3t-3 -12v-170q0 -9 3 -12t12 -3z" />
    <glyph glyph-name="yen" unicode="&#xa5;" horiz-adv-x="392" 
d="M80 310q15 0 11 15l-78 346q-4 17 0.5 23t22.5 6h105q18 0 24.5 -6t9.5 -24l31 -210h10l31 210q3 18 9.5 24t24.5 6h75q18 0 22.5 -6t0.5 -23l-78 -346q-4 -15 11 -15q14 0 19 -5t5 -20v-40q0 -15 -5 -20t-20 -5h-23q-10 0 -12 -10t8 -10h27q15 0 20 -5t5 -20v-40
q0 -15 -5 -20t-20 -5h-25q-9 0 -12 -3t-3 -12v-65q0 -18 -6 -24t-24 -6h-90q-18 0 -24 6t-6 24v65q0 9 -3 12t-12 3h-25q-15 0 -20 5t-5 20v40q0 15 5 20t20 5h27q10 0 8 10t-12 10h-23q-15 0 -20 5t-5 20v40q0 15 5 20t19 5z" />
    <glyph glyph-name="brokenbar" unicode="&#xa6;" horiz-adv-x="280" 
d="M80 450v320q0 18 6 24t24 6h60q18 0 24 -6t6 -24v-320q0 -18 -6 -24t-24 -6h-60q-18 0 -24 6t-6 24zM80 -70v320q0 18 6 24t24 6h60q18 0 24 -6t6 -24v-320q0 -18 -6 -24t-24 -6h-60q-18 0 -24 6t-6 24z" />
    <glyph glyph-name="section" unicode="&#xa7;" horiz-adv-x="390" 
d="M150 -50q0 -16 9.5 -25.5t25.5 -9.5t25.5 9.5t9.5 25.5q0 22 -18.5 43t-45 41.5t-53 44t-45 60.5t-18.5 81v70q0 31 9.5 54.5t22.5 35.5t26 19.5t22 8.5l10 2v10q-4 2 -10 6t-21.5 17.5t-27.5 28.5t-21.5 39t-9.5 49q0 64 45 107t115 43t115 -43t45 -107v-5q0 -15 -5 -20
t-20 -5h-60q-15 0 -20 5t-5 20q0 16 -9.5 25.5t-25.5 9.5t-25.5 -9.5t-9.5 -25.5q0 -19 18.5 -39t45 -39.5t53 -43.5t45 -61.5t18.5 -81.5v-70q0 -31 -9.5 -54.5t-22.5 -35.5t-26 -19.5t-22 -8.5l-10 -2v-10q4 -2 10 -6t21.5 -17.5t27.5 -28.5t21.5 -39t9.5 -49
q0 -68 -45.5 -111.5t-119.5 -43.5t-119.5 43.5t-45.5 111.5q0 15 5 20t20 5h70q15 0 20 -5t5 -20zM220 210v90q0 20 -20 20t-20 -20v-90q0 -20 20 -20t20 20z" />
    <glyph glyph-name="dieresis" unicode="&#xa8;" horiz-adv-x="360" 
d="M30 645q0 29 18 47t47 18t47 -18t18 -47t-18 -47t-47 -18t-47 18t-18 47zM200 645q0 29 18 47t47 18t47 -18t18 -47t-18 -47t-47 -18t-47 18t-18 47z" />
    <glyph glyph-name="copyright" unicode="&#xa9;" horiz-adv-x="700" 
d="M230 280v140q0 49 32 79.5t88 30.5t88 -30.5t32 -79.5v-5q0 -15 -5 -20t-20 -5h1h1h1h1v0v0h-1h-1h-1h-1h-1h-1h-1h-1h-1h-2h-1h-2h-1h-2h-2h-2h-1h-2h-2h-3h-2h-2h-3h-2h-3h-3h-3h-7q-15 0 -20 5t-5 20v15q0 20 -20 20t-20 -20v-160q0 -20 20 -20t20 20v5q0 15 5 20
t20 5h-1h-1h-1h-1v0v0h1h1h1h1h1h1h1h1h1h2h1h2h1h2h2h2h1h2h2h3h2h2h3h2h3h3h3h7q15 0 20 -5t5 -20v5q0 -49 -32 -79.5t-88 -30.5t-88 30.5t-32 79.5zM660 280q0 -129 -84.5 -209.5t-225.5 -80.5t-225.5 80.5t-84.5 209.5v140q0 129 84.5 209.5t225.5 80.5t225.5 -80.5
t84.5 -209.5v-140zM550 280v140q0 87 -53.5 138.5t-146.5 51.5t-146.5 -51.5t-53.5 -138.5v-140q0 -87 53.5 -138.5t146.5 -51.5t146.5 51.5t53.5 138.5z" />
    <glyph glyph-name="ordfeminine" unicode="&#xaa;" horiz-adv-x="310" 
d="M270 610v-230q0 -12 -4 -16t-16 -4h-100q-55 0 -87.5 30.5t-32.5 80.5q0 111 80 111q20 0 34 -6.5t18 -13.5l4 -6h4v54q0 10 -10 10t-10 -10t-10 -10h-80q-10 0 -10 10q0 46 29 73t81 27t81 -27t29 -73zM150 450h10q10 0 10 10v10q0 20 -20 20t-20 -20t20 -20z" />
    <glyph glyph-name="guillemotleft" unicode="&#xab;" horiz-adv-x="500" 
d="M464 493l-87 -180v-6l87 -180q8 -17 4.5 -22t-21.5 -5h-90q-18 0 -27 5.5t-16 21.5l-78 165q-9 18 0 36l78 165q7 16 16 21.5t27 5.5h90q18 0 21.5 -5t-4.5 -22zM264 493l-87 -180v-6l87 -180q8 -17 4.5 -22t-21.5 -5h-90q-18 0 -27 5.5t-16 21.5l-78 165q-9 18 0 36
l78 165q7 16 16 21.5t27 5.5h90q18 0 21.5 -5t-4.5 -22z" />
    <glyph glyph-name="logicalnot" unicode="&#xac;" horiz-adv-x="400" 
d="M30 350v50q0 18 6 24t24 6h270q18 0 24 -6t6 -24v-180q0 -18 -6 -24t-24 -6h-60q-18 0 -24 6t-6 24v80q0 12 -4 16t-16 4h-160q-18 0 -24 6t-6 24z" />
    <glyph glyph-name="uni00AD" unicode="&#xad;" horiz-adv-x="390" 
d="M30 320v50q0 18 6 24t24 6h270q18 0 24 -6t6 -24v-50q0 -18 -6 -24t-24 -6h-270q-18 0 -24 6t-6 24z" />
    <glyph glyph-name="registered" unicode="&#xae;" horiz-adv-x="700" 
d="M660 280q0 -129 -84.5 -209.5t-225.5 -80.5t-225.5 80.5t-84.5 209.5v140q0 129 84.5 209.5t225.5 80.5t225.5 -80.5t84.5 -209.5v-140zM550 280v140q0 87 -53.5 138.5t-146.5 51.5t-146.5 -51.5t-53.5 -138.5v-140q0 -87 53.5 -138.5t146.5 -51.5t146.5 51.5t53.5 138.5
zM470 260v-65q0 -15 -5 -20t-20 -5h-50q-15 0 -20 5t-5 20v80q0 20 -20 20q-10 0 -10 -10v-90q0 -15 -5 -20t-20 -5h-50q-15 0 -20 5t-5 20v310q0 15 5 20t20 5h85q56 0 88 -30.5t32 -79.5v-10q0 -27 -11 -45t-22 -23l-11 -5v-5q2 0 5 -1.5t10.5 -6.5t13 -12.5t10.5 -21
t5 -30.5zM350 375q20 0 20 20v35q0 20 -20 20q-10 0 -10 -10v-55q0 -10 10 -10z" />
    <glyph glyph-name="macron" unicode="&#xaf;" horiz-adv-x="310" 
d="M30 630v40q0 18 6 24t24 6h190q18 0 24 -6t6 -24v-40q0 -18 -6 -24t-24 -6h-190q-18 0 -24 6t-6 24z" />
    <glyph glyph-name="degree" unicode="&#xb0;" horiz-adv-x="330" 
d="M30 585q0 56 39.5 95.5t95.5 39.5q60 0 97.5 -37.5t37.5 -97.5t-37.5 -97.5t-97.5 -37.5t-97.5 37.5t-37.5 97.5zM115 585q0 -24 14.5 -39.5t36.5 -15.5t36.5 15.5t14.5 39.5t-14.5 39.5t-36.5 15.5t-36.5 -15.5t-14.5 -39.5z" />
    <glyph glyph-name="plusminus" unicode="&#xb1;" horiz-adv-x="390" 
d="M50 170v50q0 18 6 24t24 6h40q12 0 16 4t4 16v60q0 12 -4 16t-16 4h-60q-18 0 -24 6t-6 24v50q0 18 6 24t24 6h60q12 0 16 4t4 16v70q0 18 6 24t24 6h50q18 0 24 -6t6 -24v-70q0 -12 4 -16t16 -4h60q18 0 24 -6t6 -24v-50q0 -18 -6 -24t-24 -6h-60q-12 0 -16 -4t-4 -16
v-60q0 -12 4 -16t16 -4h40q18 0 24 -6t6 -24v-50q0 -18 -6 -24t-24 -6h-230q-18 0 -24 6t-6 24z" />
    <glyph glyph-name="twosuperior" unicode="&#xb2;" horiz-adv-x="276" 
d="M141 540h89q12 0 16 -4t4 -16v-40q0 -12 -4 -16t-16 -4h-180q-12 0 -16 4t-4 16v60q0 31 20 57t43.5 40t43.5 31t20 34q0 23 -24 23q-23 0 -23 -23v1q0 -12 -4 -16t-16 -4h1h1h1v0v0h-1h-1h-1h-1h-1h-1h-1h-2h-1h-1h-2h-2h-2h-2h-2h-2h-2h-2h-3h-2h-3h-8q-12 0 -16 4
t-4 16q0 45 31.5 73.5t81.5 28.5t81.5 -28.5t31.5 -73.5q0 -28 -16 -52.5t-35.5 -39t-41 -30.5t-28.5 -26q-9 -15 6 -15z" />
    <glyph glyph-name="threesuperior" unicode="&#xb3;" horiz-adv-x="276" 
d="M150 683v22q0 20 -20 20t-20 -20q0 -9 -3 -12t-12 -3h-50q-9 0 -12 3t-3 12v2q0 47 29 72.5t81 25.5q110 0 110 -94v-4q0 -26 -13.5 -43t-26.5 -22l-14 -4v-5q7 -1 17 -4.5t26.5 -22t16.5 -46.5v-4q0 -48 -30 -74.5t-83 -26.5t-83 27t-30 75v2q0 9 3 12t12 3h50
q9 0 12 -3t3 -12q0 -24 23 -24q11 0 17.5 6.5t6.5 17.5v20q0 20 -20 20h-19q-9 0 -12 3t-3 12v40q0 9 3 12t12 3h19q13 0 13 14z" />
    <glyph glyph-name="acute" unicode="&#xb4;" horiz-adv-x="229" 
d="M193 673l-64 -126q-7 -16 -16 -21.5t-27 -5.5h-30q-18 0 -23 6t-1 23l27 122q5 17 12 23t25 6h80q18 0 21.5 -5t-4.5 -22z" />
    <glyph glyph-name="mu" unicode="&#xb5;" horiz-adv-x="400" 
d="M180 20h-10v-240q0 -18 -6 -24t-24 -6h-80q-18 0 -24 6t-6 24v720q0 18 6 24t24 6h80q18 0 24 -6t6 -24v-360q0 -14 8 -22t22 -8t22 8t8 22v360q0 18 6 24t24 6h80q18 0 24 -6t6 -24v-470q0 -18 -6 -24t-24 -6h-80q-17 0 -23.5 4.5t-6.5 15.5h-10q-9 -7 -20 -7t-20 7z
" />
    <glyph glyph-name="paragraph" unicode="&#xb6;" horiz-adv-x="560" 
d="M350 -150v735q0 9 -3 12t-12 3t-12 -3t-3 -12v-735q0 -18 -6 -24t-24 -6h-60q-18 0 -24 6t-6 24v405q0 9 -3 12t-12 3q-68 2 -111.5 46.5t-43.5 113.5v130q0 72 46 116t124 44h320q18 0 24 -6t6 -24v-60q0 -18 -6 -24t-24 -6h-35q-9 0 -12 -3t-3 -12v-735q0 -18 -6 -24
t-24 -6h-60q-18 0 -24 6t-6 24z" />
    <glyph glyph-name="periodcentered" unicode="&#xb7;" horiz-adv-x="180" 
d="M170 330q0 -34 -23 -57t-57 -23t-57 23t-23 57t23 57t57 23t57 -23t23 -57z" />
    <glyph glyph-name="cedilla" unicode="&#xb8;" horiz-adv-x="240" 
d="M110 -250h-3h-4h-3h-3h-4h-3h-4h-4h-4h-4h-5h-6h-8q-15 0 -20 5t-5 20v20q0 15 5 20t20 5h-1h-1h-1h-1h-1h-1h-1v0h-1v0v0h1v0v0h1v0h1h1h1h1h1h1h1h1h1h1h1h1h1h1h1h1h1h1h1h1h1h1h1h1h1h1h1h1h1h1h1h1h1h1h1h1h1h1h1h1h1h1h1h1h1h1h1h1h1h1h1h10q20 0 20 20v20
q0 20 -20 20h-45q-15 0 -19 5t-2 20l16 95h80l-8 -41q-2 -8 7 -10q10 -1 20 -5.5t23 -13.5t20.5 -27t7.5 -43v-20q0 -38 -28 -64t-72 -26z" />
    <glyph glyph-name="onesuperior" unicode="&#xb9;" horiz-adv-x="220" 
d="M30 740v40q0 12 4 16t16 4h100q12 0 16 -4t4 -16v-230q0 -10 10 -10h10q12 0 16 -4t4 -16v-40q0 -12 -4 -16t-16 -4h-140q-12 0 -16 4t-4 16v40q0 12 4 16t16 4h10q10 0 10 10v160q0 10 -10 10h-10q-12 0 -16 4t-4 16z" />
    <glyph glyph-name="ordmasculine" unicode="&#xba;" horiz-adv-x="320" 
d="M280 592v-122q0 -51 -33 -83t-87 -32t-87 32t-33 83v122q0 50 33 81.5t87 31.5t87 -31.5t33 -81.5zM180 455v150q0 20 -20 20t-20 -20v-150q0 -20 20 -20t20 20z" />
    <glyph glyph-name="guillemotright" unicode="&#xbb;" horiz-adv-x="500" 
d="M36 127l87 180v6l-87 180q-8 17 -4.5 22t21.5 5h90q18 0 27 -5.5t16 -21.5l78 -165q9 -18 0 -36l-78 -165q-7 -16 -16 -21.5t-27 -5.5h-90q-18 0 -21.5 5t4.5 22zM236 127l87 180v6l-87 180q-8 17 -4.5 22t21.5 5h90q18 0 27 -5.5t16 -21.5l78 -165q9 -18 0 -36l-78 -165
q-7 -16 -16 -21.5t-27 -5.5h-90q-18 0 -21.5 5t4.5 22z" />
    <glyph glyph-name="onequarter" unicode="&#xbc;" horiz-adv-x="650" 
d="M150 28l212 643q5 17 13 23t26 6h60q18 0 22 -6t-1 -23l-143 -434l-69 -209q-5 -17 -13 -22.5t-26 -5.5h-60q-18 0 -22 6t1 22zM30 640v40q0 12 4 16t16 4h100q12 0 16 -4t4 -16v-230q0 -10 10 -10h10q12 0 16 -4t4 -16v-40q0 -12 -4 -16t-16 -4h-140q-12 0 -16 4t-4 16
v40q0 12 4 16t16 4h10q10 0 10 10v160q0 10 -10 10h-10q-12 0 -16 4t-4 16zM490 53h-90q-12 0 -16 4t-4 16v40q0 19 10 37l100 173q10 17 30 17h60q12 0 16 -4t4 -16v-177q0 -10 10 -10q12 0 16 -4t4 -16v-40q0 -12 -4 -16t-16 -4q-10 0 -10 -10v-23q0 -12 -4 -16t-16 -4
h-60q-12 0 -16 4t-4 16v23q0 10 -10 10zM492 188l-27 -46q-5 -9 5 -9h20q10 0 10 10v43q0 15 -8 2z" />
    <glyph glyph-name="onehalf" unicode="&#xbd;" horiz-adv-x="650" 
d="M150 28l212 643q5 17 13 23t26 6h60q18 0 22 -6t-1 -23l-143 -434l-69 -209q-5 -17 -13 -22.5t-26 -5.5h-60q-18 0 -22 6t1 22zM30 640v40q0 12 4 16t16 4h100q12 0 16 -4t4 -16v-230q0 -10 10 -10h10q12 0 16 -4t4 -16v-40q0 -12 -4 -16t-16 -4h-140q-12 0 -16 4t-4 16
v40q0 12 4 16t16 4h10q10 0 10 10v160q0 10 -10 10h-10q-12 0 -16 4t-4 16zM515 80h89q12 0 16 -4t4 -16v-40q0 -12 -4 -16t-16 -4h-180q-12 0 -16 4t-4 16v60q0 31 20 57t43.5 40t43.5 31t20 34q0 23 -24 23q-23 0 -23 -23v1q0 -12 -4 -16t-16 -4h1h1h1v0v0h-1h-1h-1h-1h-1
h-1h-1h-2h-1h-1h-2h-2h-2h-2h-2h-2h-2h-2h-3h-2h-3h-8q-12 0 -16 4t-4 16q0 45 31.5 73.5t81.5 28.5t81.5 -28.5t31.5 -73.5q0 -28 -16 -52.5t-35.5 -39t-41 -30.5t-28.5 -26q-9 -15 6 -15z" />
    <glyph glyph-name="threequarters" unicode="&#xbe;" horiz-adv-x="691" 
d="M191 28l212 643q5 17 13 23t26 6h60q18 0 22 -6t-1 -23l-143 -434l-69 -209q-5 -17 -13 -22.5t-26 -5.5h-60q-18 0 -22 6t1 22zM531 53h-90q-12 0 -16 4t-4 16v40q0 19 10 37l100 173q10 17 30 17h60q12 0 16 -4t4 -16v-177q0 -10 10 -10q12 0 16 -4t4 -16v-40
q0 -12 -4 -16t-16 -4q-10 0 -10 -10v-23q0 -12 -4 -16t-16 -4h-60q-12 0 -16 4t-4 16v23q0 10 -10 10zM533 188l-27 -46q-5 -9 5 -9h20q10 0 10 10v43q0 15 -8 2zM150 583v22q0 20 -20 20t-20 -20q0 -9 -3 -12t-12 -3h-50q-9 0 -12 3t-3 12v2q0 47 29 72.5t81 25.5
q110 0 110 -94v-4q0 -26 -13.5 -43t-26.5 -22l-14 -4v-5q7 -1 17 -4.5t26.5 -22t16.5 -46.5v-4q0 -48 -30 -74.5t-83 -26.5t-83 27t-30 75v2q0 9 3 12t12 3h50q9 0 12 -3t3 -12q0 -24 23 -24q11 0 17.5 6.5t6.5 17.5v20q0 20 -20 20h-19q-9 0 -12 3t-3 12v40q0 9 3 12t12 3
h19q13 0 13 14z" />
    <glyph glyph-name="questiondown" unicode="&#xbf;" horiz-adv-x="400" 
d="M170 150q0 -17 11.5 -28.5t28.5 -11.5t28.5 11.5t11.5 28.5v90q0 18 6 24t24 6h60q18 0 24 -6t6 -24v-85q0 -73 -47.5 -119t-127.5 -46t-127.5 46t-47.5 119q0 47 13 85.5t31 65t36.5 50t31.5 52.5t13 62q0 12 4 16t16 4h80q12 0 16 -4t4 -16q0 -53 -15 -96t-32.5 -67.5
t-32.5 -65.5t-15 -91zM125 630q0 34 23 57t57 23t57 -23t23 -57t-23 -57t-57 -23t-57 23t-23 57z" />
    <glyph glyph-name="Agrave" unicode="&#xc0;" 
d="M360 0h-90q-18 0 -24 6t-6 24v200q0 12 -4 16t-16 4h-40q-12 0 -16 -4t-4 -16v-200q0 -18 -6 -24t-24 -6h-60q-18 0 -24 6t-6 24v515q0 73 47.5 119t127.5 46t127.5 -46t47.5 -119v-515q0 -18 -6 -24t-24 -6zM160 550v-160q0 -12 4 -16t16 -4h40q12 0 16 4t4 16v160
q0 17 -11.5 28.5t-28.5 11.5t-28.5 -11.5t-11.5 -28.5zM152 787l-64 126q-8 17 -4.5 22t21.5 5h80q18 0 25 -6t11 -23l27 -122q4 -17 -0.5 -23t-22.5 -6h-30q-18 0 -27 5.5t-16 21.5z" />
    <glyph glyph-name="Aacute" unicode="&#xc1;" 
d="M360 0h-90q-18 0 -24 6t-6 24v200q0 12 -4 16t-16 4h-40q-12 0 -16 -4t-4 -16v-200q0 -18 -6 -24t-24 -6h-60q-18 0 -24 6t-6 24v515q0 73 47.5 119t127.5 46t127.5 -46t47.5 -119v-515q0 -18 -6 -24t-24 -6zM160 550v-160q0 -12 4 -16t16 -4h40q12 0 16 4t4 16v160
q0 17 -11.5 28.5t-28.5 11.5t-28.5 -11.5t-11.5 -28.5zM332 913l-64 -126q-7 -16 -16 -21.5t-27 -5.5h-30q-18 0 -23 6t-1 23l27 122q5 17 12 23t25 6h80q18 0 21.5 -5t-4.5 -22z" />
    <glyph glyph-name="Acircumflex" unicode="&#xc2;" 
d="M360 0h-90q-18 0 -24 6t-6 24v200q0 12 -4 16t-16 4h-40q-12 0 -16 -4t-4 -16v-200q0 -18 -6 -24t-24 -6h-60q-18 0 -24 6t-6 24v515q0 73 47.5 119t127.5 46t127.5 -46t47.5 -119v-515q0 -18 -6 -24t-24 -6zM160 550v-160q0 -12 4 -16t16 -4h40q12 0 16 4t4 16v160
q0 17 -11.5 28.5t-28.5 11.5t-28.5 -11.5t-11.5 -28.5zM190 920h51q18 0 27 -5t19 -20l72 -110q10 -15 7 -20t-21 -5h-60q-18 0 -27 5.5t-17 21.5l-23 43h-5l-23 -43q-8 -16 -17 -21.5t-27 -5.5h-60q-18 0 -21 5t7 20l72 110q10 15 19 20t27 5z" />
    <glyph glyph-name="Atilde" unicode="&#xc3;" 
d="M360 0h-90q-18 0 -24 6t-6 24v200q0 12 -4 16t-16 4h-40q-12 0 -16 -4t-4 -16v-200q0 -18 -6 -24t-24 -6h-60q-18 0 -24 6t-6 24v515q0 73 47.5 119t127.5 46t127.5 -46t47.5 -119v-515q0 -18 -6 -24t-24 -6zM160 550v-160q0 -12 4 -16t16 -4h40q12 0 16 4t4 16v160
q0 17 -11.5 28.5t-28.5 11.5t-28.5 -11.5t-11.5 -28.5zM135 900q29 0 60.5 -17.5t49.5 -17.5q20 0 20 15q0 12 4 16t16 4h40q18 0 24 -6t6 -24v-50q0 -26 -17 -43t-43 -17q-29 0 -60.5 17.5t-49.5 17.5q-20 0 -20 -15q0 -12 -4 -16t-16 -4h-40q-18 0 -24 6t-6 24v50
q0 26 17 43t43 17z" />
    <glyph glyph-name="Adieresis" unicode="&#xc4;" 
d="M360 0h-90q-18 0 -24 6t-6 24v200q0 12 -4 16t-16 4h-40q-12 0 -16 -4t-4 -16v-200q0 -18 -6 -24t-24 -6h-60q-18 0 -24 6t-6 24v515q0 73 47.5 119t127.5 46t127.5 -46t47.5 -119v-515q0 -18 -6 -24t-24 -6zM160 550v-160q0 -12 4 -16t16 -4h40q12 0 16 4t4 16v160
q0 17 -11.5 28.5t-28.5 11.5t-28.5 -11.5t-11.5 -28.5zM65 835q0 29 18.5 47t46.5 18t46.5 -18t18.5 -47t-18.5 -47t-46.5 -18t-46.5 18t-18.5 47zM235 835q0 29 18.5 47t46.5 18t46.5 -18t18.5 -47t-18.5 -47t-46.5 -18t-46.5 18t-18.5 47z" />
    <glyph glyph-name="Aring" unicode="&#xc5;" 
d="M360 0h-90q-18 0 -24 6t-6 24v200q0 12 -4 16t-16 4h-40q-12 0 -16 -4t-4 -16v-200q0 -18 -6 -24t-24 -6h-60q-18 0 -24 6t-6 24v515q0 73 47.5 119t127.5 46t127.5 -46t47.5 -119v-515q0 -18 -6 -24t-24 -6zM160 550v-160q0 -12 4 -16t16 -4h40q12 0 16 4t4 16v160
q0 17 -11.5 28.5t-28.5 11.5t-28.5 -11.5t-11.5 -28.5zM105 870q0 49 31 79.5t79 30.5t79 -30.5t31 -79.5t-31 -79.5t-79 -30.5t-79 30.5t-31 79.5zM180 870q0 -15 10 -25.5t25 -10.5t25 10.5t10 25.5t-10 25.5t-25 10.5t-25 -10.5t-10 -25.5z" />
    <glyph glyph-name="AE" unicode="&#xc6;" horiz-adv-x="550" 
d="M205 580h-10q-15 0 -25 -10t-10 -25v-155q0 -12 4 -16t16 -4h20q12 0 16 4t4 16v175q0 9 -3 12t-12 3zM500 0h-250q-18 0 -24 6t-6 24v200q0 12 -4 16t-16 4h-20q-12 0 -16 -4t-4 -16v-200q0 -18 -6 -24t-24 -6h-60q-18 0 -24 6t-6 24v495q0 79 48.5 127t131.5 48h280
q18 0 24 -6t6 -24v-60q0 -18 -6 -24t-24 -6h-110q-12 0 -16 -4t-4 -16v-120q0 -12 4 -16t16 -4h60q18 0 24 -6t6 -24v-60q0 -18 -6 -24t-24 -6h-60q-12 0 -16 -4t-4 -16v-140q0 -12 4 -16t16 -4h110q18 0 24 -6t6 -24v-60q0 -18 -6 -24t-24 -6z" />
    <glyph glyph-name="Ccedilla" unicode="&#xc7;" horiz-adv-x="420" 
d="M220 -250h-55q-15 0 -20 5t-5 20v20q0 15 5 20t20 5h55q20 0 20 20v20q0 20 -20 20h-45q-15 0 -19 5t-2 20l10 75q2 15 -10 18q-54 15 -84 56.5t-30 100.5v390q0 73 47.5 119t127.5 46t127.5 -46t47.5 -119v-55q0 -18 -6 -24t-24 -6h-60q-18 0 -24 6t-6 24v60
q0 17 -11.5 28.5t-28.5 11.5t-28.5 -11.5t-11.5 -28.5v-400q0 -17 11.5 -28.5t28.5 -11.5t28.5 11.5t11.5 28.5v60q0 18 6 24t24 6h60q18 0 24 -6t6 -24v-55q0 -63 -35.5 -106t-97.5 -55q-13 -3 -14 -14l-1 -21q-1 -8 7 -10q10 -1 20 -5.5t23 -13.5t20.5 -27t7.5 -43v-20
q0 -38 -28 -64t-72 -26z" />
    <glyph glyph-name="Egrave" unicode="&#xc8;" horiz-adv-x="380" 
d="M40 30v640q0 18 6 24t24 6h260q18 0 24 -6t6 -24v-60q0 -18 -6 -24t-24 -6h-120q-12 0 -16 -4t-4 -16v-120q0 -12 4 -16t16 -4h70q18 0 24 -6t6 -24v-60q0 -18 -6 -24t-24 -6h-70q-12 0 -16 -4t-4 -16v-140q0 -12 4 -16t16 -4h120q18 0 24 -6t6 -24v-60q0 -18 -6 -24
t-24 -6h-260q-18 0 -24 6t-6 24zM143 777l-64 126q-8 17 -4.5 22t21.5 5h80q18 0 25 -6t11 -23l27 -122q4 -17 -0.5 -23t-22.5 -6h-30q-18 0 -27 5.5t-16 21.5z" />
    <glyph glyph-name="Eacute" unicode="&#xc9;" horiz-adv-x="380" 
d="M40 30v640q0 18 6 24t24 6h260q18 0 24 -6t6 -24v-60q0 -18 -6 -24t-24 -6h-120q-12 0 -16 -4t-4 -16v-120q0 -12 4 -16t16 -4h70q18 0 24 -6t6 -24v-60q0 -18 -6 -24t-24 -6h-70q-12 0 -16 -4t-4 -16v-140q0 -12 4 -16t16 -4h120q18 0 24 -6t6 -24v-60q0 -18 -6 -24
t-24 -6h-260q-18 0 -24 6t-6 24zM321 903l-64 -126q-7 -16 -16 -21.5t-27 -5.5h-30q-18 0 -23 6t-1 23l27 122q5 17 12 23t25 6h80q18 0 21.5 -5t-4.5 -22z" />
    <glyph glyph-name="Ecircumflex" unicode="&#xca;" horiz-adv-x="380" 
d="M40 30v640q0 18 6 24t24 6h260q18 0 24 -6t6 -24v-60q0 -18 -6 -24t-24 -6h-120q-12 0 -16 -4t-4 -16v-120q0 -12 4 -16t16 -4h70q18 0 24 -6t6 -24v-60q0 -18 -6 -24t-24 -6h-70q-12 0 -16 -4t-4 -16v-140q0 -12 4 -16t16 -4h120q18 0 24 -6t6 -24v-60q0 -18 -6 -24
t-24 -6h-260q-18 0 -24 6t-6 24zM175 910h51q18 0 27 -5t19 -20l72 -110q10 -15 7 -20t-21 -5h-60q-18 0 -27 5.5t-17 21.5l-23 43h-5l-23 -43q-8 -16 -17 -21.5t-27 -5.5h-60q-18 0 -21 5t7 20l72 110q10 15 19 20t27 5z" />
    <glyph glyph-name="Edieresis" unicode="&#xcb;" horiz-adv-x="380" 
d="M40 30v640q0 18 6 24t24 6h260q18 0 24 -6t6 -24v-60q0 -18 -6 -24t-24 -6h-120q-12 0 -16 -4t-4 -16v-120q0 -12 4 -16t16 -4h70q18 0 24 -6t6 -24v-60q0 -18 -6 -24t-24 -6h-70q-12 0 -16 -4t-4 -16v-140q0 -12 4 -16t16 -4h120q18 0 24 -6t6 -24v-60q0 -18 -6 -24
t-24 -6h-260q-18 0 -24 6t-6 24zM50 835q0 29 18 47t47 18t47 -18t18 -47t-18 -47t-47 -18t-47 18t-18 47zM220 835q0 29 18 47t47 18t47 -18t18 -47t-18 -47t-47 -18t-47 18t-18 47z" />
    <glyph glyph-name="Igrave" unicode="&#xcc;" horiz-adv-x="350" 
d="M20 610v60q0 18 6 24t24 6h250q18 0 24 -6t6 -24v-60q0 -18 -6 -24t-24 -6h-30q-12 0 -16 -4t-4 -16v-420q0 -12 4 -16t16 -4h30q18 0 24 -6t6 -24v-60q0 -18 -6 -24t-24 -6h-250q-18 0 -24 6t-6 24v60q0 18 6 24t24 6h30q12 0 16 4t4 16v420q0 12 -4 16t-16 4h-30
q-18 0 -24 6t-6 24zM122 777l-64 126q-8 17 -4.5 22t21.5 5h80q18 0 25 -6t11 -23l27 -122q4 -17 -0.5 -23t-22.5 -6h-30q-18 0 -27 5.5t-16 21.5z" />
    <glyph glyph-name="Iacute" unicode="&#xcd;" horiz-adv-x="350" 
d="M20 610v60q0 18 6 24t24 6h250q18 0 24 -6t6 -24v-60q0 -18 -6 -24t-24 -6h-30q-12 0 -16 -4t-4 -16v-420q0 -12 4 -16t16 -4h30q18 0 24 -6t6 -24v-60q0 -18 -6 -24t-24 -6h-250q-18 0 -24 6t-6 24v60q0 18 6 24t24 6h30q12 0 16 4t4 16v420q0 12 -4 16t-16 4h-30
q-18 0 -24 6t-6 24zM293 903l-64 -126q-7 -16 -16 -21.5t-27 -5.5h-30q-18 0 -23 6t-1 23l27 122q5 17 12 23t25 6h80q18 0 21.5 -5t-4.5 -22z" />
    <glyph glyph-name="Icircumflex" unicode="&#xce;" horiz-adv-x="350" 
d="M20 610v60q0 18 6 24t24 6h250q18 0 24 -6t6 -24v-60q0 -18 -6 -24t-24 -6h-30q-12 0 -16 -4t-4 -16v-420q0 -12 4 -16t16 -4h30q18 0 24 -6t6 -24v-60q0 -18 -6 -24t-24 -6h-250q-18 0 -24 6t-6 24v60q0 18 6 24t24 6h30q12 0 16 4t4 16v420q0 12 -4 16t-16 4h-30
q-18 0 -24 6t-6 24zM150 910h51q18 0 27 -5t19 -20l72 -110q10 -15 7 -20t-21 -5h-60q-18 0 -27 5.5t-17 21.5l-23 43h-5l-23 -43q-8 -16 -17 -21.5t-27 -5.5h-60q-18 0 -21 5t7 20l72 110q10 15 19 20t27 5z" />
    <glyph glyph-name="Idieresis" unicode="&#xcf;" horiz-adv-x="350" 
d="M20 610v60q0 18 6 24t24 6h250q18 0 24 -6t6 -24v-60q0 -18 -6 -24t-24 -6h-30q-12 0 -16 -4t-4 -16v-420q0 -12 4 -16t16 -4h30q18 0 24 -6t6 -24v-60q0 -18 -6 -24t-24 -6h-250q-18 0 -24 6t-6 24v60q0 18 6 24t24 6h30q12 0 16 4t4 16v420q0 12 -4 16t-16 4h-30
q-18 0 -24 6t-6 24zM25 835q0 29 18.5 47t46.5 18t46.5 -18t18.5 -47t-18.5 -47t-46.5 -18t-46.5 18t-18.5 47zM195 835q0 29 18.5 47t46.5 18t46.5 -18t18.5 -47t-18.5 -47t-46.5 -18t-46.5 18t-18.5 47z" />
    <glyph glyph-name="Eth" unicode="&#xd0;" horiz-adv-x="460" 
d="M10 315v70q0 12 4 16t16 4t16 4t4 16v245q0 18 6 24t24 6h155q86 0 135.5 -48t49.5 -127v-350q0 -79 -49.5 -127t-135.5 -48h-155q-18 0 -24 6t-6 24v245q0 12 -4 16t-16 4t-16 4t-4 16zM220 120h15q15 0 25 10t10 25v390q0 15 -10 25t-25 10h-15q-12 0 -16 -4t-4 -16
v-135q0 -12 4 -16t16 -4t16 -4t4 -16v-70q0 -12 -4 -16t-16 -4t-16 -4t-4 -16v-135q0 -12 4 -16t16 -4z" />
    <glyph glyph-name="Ntilde" unicode="&#xd1;" 
d="M160 290v-260q0 -18 -6 -24t-24 -6h-60q-18 0 -24 6t-6 24v640q0 18 6 24t24 6h70q18 0 26 -6t13 -23l81 -261h10v260q0 18 6 24t24 6h60q18 0 24 -6t6 -24v-640q0 -18 -6 -24t-24 -6h-70q-18 0 -26 6t-13 23l-81 261h-10zM135 890q29 0 60.5 -17.5t49.5 -17.5
q20 0 20 15q0 12 4 16t16 4h40q18 0 24 -6t6 -24v-50q0 -26 -17 -43t-43 -17q-29 0 -60.5 17.5t-49.5 17.5q-20 0 -20 -15q0 -12 -4 -16t-16 -4h-40q-18 0 -24 6t-6 24v50q0 26 17 43t43 17z" />
    <glyph glyph-name="Ograve" unicode="&#xd2;" horiz-adv-x="450" 
d="M190 555v-410q0 -15 10 -25t25 -10t25 10t10 25v410q0 15 -10 25t-25 10t-25 -10t-10 -25zM40 165v370q0 79 49.5 127t135.5 48t135.5 -48t49.5 -127v-370q0 -79 -49.5 -127t-135.5 -48t-135.5 48t-49.5 127zM167 787l-64 126q-8 17 -4.5 22t21.5 5h80q18 0 25 -6t11 -23
l27 -122q4 -17 -0.5 -23t-22.5 -6h-30q-18 0 -27 5.5t-16 21.5z" />
    <glyph glyph-name="Oacute" unicode="&#xd3;" horiz-adv-x="450" 
d="M190 555v-410q0 -15 10 -25t25 -10t25 10t10 25v410q0 15 -10 25t-25 10t-25 -10t-10 -25zM40 165v370q0 79 49.5 127t135.5 48t135.5 -48t49.5 -127v-370q0 -79 -49.5 -127t-135.5 -48t-135.5 48t-49.5 127zM347 913l-64 -126q-7 -16 -16 -21.5t-27 -5.5h-30
q-18 0 -23 6t-1 23l27 122q5 17 12 23t25 6h80q18 0 21.5 -5t-4.5 -22z" />
    <glyph glyph-name="Ocircumflex" unicode="&#xd4;" horiz-adv-x="450" 
d="M190 555v-410q0 -15 10 -25t25 -10t25 10t10 25v410q0 15 -10 25t-25 10t-25 -10t-10 -25zM40 165v370q0 79 49.5 127t135.5 48t135.5 -48t49.5 -127v-370q0 -79 -49.5 -127t-135.5 -48t-135.5 48t-49.5 127zM200 920h51q18 0 27 -5t19 -20l72 -110q10 -15 7 -20t-21 -5
h-60q-18 0 -27 5.5t-17 21.5l-23 43h-5l-23 -43q-8 -16 -17 -21.5t-27 -5.5h-60q-18 0 -21 5t7 20l72 110q10 15 19 20t27 5z" />
    <glyph glyph-name="Otilde" unicode="&#xd5;" horiz-adv-x="450" 
d="M190 555v-410q0 -15 10 -25t25 -10t25 10t10 25v410q0 15 -10 25t-25 10t-25 -10t-10 -25zM40 165v370q0 79 49.5 127t135.5 48t135.5 -48t49.5 -127v-370q0 -79 -49.5 -127t-135.5 -48t-135.5 48t-49.5 127zM145 900q29 0 60.5 -17.5t49.5 -17.5q20 0 20 15q0 12 4 16
t16 4h40q18 0 24 -6t6 -24v-50q0 -26 -17 -43t-43 -17q-29 0 -60.5 17.5t-49.5 17.5q-20 0 -20 -15q0 -12 -4 -16t-16 -4h-40q-18 0 -24 6t-6 24v50q0 26 17 43t43 17z" />
    <glyph glyph-name="Odieresis" unicode="&#xd6;" horiz-adv-x="450" 
d="M190 555v-410q0 -15 10 -25t25 -10t25 10t10 25v410q0 15 -10 25t-25 10t-25 -10t-10 -25zM40 165v370q0 79 49.5 127t135.5 48t135.5 -48t49.5 -127v-370q0 -79 -49.5 -127t-135.5 -48t-135.5 48t-49.5 127zM75 835q0 29 18.5 47t46.5 18t46.5 -18t18.5 -47t-18.5 -47
t-46.5 -18t-46.5 18t-18.5 47zM245 835q0 29 18.5 47t46.5 18t46.5 -18t18.5 -47t-18.5 -47t-46.5 -18t-46.5 18t-18.5 47z" />
    <glyph glyph-name="multiply" unicode="&#xd7;" horiz-adv-x="368" 
d="M290 486l35 -35q13 -13 13 -21t-13 -21l-49 -50q-14 -14 0 -28l49 -50q13 -13 13 -21t-13 -21l-35 -35q-13 -13 -21 -13t-21 13l-50 49q-14 14 -28 0l-50 -49q-13 -13 -21 -13t-21 13l-35 35q-13 13 -13 21t13 21l49 50q14 14 0 28l-49 50q-13 13 -13 21t13 21l35 35
q13 13 21 13t21 -13l50 -49q14 -14 28 0l50 49q13 13 21 13t21 -13z" />
    <glyph glyph-name="Oslash" unicode="&#xd8;" horiz-adv-x="450" 
d="M40 165v370q0 79 49.5 127t135.5 48t135.5 -48t49.5 -127v-370q0 -79 -49.5 -127t-135.5 -48t-135.5 48t-49.5 127zM190 555v-195q0 -11 2.5 -11t6.5 10l56 181q9 21 -1 35q-10 15 -29 15q-15 0 -25 -10t-10 -25zM260 145v195q0 11 -2.5 11t-6.5 -10l-56 -181
q-9 -21 1 -35q10 -15 29 -15q15 0 25 10t10 25z" />
    <glyph glyph-name="Ugrave" unicode="&#xd9;" 
d="M270 150v520q0 18 6 24t24 6h60q18 0 24 -6t6 -24v-515q0 -73 -47.5 -119t-127.5 -46t-127.5 46t-47.5 119v515q0 18 6 24t24 6h90q18 0 24 -6t6 -24v-520q0 -17 11.5 -28.5t28.5 -11.5t28.5 11.5t11.5 28.5zM157 777l-64 126q-8 17 -4.5 22t21.5 5h80q18 0 25 -6t11 -23
l27 -122q4 -17 -0.5 -23t-22.5 -6h-30q-18 0 -27 5.5t-16 21.5z" />
    <glyph glyph-name="Uacute" unicode="&#xda;" 
d="M270 150v520q0 18 6 24t24 6h60q18 0 24 -6t6 -24v-515q0 -73 -47.5 -119t-127.5 -46t-127.5 46t-47.5 119v515q0 18 6 24t24 6h90q18 0 24 -6t6 -24v-520q0 -17 11.5 -28.5t28.5 -11.5t28.5 11.5t11.5 28.5zM337 903l-64 -126q-7 -16 -16 -21.5t-27 -5.5h-30
q-18 0 -23 6t-1 23l27 122q5 17 12 23t25 6h80q18 0 21.5 -5t-4.5 -22z" />
    <glyph glyph-name="Ucircumflex" unicode="&#xdb;" 
d="M270 150v520q0 18 6 24t24 6h60q18 0 24 -6t6 -24v-515q0 -73 -47.5 -119t-127.5 -46t-127.5 46t-47.5 119v515q0 18 6 24t24 6h90q18 0 24 -6t6 -24v-520q0 -17 11.5 -28.5t28.5 -11.5t28.5 11.5t11.5 28.5zM190 910h51q18 0 27 -5t19 -20l72 -110q10 -15 7 -20t-21 -5
h-60q-18 0 -27 5.5t-17 21.5l-23 43h-5l-23 -43q-8 -16 -17 -21.5t-27 -5.5h-60q-18 0 -21 5t7 20l72 110q10 15 19 20t27 5z" />
    <glyph glyph-name="Udieresis" unicode="&#xdc;" 
d="M270 150v520q0 18 6 24t24 6h60q18 0 24 -6t6 -24v-515q0 -73 -47.5 -119t-127.5 -46t-127.5 46t-47.5 119v515q0 18 6 24t24 6h90q18 0 24 -6t6 -24v-520q0 -17 11.5 -28.5t28.5 -11.5t28.5 11.5t11.5 28.5zM65 835q0 29 18.5 47t46.5 18t46.5 -18t18.5 -47t-18.5 -47
t-46.5 -18t-46.5 18t-18.5 47zM235 835q0 29 18.5 47t46.5 18t46.5 -18t18.5 -47t-18.5 -47t-46.5 -18t-46.5 18t-18.5 47z" />
    <glyph glyph-name="Yacute" unicode="&#xdd;" horiz-adv-x="392" 
d="M271 160v-130q0 -18 -6 -24t-24 -6h-90q-18 0 -24 6t-6 24v130q0 32 -7 59l-101 452q-4 17 0.5 23t22.5 6h105q18 0 24.5 -6t9.5 -24l31 -210h10l31 210q3 18 9.5 24t24.5 6h75q18 0 22.5 -6t0.5 -23l-101 -452q-7 -27 -7 -59zM323 903l-64 -126q-7 -16 -16 -21.5
t-27 -5.5h-30q-18 0 -23 6t-1 23l27 122q5 17 12 23t25 6h80q18 0 21.5 -5t-4.5 -22z" />
    <glyph glyph-name="Thorn" unicode="&#xde;" horiz-adv-x="420" 
d="M190 510v-330q0 -10 10 -10q15 0 25 10t10 25v280q0 15 -10 25t-25 10q-10 0 -10 -10zM385 465v-240q0 -77 -48 -124t-134 -51q-13 0 -13 -15v-15q0 -18 -6 -24t-24 -6h-90q-18 0 -24 6t-6 24v660q0 18 6 24t24 6h90q18 0 24 -6t6 -24v-25q0 -15 13 -15q86 -4 134 -51
t48 -124z" />
    <glyph glyph-name="Germandbls" unicode="&#xdf;" horiz-adv-x="460" 
d="M250 -10q-9 0 -12 3t-3 12v90q0 9 3 12t12 3q13 0 21.5 8.5t8.5 21.5v165q0 15 -8.5 25t-21.5 10q-20 0 -20 20v60q0 20 5 39l29 102q4 11 1 15t-15 4h-25q-15 0 -25 -10t-10 -25v-515q0 -18 -6 -24t-24 -6h-90q-18 0 -24 6t-6 24v495q0 79 49.5 127t135.5 48v0v0h1v0h1
v0h1h1h1h1h1h1h1h1h1h1h1h1h1h1h1h1h1h1h1h1h1h1h1h1h1h2h1h1h1h1h2h1h1h2h1h1h2h1h1h2h1h2h1h1h2h1h2h1h2h2h1h2h1h2h2h1h2h2h1h2h2h2h1h2h2h2h2h1h2h2h2h2h2h2h2h2h2h2h2h2h2h3h2h2h2h3h2h2h3h2h3h2h3h3h3h3h9q18 0 24 -6t6 -24v1v1v1v1v1v0v-1v0v-1v-1v-1v-1v-1v-1v-1v-1
v-2v-1v-1v-2v-1v-2v-1v-2v-2v-1v-2v-2v-2v-2v-2v-3v-2v-2v-3v-3v-2v-4v-3v-9q0 -28 -8 -59l-38 -135q-3 -15 6 -19q50 -21 50 -92v-145q0 -76 -49 -123t-131 -47z" />
    <glyph glyph-name="agrave" unicode="&#xe0;" 
d="M360 0h-90q-18 0 -24 6t-6 24v200q0 12 -4 16t-16 4h-40q-12 0 -16 -4t-4 -16v-200q0 -18 -6 -24t-24 -6h-60q-18 0 -24 6t-6 24v515q0 73 47.5 119t127.5 46t127.5 -46t47.5 -119v-515q0 -18 -6 -24t-24 -6zM160 550v-160q0 -12 4 -16t16 -4h40q12 0 16 4t4 16v160
q0 17 -11.5 28.5t-28.5 11.5t-28.5 -11.5t-11.5 -28.5zM152 787l-64 126q-8 17 -4.5 22t21.5 5h80q18 0 25 -6t11 -23l27 -122q4 -17 -0.5 -23t-22.5 -6h-30q-18 0 -27 5.5t-16 21.5z" />
    <glyph glyph-name="aacute" unicode="&#xe1;" 
d="M360 0h-90q-18 0 -24 6t-6 24v200q0 12 -4 16t-16 4h-40q-12 0 -16 -4t-4 -16v-200q0 -18 -6 -24t-24 -6h-60q-18 0 -24 6t-6 24v515q0 73 47.5 119t127.5 46t127.5 -46t47.5 -119v-515q0 -18 -6 -24t-24 -6zM160 550v-160q0 -12 4 -16t16 -4h40q12 0 16 4t4 16v160
q0 17 -11.5 28.5t-28.5 11.5t-28.5 -11.5t-11.5 -28.5zM332 913l-64 -126q-7 -16 -16 -21.5t-27 -5.5h-30q-18 0 -23 6t-1 23l27 122q5 17 12 23t25 6h80q18 0 21.5 -5t-4.5 -22z" />
    <glyph glyph-name="acircumflex" unicode="&#xe2;" 
d="M360 0h-90q-18 0 -24 6t-6 24v200q0 12 -4 16t-16 4h-40q-12 0 -16 -4t-4 -16v-200q0 -18 -6 -24t-24 -6h-60q-18 0 -24 6t-6 24v515q0 73 47.5 119t127.5 46t127.5 -46t47.5 -119v-515q0 -18 -6 -24t-24 -6zM160 550v-160q0 -12 4 -16t16 -4h40q12 0 16 4t4 16v160
q0 17 -11.5 28.5t-28.5 11.5t-28.5 -11.5t-11.5 -28.5zM190 920h51q18 0 27 -5t19 -20l72 -110q10 -15 7 -20t-21 -5h-60q-18 0 -27 5.5t-17 21.5l-23 43h-5l-23 -43q-8 -16 -17 -21.5t-27 -5.5h-60q-18 0 -21 5t7 20l72 110q10 15 19 20t27 5z" />
    <glyph glyph-name="atilde" unicode="&#xe3;" 
d="M360 0h-90q-18 0 -24 6t-6 24v200q0 12 -4 16t-16 4h-40q-12 0 -16 -4t-4 -16v-200q0 -18 -6 -24t-24 -6h-60q-18 0 -24 6t-6 24v515q0 73 47.5 119t127.5 46t127.5 -46t47.5 -119v-515q0 -18 -6 -24t-24 -6zM160 550v-160q0 -12 4 -16t16 -4h40q12 0 16 4t4 16v160
q0 17 -11.5 28.5t-28.5 11.5t-28.5 -11.5t-11.5 -28.5zM135 900q29 0 60.5 -17.5t49.5 -17.5q20 0 20 15q0 12 4 16t16 4h40q18 0 24 -6t6 -24v-50q0 -26 -17 -43t-43 -17q-29 0 -60.5 17.5t-49.5 17.5q-20 0 -20 -15q0 -12 -4 -16t-16 -4h-40q-18 0 -24 6t-6 24v50
q0 26 17 43t43 17z" />
    <glyph glyph-name="adieresis" unicode="&#xe4;" 
d="M360 0h-90q-18 0 -24 6t-6 24v200q0 12 -4 16t-16 4h-40q-12 0 -16 -4t-4 -16v-200q0 -18 -6 -24t-24 -6h-60q-18 0 -24 6t-6 24v515q0 73 47.5 119t127.5 46t127.5 -46t47.5 -119v-515q0 -18 -6 -24t-24 -6zM160 550v-160q0 -12 4 -16t16 -4h40q12 0 16 4t4 16v160
q0 17 -11.5 28.5t-28.5 11.5t-28.5 -11.5t-11.5 -28.5zM65 835q0 29 18.5 47t46.5 18t46.5 -18t18.5 -47t-18.5 -47t-46.5 -18t-46.5 18t-18.5 47zM235 835q0 29 18.5 47t46.5 18t46.5 -18t18.5 -47t-18.5 -47t-46.5 -18t-46.5 18t-18.5 47z" />
    <glyph glyph-name="aring" unicode="&#xe5;" 
d="M360 0h-90q-18 0 -24 6t-6 24v200q0 12 -4 16t-16 4h-40q-12 0 -16 -4t-4 -16v-200q0 -18 -6 -24t-24 -6h-60q-18 0 -24 6t-6 24v515q0 73 47.5 119t127.5 46t127.5 -46t47.5 -119v-515q0 -18 -6 -24t-24 -6zM160 550v-160q0 -12 4 -16t16 -4h40q12 0 16 4t4 16v160
q0 17 -11.5 28.5t-28.5 11.5t-28.5 -11.5t-11.5 -28.5zM105 870q0 49 31 79.5t79 30.5t79 -30.5t31 -79.5t-31 -79.5t-79 -30.5t-79 30.5t-31 79.5zM180 870q0 -15 10 -25.5t25 -10.5t25 10.5t10 25.5t-10 25.5t-25 10.5t-25 -10.5t-10 -25.5z" />
    <glyph glyph-name="ae" unicode="&#xe6;" horiz-adv-x="550" 
d="M205 580h-10q-15 0 -25 -10t-10 -25v-155q0 -12 4 -16t16 -4h20q12 0 16 4t4 16v175q0 9 -3 12t-12 3zM500 0h-250q-18 0 -24 6t-6 24v200q0 12 -4 16t-16 4h-20q-12 0 -16 -4t-4 -16v-200q0 -18 -6 -24t-24 -6h-60q-18 0 -24 6t-6 24v495q0 79 48.5 127t131.5 48h280
q18 0 24 -6t6 -24v-60q0 -18 -6 -24t-24 -6h-110q-12 0 -16 -4t-4 -16v-120q0 -12 4 -16t16 -4h60q18 0 24 -6t6 -24v-60q0 -18 -6 -24t-24 -6h-60q-12 0 -16 -4t-4 -16v-140q0 -12 4 -16t16 -4h110q18 0 24 -6t6 -24v-60q0 -18 -6 -24t-24 -6z" />
    <glyph glyph-name="ccedilla" unicode="&#xe7;" horiz-adv-x="420" 
d="M220 -250h-55q-15 0 -20 5t-5 20v20q0 15 5 20t20 5h55q20 0 20 20v20q0 20 -20 20h-45q-15 0 -19 5t-2 20l10 75q2 15 -10 18q-54 15 -84 56.5t-30 100.5v390q0 73 47.5 119t127.5 46t127.5 -46t47.5 -119v-55q0 -18 -6 -24t-24 -6h-60q-18 0 -24 6t-6 24v60
q0 17 -11.5 28.5t-28.5 11.5t-28.5 -11.5t-11.5 -28.5v-400q0 -17 11.5 -28.5t28.5 -11.5t28.5 11.5t11.5 28.5v60q0 18 6 24t24 6h60q18 0 24 -6t6 -24v-55q0 -63 -35.5 -106t-97.5 -55q-13 -3 -14 -14l-1 -21q-1 -8 7 -10q10 -1 20 -5.5t23 -13.5t20.5 -27t7.5 -43v-20
q0 -38 -28 -64t-72 -26z" />
    <glyph glyph-name="egrave" unicode="&#xe8;" horiz-adv-x="380" 
d="M40 30v640q0 18 6 24t24 6h260q18 0 24 -6t6 -24v-60q0 -18 -6 -24t-24 -6h-120q-12 0 -16 -4t-4 -16v-120q0 -12 4 -16t16 -4h70q18 0 24 -6t6 -24v-60q0 -18 -6 -24t-24 -6h-70q-12 0 -16 -4t-4 -16v-140q0 -12 4 -16t16 -4h120q18 0 24 -6t6 -24v-60q0 -18 -6 -24
t-24 -6h-260q-18 0 -24 6t-6 24zM143 777l-64 126q-8 17 -4.5 22t21.5 5h80q18 0 25 -6t11 -23l27 -122q4 -17 -0.5 -23t-22.5 -6h-30q-18 0 -27 5.5t-16 21.5z" />
    <glyph glyph-name="eacute" unicode="&#xe9;" horiz-adv-x="380" 
d="M40 30v640q0 18 6 24t24 6h260q18 0 24 -6t6 -24v-60q0 -18 -6 -24t-24 -6h-120q-12 0 -16 -4t-4 -16v-120q0 -12 4 -16t16 -4h70q18 0 24 -6t6 -24v-60q0 -18 -6 -24t-24 -6h-70q-12 0 -16 -4t-4 -16v-140q0 -12 4 -16t16 -4h120q18 0 24 -6t6 -24v-60q0 -18 -6 -24
t-24 -6h-260q-18 0 -24 6t-6 24zM321 903l-64 -126q-7 -16 -16 -21.5t-27 -5.5h-30q-18 0 -23 6t-1 23l27 122q5 17 12 23t25 6h80q18 0 21.5 -5t-4.5 -22z" />
    <glyph glyph-name="ecircumflex" unicode="&#xea;" horiz-adv-x="380" 
d="M40 30v640q0 18 6 24t24 6h260q18 0 24 -6t6 -24v-60q0 -18 -6 -24t-24 -6h-120q-12 0 -16 -4t-4 -16v-120q0 -12 4 -16t16 -4h70q18 0 24 -6t6 -24v-60q0 -18 -6 -24t-24 -6h-70q-12 0 -16 -4t-4 -16v-140q0 -12 4 -16t16 -4h120q18 0 24 -6t6 -24v-60q0 -18 -6 -24
t-24 -6h-260q-18 0 -24 6t-6 24zM175 910h51q18 0 27 -5t19 -20l72 -110q10 -15 7 -20t-21 -5h-60q-18 0 -27 5.5t-17 21.5l-23 43h-5l-23 -43q-8 -16 -17 -21.5t-27 -5.5h-60q-18 0 -21 5t7 20l72 110q10 15 19 20t27 5z" />
    <glyph glyph-name="edieresis" unicode="&#xeb;" horiz-adv-x="380" 
d="M40 30v640q0 18 6 24t24 6h260q18 0 24 -6t6 -24v-60q0 -18 -6 -24t-24 -6h-120q-12 0 -16 -4t-4 -16v-120q0 -12 4 -16t16 -4h70q18 0 24 -6t6 -24v-60q0 -18 -6 -24t-24 -6h-70q-12 0 -16 -4t-4 -16v-140q0 -12 4 -16t16 -4h120q18 0 24 -6t6 -24v-60q0 -18 -6 -24
t-24 -6h-260q-18 0 -24 6t-6 24zM50 835q0 29 18 47t47 18t47 -18t18 -47t-18 -47t-47 -18t-47 18t-18 47zM220 835q0 29 18 47t47 18t47 -18t18 -47t-18 -47t-47 -18t-47 18t-18 47z" />
    <glyph glyph-name="igrave" unicode="&#xec;" horiz-adv-x="350" 
d="M20 610v60q0 18 6 24t24 6h250q18 0 24 -6t6 -24v-60q0 -18 -6 -24t-24 -6h-30q-12 0 -16 -4t-4 -16v-420q0 -12 4 -16t16 -4h30q18 0 24 -6t6 -24v-60q0 -18 -6 -24t-24 -6h-250q-18 0 -24 6t-6 24v60q0 18 6 24t24 6h30q12 0 16 4t4 16v420q0 12 -4 16t-16 4h-30
q-18 0 -24 6t-6 24zM122 777l-64 126q-8 17 -4.5 22t21.5 5h80q18 0 25 -6t11 -23l27 -122q4 -17 -0.5 -23t-22.5 -6h-30q-18 0 -27 5.5t-16 21.5z" />
    <glyph glyph-name="iacute" unicode="&#xed;" horiz-adv-x="350" 
d="M20 610v60q0 18 6 24t24 6h250q18 0 24 -6t6 -24v-60q0 -18 -6 -24t-24 -6h-30q-12 0 -16 -4t-4 -16v-420q0 -12 4 -16t16 -4h30q18 0 24 -6t6 -24v-60q0 -18 -6 -24t-24 -6h-250q-18 0 -24 6t-6 24v60q0 18 6 24t24 6h30q12 0 16 4t4 16v420q0 12 -4 16t-16 4h-30
q-18 0 -24 6t-6 24zM293 903l-64 -126q-7 -16 -16 -21.5t-27 -5.5h-30q-18 0 -23 6t-1 23l27 122q5 17 12 23t25 6h80q18 0 21.5 -5t-4.5 -22z" />
    <glyph glyph-name="icircumflex" unicode="&#xee;" horiz-adv-x="350" 
d="M20 610v60q0 18 6 24t24 6h250q18 0 24 -6t6 -24v-60q0 -18 -6 -24t-24 -6h-30q-12 0 -16 -4t-4 -16v-420q0 -12 4 -16t16 -4h30q18 0 24 -6t6 -24v-60q0 -18 -6 -24t-24 -6h-250q-18 0 -24 6t-6 24v60q0 18 6 24t24 6h30q12 0 16 4t4 16v420q0 12 -4 16t-16 4h-30
q-18 0 -24 6t-6 24zM150 910h51q18 0 27 -5t19 -20l72 -110q10 -15 7 -20t-21 -5h-60q-18 0 -27 5.5t-17 21.5l-23 43h-5l-23 -43q-8 -16 -17 -21.5t-27 -5.5h-60q-18 0 -21 5t7 20l72 110q10 15 19 20t27 5z" />
    <glyph glyph-name="idieresis" unicode="&#xef;" horiz-adv-x="350" 
d="M20 610v60q0 18 6 24t24 6h250q18 0 24 -6t6 -24v-60q0 -18 -6 -24t-24 -6h-30q-12 0 -16 -4t-4 -16v-420q0 -12 4 -16t16 -4h30q18 0 24 -6t6 -24v-60q0 -18 -6 -24t-24 -6h-250q-18 0 -24 6t-6 24v60q0 18 6 24t24 6h30q12 0 16 4t4 16v420q0 12 -4 16t-16 4h-30
q-18 0 -24 6t-6 24zM25 835q0 29 18.5 47t46.5 18t46.5 -18t18.5 -47t-18.5 -47t-46.5 -18t-46.5 18t-18.5 47zM195 835q0 29 18.5 47t46.5 18t46.5 -18t18.5 -47t-18.5 -47t-46.5 -18t-46.5 18t-18.5 47z" />
    <glyph glyph-name="eth" unicode="&#xf0;" horiz-adv-x="460" 
d="M10 315v70q0 12 4 16t16 4t16 4t4 16v245q0 18 6 24t24 6h155q86 0 135.5 -48t49.5 -127v-350q0 -79 -49.5 -127t-135.5 -48h-155q-18 0 -24 6t-6 24v245q0 12 -4 16t-16 4t-16 4t-4 16zM220 120h15q15 0 25 10t10 25v390q0 15 -10 25t-25 10h-15q-12 0 -16 -4t-4 -16
v-135q0 -12 4 -16t16 -4t16 -4t4 -16v-70q0 -12 -4 -16t-16 -4t-16 -4t-4 -16v-135q0 -12 4 -16t16 -4z" />
    <glyph glyph-name="ntilde" unicode="&#xf1;" 
d="M160 290v-260q0 -18 -6 -24t-24 -6h-60q-18 0 -24 6t-6 24v640q0 18 6 24t24 6h70q18 0 26 -6t13 -23l81 -261h10v260q0 18 6 24t24 6h60q18 0 24 -6t6 -24v-640q0 -18 -6 -24t-24 -6h-70q-18 0 -26 6t-13 23l-81 261h-10zM135 890q29 0 60.5 -17.5t49.5 -17.5
q20 0 20 15q0 12 4 16t16 4h40q18 0 24 -6t6 -24v-50q0 -26 -17 -43t-43 -17q-29 0 -60.5 17.5t-49.5 17.5q-20 0 -20 -15q0 -12 -4 -16t-16 -4h-40q-18 0 -24 6t-6 24v50q0 26 17 43t43 17z" />
    <glyph glyph-name="ograve" unicode="&#xf2;" horiz-adv-x="450" 
d="M190 555v-410q0 -15 10 -25t25 -10t25 10t10 25v410q0 15 -10 25t-25 10t-25 -10t-10 -25zM40 165v370q0 79 49.5 127t135.5 48t135.5 -48t49.5 -127v-370q0 -79 -49.5 -127t-135.5 -48t-135.5 48t-49.5 127zM167 787l-64 126q-8 17 -4.5 22t21.5 5h80q18 0 25 -6t11 -23
l27 -122q4 -17 -0.5 -23t-22.5 -6h-30q-18 0 -27 5.5t-16 21.5z" />
    <glyph glyph-name="oacute" unicode="&#xf3;" horiz-adv-x="450" 
d="M190 555v-410q0 -15 10 -25t25 -10t25 10t10 25v410q0 15 -10 25t-25 10t-25 -10t-10 -25zM40 165v370q0 79 49.5 127t135.5 48t135.5 -48t49.5 -127v-370q0 -79 -49.5 -127t-135.5 -48t-135.5 48t-49.5 127zM347 913l-64 -126q-7 -16 -16 -21.5t-27 -5.5h-30
q-18 0 -23 6t-1 23l27 122q5 17 12 23t25 6h80q18 0 21.5 -5t-4.5 -22z" />
    <glyph glyph-name="ocircumflex" unicode="&#xf4;" horiz-adv-x="450" 
d="M190 555v-410q0 -15 10 -25t25 -10t25 10t10 25v410q0 15 -10 25t-25 10t-25 -10t-10 -25zM40 165v370q0 79 49.5 127t135.5 48t135.5 -48t49.5 -127v-370q0 -79 -49.5 -127t-135.5 -48t-135.5 48t-49.5 127zM200 920h51q18 0 27 -5t19 -20l72 -110q10 -15 7 -20t-21 -5
h-60q-18 0 -27 5.5t-17 21.5l-23 43h-5l-23 -43q-8 -16 -17 -21.5t-27 -5.5h-60q-18 0 -21 5t7 20l72 110q10 15 19 20t27 5z" />
    <glyph glyph-name="otilde" unicode="&#xf5;" horiz-adv-x="450" 
d="M190 555v-410q0 -15 10 -25t25 -10t25 10t10 25v410q0 15 -10 25t-25 10t-25 -10t-10 -25zM40 165v370q0 79 49.5 127t135.5 48t135.5 -48t49.5 -127v-370q0 -79 -49.5 -127t-135.5 -48t-135.5 48t-49.5 127zM145 900q29 0 60.5 -17.5t49.5 -17.5q20 0 20 15q0 12 4 16
t16 4h40q18 0 24 -6t6 -24v-50q0 -26 -17 -43t-43 -17q-29 0 -60.5 17.5t-49.5 17.5q-20 0 -20 -15q0 -12 -4 -16t-16 -4h-40q-18 0 -24 6t-6 24v50q0 26 17 43t43 17z" />
    <glyph glyph-name="odieresis" unicode="&#xf6;" horiz-adv-x="450" 
d="M190 555v-410q0 -15 10 -25t25 -10t25 10t10 25v410q0 15 -10 25t-25 10t-25 -10t-10 -25zM40 165v370q0 79 49.5 127t135.5 48t135.5 -48t49.5 -127v-370q0 -79 -49.5 -127t-135.5 -48t-135.5 48t-49.5 127zM75 835q0 29 18.5 47t46.5 18t46.5 -18t18.5 -47t-18.5 -47
t-46.5 -18t-46.5 18t-18.5 47zM245 835q0 29 18.5 47t46.5 18t46.5 -18t18.5 -47t-18.5 -47t-46.5 -18t-46.5 18t-18.5 47z" />
    <glyph glyph-name="divide" unicode="&#xf7;" horiz-adv-x="390" 
d="M275 180q0 -34 -23 -57t-57 -23t-57 23t-23 57t23 57t57 23t57 -23t23 -57zM275 510q0 -34 -23 -57t-57 -23t-57 23t-23 57t23 57t57 23t57 -23t23 -57zM30 320v50q0 18 6 24t24 6h270q18 0 24 -6t6 -24v-50q0 -18 -6 -24t-24 -6h-270q-18 0 -24 6t-6 24z" />
    <glyph glyph-name="oslash" unicode="&#xf8;" horiz-adv-x="450" 
d="M40 165v370q0 79 49.5 127t135.5 48t135.5 -48t49.5 -127v-370q0 -79 -49.5 -127t-135.5 -48t-135.5 48t-49.5 127zM190 555v-195q0 -11 2.5 -11t6.5 10l56 181q9 21 -1 35q-10 15 -29 15q-15 0 -25 -10t-10 -25zM260 145v195q0 11 -2.5 11t-6.5 -10l-56 -181
q-9 -21 1 -35q10 -15 29 -15q15 0 25 10t10 25z" />
    <glyph glyph-name="ugrave" unicode="&#xf9;" 
d="M270 150v520q0 18 6 24t24 6h60q18 0 24 -6t6 -24v-515q0 -73 -47.5 -119t-127.5 -46t-127.5 46t-47.5 119v515q0 18 6 24t24 6h90q18 0 24 -6t6 -24v-520q0 -17 11.5 -28.5t28.5 -11.5t28.5 11.5t11.5 28.5zM157 777l-64 126q-8 17 -4.5 22t21.5 5h80q18 0 25 -6t11 -23
l27 -122q4 -17 -0.5 -23t-22.5 -6h-30q-18 0 -27 5.5t-16 21.5z" />
    <glyph glyph-name="uacute" unicode="&#xfa;" 
d="M270 150v520q0 18 6 24t24 6h60q18 0 24 -6t6 -24v-515q0 -73 -47.5 -119t-127.5 -46t-127.5 46t-47.5 119v515q0 18 6 24t24 6h90q18 0 24 -6t6 -24v-520q0 -17 11.5 -28.5t28.5 -11.5t28.5 11.5t11.5 28.5zM337 903l-64 -126q-7 -16 -16 -21.5t-27 -5.5h-30
q-18 0 -23 6t-1 23l27 122q5 17 12 23t25 6h80q18 0 21.5 -5t-4.5 -22z" />
    <glyph glyph-name="ucircumflex" unicode="&#xfb;" 
d="M270 150v520q0 18 6 24t24 6h60q18 0 24 -6t6 -24v-515q0 -73 -47.5 -119t-127.5 -46t-127.5 46t-47.5 119v515q0 18 6 24t24 6h90q18 0 24 -6t6 -24v-520q0 -17 11.5 -28.5t28.5 -11.5t28.5 11.5t11.5 28.5zM190 910h51q18 0 27 -5t19 -20l72 -110q10 -15 7 -20t-21 -5
h-60q-18 0 -27 5.5t-17 21.5l-23 43h-5l-23 -43q-8 -16 -17 -21.5t-27 -5.5h-60q-18 0 -21 5t7 20l72 110q10 15 19 20t27 5z" />
    <glyph glyph-name="udieresis" unicode="&#xfc;" 
d="M270 150v520q0 18 6 24t24 6h60q18 0 24 -6t6 -24v-515q0 -73 -47.5 -119t-127.5 -46t-127.5 46t-47.5 119v515q0 18 6 24t24 6h90q18 0 24 -6t6 -24v-520q0 -17 11.5 -28.5t28.5 -11.5t28.5 11.5t11.5 28.5zM65 835q0 29 18.5 47t46.5 18t46.5 -18t18.5 -47t-18.5 -47
t-46.5 -18t-46.5 18t-18.5 47zM235 835q0 29 18.5 47t46.5 18t46.5 -18t18.5 -47t-18.5 -47t-46.5 -18t-46.5 18t-18.5 47z" />
    <glyph glyph-name="yacute" unicode="&#xfd;" horiz-adv-x="392" 
d="M271 160v-130q0 -18 -6 -24t-24 -6h-90q-18 0 -24 6t-6 24v130q0 32 -7 59l-101 452q-4 17 0.5 23t22.5 6h105q18 0 24.5 -6t9.5 -24l31 -210h10l31 210q3 18 9.5 24t24.5 6h75q18 0 22.5 -6t0.5 -23l-101 -452q-7 -27 -7 -59zM323 903l-64 -126q-7 -16 -16 -21.5
t-27 -5.5h-30q-18 0 -23 6t-1 23l27 122q5 17 12 23t25 6h80q18 0 21.5 -5t-4.5 -22z" />
    <glyph glyph-name="thorn" unicode="&#xfe;" horiz-adv-x="420" 
d="M190 510v-330q0 -10 10 -10q15 0 25 10t10 25v280q0 15 -10 25t-25 10q-10 0 -10 -10zM385 465v-240q0 -77 -48 -124t-134 -51q-13 0 -13 -15v-15q0 -18 -6 -24t-24 -6h-90q-18 0 -24 6t-6 24v660q0 18 6 24t24 6h90q18 0 24 -6t6 -24v-25q0 -15 13 -15q86 -4 134 -51
t48 -124z" />
    <glyph glyph-name="ydieresis" unicode="&#xff;" horiz-adv-x="392" 
d="M271 160v-130q0 -18 -6 -24t-24 -6h-90q-18 0 -24 6t-6 24v130q0 32 -7 59l-101 452q-4 17 0.5 23t22.5 6h105q18 0 24.5 -6t9.5 -24l31 -210h10l31 210q3 18 9.5 24t24.5 6h75q18 0 22.5 -6t0.5 -23l-101 -452q-7 -27 -7 -59zM51 835q0 29 18.5 47t46.5 18t46.5 -18
t18.5 -47t-18.5 -47t-46.5 -18t-46.5 18t-18.5 47zM221 835q0 29 18.5 47t46.5 18t46.5 -18t18.5 -47t-18.5 -47t-46.5 -18t-46.5 18t-18.5 47z" />
    <glyph glyph-name="Amacron" unicode="&#x100;" 
d="M360 0h-90q-18 0 -24 6t-6 24v200q0 12 -4 16t-16 4h-40q-12 0 -16 -4t-4 -16v-200q0 -18 -6 -24t-24 -6h-60q-18 0 -24 6t-6 24v515q0 73 47.5 119t127.5 46t127.5 -46t47.5 -119v-515q0 -18 -6 -24t-24 -6zM160 550v-160q0 -12 4 -16t16 -4h40q12 0 16 4t4 16v160
q0 17 -11.5 28.5t-28.5 11.5t-28.5 -11.5t-11.5 -28.5zM90 810v40q0 18 6 24t24 6h190q18 0 24 -6t6 -24v-40q0 -18 -6 -24t-24 -6h-190q-18 0 -24 6t-6 24z" />
    <glyph glyph-name="amacron" unicode="&#x101;" 
d="M360 0h-90q-18 0 -24 6t-6 24v200q0 12 -4 16t-16 4h-40q-12 0 -16 -4t-4 -16v-200q0 -18 -6 -24t-24 -6h-60q-18 0 -24 6t-6 24v515q0 73 47.5 119t127.5 46t127.5 -46t47.5 -119v-515q0 -18 -6 -24t-24 -6zM160 550v-160q0 -12 4 -16t16 -4h40q12 0 16 4t4 16v160
q0 17 -11.5 28.5t-28.5 11.5t-28.5 -11.5t-11.5 -28.5zM90 810v40q0 18 6 24t24 6h190q18 0 24 -6t6 -24v-40q0 -18 -6 -24t-24 -6h-190q-18 0 -24 6t-6 24z" />
    <glyph glyph-name="Abreve" unicode="&#x102;" 
d="M360 0h-90q-18 0 -24 6t-6 24v200q0 12 -4 16t-16 4h-40q-12 0 -16 -4t-4 -16v-200q0 -18 -6 -24t-24 -6h-60q-18 0 -24 6t-6 24v515q0 73 47.5 119t127.5 46t127.5 -46t47.5 -119v-515q0 -18 -6 -24t-24 -6zM160 550v-160q0 -12 4 -16t16 -4h40q12 0 16 4t4 16v160
q0 17 -11.5 28.5t-28.5 11.5t-28.5 -11.5t-11.5 -28.5zM253 880q0 12 4 16t16 4h50q12 0 16 -4t4 -16q0 -53 -35.5 -86.5t-94.5 -33.5t-94.5 33.5t-35.5 86.5q0 12 4 16t16 4h50q12 0 16 -4t4 -16q0 -13 10.5 -21.5t29.5 -8.5t29.5 8.5t10.5 21.5z" />
    <glyph glyph-name="abreve" unicode="&#x103;" 
d="M360 0h-90q-18 0 -24 6t-6 24v200q0 12 -4 16t-16 4h-40q-12 0 -16 -4t-4 -16v-200q0 -18 -6 -24t-24 -6h-60q-18 0 -24 6t-6 24v515q0 73 47.5 119t127.5 46t127.5 -46t47.5 -119v-515q0 -18 -6 -24t-24 -6zM160 550v-160q0 -12 4 -16t16 -4h40q12 0 16 4t4 16v160
q0 17 -11.5 28.5t-28.5 11.5t-28.5 -11.5t-11.5 -28.5zM253 880q0 12 4 16t16 4h50q12 0 16 -4t4 -16q0 -53 -35.5 -86.5t-94.5 -33.5t-94.5 33.5t-35.5 86.5q0 12 4 16t16 4h50q12 0 16 -4t4 -16q0 -13 10.5 -21.5t29.5 -8.5t29.5 8.5t10.5 21.5z" />
    <glyph glyph-name="Aogonek" unicode="&#x104;" 
d="M390 30q0 -30 -22 -50q-68 -65 -68 -120q0 -20 20 -20h35q15 0 20 -5t5 -20v-20q0 -15 -5 -20t-20 -5h-35q-44 0 -72 26t-28 64q0 77 79 133q11 7 -3 7h-26q-18 0 -24 6t-6 24v200q0 12 -4 16t-16 4h-40q-12 0 -16 -4t-4 -16v-200q0 -18 -6 -24t-24 -6h-60q-18 0 -24 6
t-6 24v515q0 73 47.5 119t127.5 46t127.5 -46t47.5 -119v-515zM160 550v-160q0 -12 4 -16t16 -4h40q12 0 16 4t4 16v160q0 17 -11.5 28.5t-28.5 11.5t-28.5 -11.5t-11.5 -28.5z" />
    <glyph glyph-name="aogonek" unicode="&#x105;" 
d="M390 30q0 -30 -22 -50q-68 -65 -68 -120q0 -20 20 -20h35q15 0 20 -5t5 -20v-20q0 -15 -5 -20t-20 -5h-35q-44 0 -72 26t-28 64q0 77 79 133q11 7 -3 7h-26q-18 0 -24 6t-6 24v200q0 12 -4 16t-16 4h-40q-12 0 -16 -4t-4 -16v-200q0 -18 -6 -24t-24 -6h-60q-18 0 -24 6
t-6 24v515q0 73 47.5 119t127.5 46t127.5 -46t47.5 -119v-515zM160 550v-160q0 -12 4 -16t16 -4h40q12 0 16 4t4 16v160q0 17 -11.5 28.5t-28.5 11.5t-28.5 -11.5t-11.5 -28.5z" />
    <glyph glyph-name="Cacute" unicode="&#x106;" horiz-adv-x="420" 
d="M190 550v-400q0 -17 11.5 -28.5t28.5 -11.5t28.5 11.5t11.5 28.5v60q0 18 6 24t24 6h-1h-1h-1h-1h-1v0h1v0h1h1h1h1h1h1h1h1h2h1h1h2h1h2h1h2h2h1h2h2h2h2h2h3h2h2h3h3h2h4h3h9q18 0 24 -6t6 -24v-55q0 -73 -47.5 -119t-127.5 -46t-127.5 46t-47.5 119v390q0 73 47.5 119
t127.5 46t127.5 -46t47.5 -119v-55q0 -18 -6 -24t-24 -6h1h1h1h1h1v0h-1v0h-1h-1h-1h-1h-1h-1h-1h-1h-2h-1h-1h-2h-1h-2h-1h-2h-2h-1h-2h-2h-2h-2h-2h-3h-2h-2h-3h-3h-2h-4h-3h-9q-18 0 -24 6t-6 24v60q0 17 -11.5 28.5t-28.5 11.5t-28.5 -11.5t-11.5 -28.5zM337 923
l-64 -126q-7 -16 -16 -21.5t-27 -5.5h-30q-18 0 -23 6t-1 23l27 122q5 17 12 23t25 6h80q18 0 21.5 -5t-4.5 -22z" />
    <glyph glyph-name="cacute" unicode="&#x107;" horiz-adv-x="420" 
d="M190 550v-400q0 -17 11.5 -28.5t28.5 -11.5t28.5 11.5t11.5 28.5v60q0 18 6 24t24 6h-1h-1h-1h-1h-1v0h1v0h1h1h1h1h1h1h1h1h2h1h1h2h1h2h1h2h2h1h2h2h2h2h2h3h2h2h3h3h2h4h3h9q18 0 24 -6t6 -24v-55q0 -73 -47.5 -119t-127.5 -46t-127.5 46t-47.5 119v390q0 73 47.5 119
t127.5 46t127.5 -46t47.5 -119v-55q0 -18 -6 -24t-24 -6h1h1h1h1h1v0h-1v0h-1h-1h-1h-1h-1h-1h-1h-1h-2h-1h-1h-2h-1h-2h-1h-2h-2h-1h-2h-2h-2h-2h-2h-3h-2h-2h-3h-3h-2h-4h-3h-9q-18 0 -24 6t-6 24v60q0 17 -11.5 28.5t-28.5 11.5t-28.5 -11.5t-11.5 -28.5zM337 923
l-64 -126q-7 -16 -16 -21.5t-27 -5.5h-30q-18 0 -23 6t-1 23l27 122q5 17 12 23t25 6h80q18 0 21.5 -5t-4.5 -22z" />
    <glyph glyph-name="Ccircumflex" unicode="&#x108;" horiz-adv-x="420" 
d="M190 550v-400q0 -17 11.5 -28.5t28.5 -11.5t28.5 11.5t11.5 28.5v60q0 18 6 24t24 6h-1h-1h-1h-1h-1v0h1v0h1h1h1h1h1h1h1h1h2h1h1h2h1h2h1h2h2h1h2h2h2h2h2h3h2h2h3h3h2h4h3h9q18 0 24 -6t6 -24v-55q0 -73 -47.5 -119t-127.5 -46t-127.5 46t-47.5 119v390q0 73 47.5 119
t127.5 46t127.5 -46t47.5 -119v-55q0 -18 -6 -24t-24 -6h1h1h1h1h1v0h-1v0h-1h-1h-1h-1h-1h-1h-1h-1h-2h-1h-1h-2h-1h-2h-1h-2h-2h-1h-2h-2h-2h-2h-2h-3h-2h-2h-3h-3h-2h-4h-3h-9q-18 0 -24 6t-6 24v60q0 17 -11.5 28.5t-28.5 11.5t-28.5 -11.5t-11.5 -28.5zM190 920h51
q18 0 27 -5t19 -20l72 -110q10 -15 7 -20t-21 -5h-60q-18 0 -27 5.5t-17 21.5l-23 43h-5l-23 -43q-8 -16 -17 -21.5t-27 -5.5h-60q-18 0 -21 5t7 20l72 110q10 15 19 20t27 5z" />
    <glyph glyph-name="ccircumflex" unicode="&#x109;" horiz-adv-x="420" 
d="M190 550v-400q0 -17 11.5 -28.5t28.5 -11.5t28.5 11.5t11.5 28.5v60q0 18 6 24t24 6h-1h-1h-1h-1h-1v0h1v0h1h1h1h1h1h1h1h1h2h1h1h2h1h2h1h2h2h1h2h2h2h2h2h3h2h2h3h3h2h4h3h9q18 0 24 -6t6 -24v-55q0 -73 -47.5 -119t-127.5 -46t-127.5 46t-47.5 119v390q0 73 47.5 119
t127.5 46t127.5 -46t47.5 -119v-55q0 -18 -6 -24t-24 -6h1h1h1h1h1v0h-1v0h-1h-1h-1h-1h-1h-1h-1h-1h-2h-1h-1h-2h-1h-2h-1h-2h-2h-1h-2h-2h-2h-2h-2h-3h-2h-2h-3h-3h-2h-4h-3h-9q-18 0 -24 6t-6 24v60q0 17 -11.5 28.5t-28.5 11.5t-28.5 -11.5t-11.5 -28.5zM190 920h51
q18 0 27 -5t19 -20l72 -110q10 -15 7 -20t-21 -5h-60q-18 0 -27 5.5t-17 21.5l-23 43h-5l-23 -43q-8 -16 -17 -21.5t-27 -5.5h-60q-18 0 -21 5t7 20l72 110q10 15 19 20t27 5z" />
    <glyph glyph-name="Ccaron" unicode="&#x10c;" horiz-adv-x="420" 
d="M190 550v-400q0 -17 11.5 -28.5t28.5 -11.5t28.5 11.5t11.5 28.5v60q0 18 6 24t24 6h-1h-1h-1h-1h-1v0h1v0h1h1h1h1h1h1h1h1h2h1h1h2h1h2h1h2h2h1h2h2h2h2h2h3h2h2h3h3h2h4h3h9q18 0 24 -6t6 -24v-55q0 -73 -47.5 -119t-127.5 -46t-127.5 46t-47.5 119v390q0 73 47.5 119
t127.5 46t127.5 -46t47.5 -119v-55q0 -18 -6 -24t-24 -6h1h1h1h1h1v0h-1v0h-1h-1h-1h-1h-1h-1h-1h-1h-2h-1h-1h-2h-1h-2h-1h-2h-2h-1h-2h-2h-2h-2h-2h-3h-2h-2h-3h-3h-2h-4h-3h-9q-18 0 -24 6t-6 24v60q0 17 -11.5 28.5t-28.5 11.5t-28.5 -11.5t-11.5 -28.5zM241 760h-51
q-18 0 -27 5t-19 20l-62 100q-10 15 -7 20t21 5h60q18 0 26 -5.5t15 -22.5l16 -42h5l16 42q7 17 15 22.5t26 5.5h60q18 0 21 -5t-7 -20l-62 -100q-10 -15 -19 -20t-27 -5z" />
    <glyph glyph-name="ccaron" unicode="&#x10d;" horiz-adv-x="420" 
d="M190 550v-400q0 -17 11.5 -28.5t28.5 -11.5t28.5 11.5t11.5 28.5v60q0 18 6 24t24 6h-1h-1h-1h-1h-1v0h1v0h1h1h1h1h1h1h1h1h2h1h1h2h1h2h1h2h2h1h2h2h2h2h2h3h2h2h3h3h2h4h3h9q18 0 24 -6t6 -24v-55q0 -73 -47.5 -119t-127.5 -46t-127.5 46t-47.5 119v390q0 73 47.5 119
t127.5 46t127.5 -46t47.5 -119v-55q0 -18 -6 -24t-24 -6h1h1h1h1h1v0h-1v0h-1h-1h-1h-1h-1h-1h-1h-1h-2h-1h-1h-2h-1h-2h-1h-2h-2h-1h-2h-2h-2h-2h-2h-3h-2h-2h-3h-3h-2h-4h-3h-9q-18 0 -24 6t-6 24v60q0 17 -11.5 28.5t-28.5 11.5t-28.5 -11.5t-11.5 -28.5zM241 760h-51
q-18 0 -27 5t-19 20l-62 100q-10 15 -7 20t21 5h60q18 0 26 -5.5t15 -22.5l16 -42h5l16 42q7 17 15 22.5t26 5.5h60q18 0 21 -5t-7 -20l-62 -100q-10 -15 -19 -20t-27 -5z" />
    <glyph glyph-name="Dcaron" unicode="&#x10e;" horiz-adv-x="450" 
d="M225 0h-155q-18 0 -24 6t-6 24v640q0 18 6 24t24 6h155q86 0 135.5 -48t49.5 -127v-350q0 -79 -49.5 -127t-135.5 -48zM205 120h20q15 0 25 10t10 25v390q0 15 -10 25t-25 10h-20q-9 0 -12 -3t-3 -12v-430q0 -9 3 -12t12 -3zM241 760h-51q-18 0 -27 5t-19 20l-62 100
q-10 15 -7 20t21 5h60q18 0 26 -5.5t15 -22.5l16 -42h5l16 42q7 17 15 22.5t26 5.5h60q18 0 21 -5t-7 -20l-62 -100q-10 -15 -19 -20t-27 -5z" />
    <glyph glyph-name="dcaron" unicode="&#x10f;" horiz-adv-x="450" 
d="M225 0h-155q-18 0 -24 6t-6 24v640q0 18 6 24t24 6h155q86 0 135.5 -48t49.5 -127v-350q0 -79 -49.5 -127t-135.5 -48zM205 120h20q15 0 25 10t10 25v390q0 15 -10 25t-25 10h-20q-9 0 -12 -3t-3 -12v-430q0 -9 3 -12t12 -3zM241 760h-51q-18 0 -27 5t-19 20l-62 100
q-10 15 -7 20t21 5h60q18 0 26 -5.5t15 -22.5l16 -42h5l16 42q7 17 15 22.5t26 5.5h60q18 0 21 -5t-7 -20l-62 -100q-10 -15 -19 -20t-27 -5z" />
    <glyph glyph-name="Dcroat" unicode="&#x110;" horiz-adv-x="460" 
d="M10 315v70q0 12 4 16t16 4t16 4t4 16v245q0 18 6 24t24 6h155q86 0 135.5 -48t49.5 -127v-350q0 -79 -49.5 -127t-135.5 -48h-155q-18 0 -24 6t-6 24v245q0 12 -4 16t-16 4t-16 4t-4 16zM220 120h15q15 0 25 10t10 25v390q0 15 -10 25t-25 10h-15q-12 0 -16 -4t-4 -16
v-135q0 -12 4 -16t16 -4t16 -4t4 -16v-70q0 -12 -4 -16t-16 -4t-16 -4t-4 -16v-135q0 -12 4 -16t16 -4z" />
    <glyph glyph-name="dcroat" unicode="&#x111;" horiz-adv-x="460" 
d="M10 315v70q0 12 4 16t16 4t16 4t4 16v245q0 18 6 24t24 6h155q86 0 135.5 -48t49.5 -127v-350q0 -79 -49.5 -127t-135.5 -48h-155q-18 0 -24 6t-6 24v245q0 12 -4 16t-16 4t-16 4t-4 16zM220 120h15q15 0 25 10t10 25v390q0 15 -10 25t-25 10h-15q-12 0 -16 -4t-4 -16
v-135q0 -12 4 -16t16 -4t16 -4t4 -16v-70q0 -12 -4 -16t-16 -4t-16 -4t-4 -16v-135q0 -12 4 -16t16 -4z" />
    <glyph glyph-name="Emacron" unicode="&#x112;" horiz-adv-x="380" 
d="M40 30v640q0 18 6 24t24 6h260q18 0 24 -6t6 -24v-60q0 -18 -6 -24t-24 -6h-120q-12 0 -16 -4t-4 -16v-120q0 -12 4 -16t16 -4h70q18 0 24 -6t6 -24v-60q0 -18 -6 -24t-24 -6h-70q-12 0 -16 -4t-4 -16v-140q0 -12 4 -16t16 -4h120q18 0 24 -6t6 -24v-60q0 -18 -6 -24
t-24 -6h-260q-18 0 -24 6t-6 24zM75 810v40q0 18 6 24t24 6h190q18 0 24 -6t6 -24v-40q0 -18 -6 -24t-24 -6h-190q-18 0 -24 6t-6 24z" />
    <glyph glyph-name="emacron" unicode="&#x113;" horiz-adv-x="380" 
d="M40 30v640q0 18 6 24t24 6h260q18 0 24 -6t6 -24v-60q0 -18 -6 -24t-24 -6h-120q-12 0 -16 -4t-4 -16v-120q0 -12 4 -16t16 -4h70q18 0 24 -6t6 -24v-60q0 -18 -6 -24t-24 -6h-70q-12 0 -16 -4t-4 -16v-140q0 -12 4 -16t16 -4h120q18 0 24 -6t6 -24v-60q0 -18 -6 -24
t-24 -6h-260q-18 0 -24 6t-6 24zM75 810v40q0 18 6 24t24 6h190q18 0 24 -6t6 -24v-40q0 -18 -6 -24t-24 -6h-190q-18 0 -24 6t-6 24z" />
    <glyph glyph-name="Edotaccent" unicode="&#x116;" horiz-adv-x="380" 
d="M40 30v640q0 18 6 24t24 6h260q18 0 24 -6t6 -24v-60q0 -18 -6 -24t-24 -6h-120q-12 0 -16 -4t-4 -16v-120q0 -12 4 -16t16 -4h70q18 0 24 -6t6 -24v-60q0 -18 -6 -24t-24 -6h-70q-12 0 -16 -4t-4 -16v-140q0 -12 4 -16t16 -4h120q18 0 24 -6t6 -24v-60q0 -18 -6 -24
t-24 -6h-260q-18 0 -24 6t-6 24zM280 850q0 -34 -23 -57t-57 -23t-57 23t-23 57t23 57t57 23t57 -23t23 -57z" />
    <glyph glyph-name="edotaccent" unicode="&#x117;" horiz-adv-x="380" 
d="M40 30v640q0 18 6 24t24 6h260q18 0 24 -6t6 -24v-60q0 -18 -6 -24t-24 -6h-120q-12 0 -16 -4t-4 -16v-120q0 -12 4 -16t16 -4h70q18 0 24 -6t6 -24v-60q0 -18 -6 -24t-24 -6h-70q-12 0 -16 -4t-4 -16v-140q0 -12 4 -16t16 -4h120q18 0 24 -6t6 -24v-60q0 -18 -6 -24
t-24 -6h-260q-18 0 -24 6t-6 24zM280 850q0 -34 -23 -57t-57 -23t-57 23t-23 57t23 57t57 23t57 -23t23 -57z" />
    <glyph glyph-name="Eogonek" unicode="&#x118;" horiz-adv-x="380" 
d="M266 0h-196q-18 0 -24 6t-6 24v640q0 18 6 24t24 6h260q18 0 24 -6t6 -24v-60q0 -18 -6 -24t-24 -6h-120q-12 0 -16 -4t-4 -16v-120q0 -12 4 -16t16 -4h70q18 0 24 -6t6 -24v-60q0 -18 -6 -24t-24 -6h-70q-12 0 -16 -4t-4 -16v-140q0 -12 4 -16t16 -4h120q18 0 24 -6
t6 -24v-60q0 -30 -22 -50q-68 -65 -68 -120q0 -20 20 -20h35q15 0 20 -5t5 -20v-20q0 -15 -5 -20t-20 -5h-35q-44 0 -72 26t-28 64q0 77 79 133q11 7 -3 7z" />
    <glyph glyph-name="eogonek" unicode="&#x119;" horiz-adv-x="380" 
d="M266 0h-196q-18 0 -24 6t-6 24v640q0 18 6 24t24 6h260q18 0 24 -6t6 -24v-60q0 -18 -6 -24t-24 -6h-120q-12 0 -16 -4t-4 -16v-120q0 -12 4 -16t16 -4h70q18 0 24 -6t6 -24v-60q0 -18 -6 -24t-24 -6h-70q-12 0 -16 -4t-4 -16v-140q0 -12 4 -16t16 -4h120q18 0 24 -6
t6 -24v-60q0 -30 -22 -50q-68 -65 -68 -120q0 -20 20 -20h35q15 0 20 -5t5 -20v-20q0 -15 -5 -20t-20 -5h-35q-44 0 -72 26t-28 64q0 77 79 133q11 7 -3 7z" />
    <glyph glyph-name="Ecaron" unicode="&#x11a;" horiz-adv-x="380" 
d="M40 30v640q0 18 6 24t24 6h260q18 0 24 -6t6 -24v-60q0 -18 -6 -24t-24 -6h-120q-12 0 -16 -4t-4 -16v-120q0 -12 4 -16t16 -4h70q18 0 24 -6t6 -24v-60q0 -18 -6 -24t-24 -6h-70q-12 0 -16 -4t-4 -16v-140q0 -12 4 -16t16 -4h120q18 0 24 -6t6 -24v-60q0 -18 -6 -24
t-24 -6h-260q-18 0 -24 6t-6 24zM226 750h-51q-18 0 -27 5t-19 20l-62 100q-10 15 -7 20t21 5h60q18 0 26 -5.5t15 -22.5l16 -42h5l16 42q7 17 15 22.5t26 5.5h60q18 0 21 -5t-7 -20l-62 -100q-10 -15 -19 -20t-27 -5z" />
    <glyph glyph-name="ecaron" unicode="&#x11b;" horiz-adv-x="380" 
d="M40 30v640q0 18 6 24t24 6h260q18 0 24 -6t6 -24v-60q0 -18 -6 -24t-24 -6h-120q-12 0 -16 -4t-4 -16v-120q0 -12 4 -16t16 -4h70q18 0 24 -6t6 -24v-60q0 -18 -6 -24t-24 -6h-70q-12 0 -16 -4t-4 -16v-140q0 -12 4 -16t16 -4h120q18 0 24 -6t6 -24v-60q0 -18 -6 -24
t-24 -6h-260q-18 0 -24 6t-6 24zM226 750h-51q-18 0 -27 5t-19 20l-62 100q-10 15 -7 20t21 5h60q18 0 26 -5.5t15 -22.5l16 -42h5l16 42q7 17 15 22.5t26 5.5h60q18 0 21 -5t-7 -20l-62 -100q-10 -15 -19 -20t-27 -5z" />
    <glyph glyph-name="Gbreve" unicode="&#x11e;" horiz-adv-x="425" 
d="M270 150v80q0 12 -4 16t-16 4h-10q-18 0 -24 6t-6 24v60q0 18 6 24t24 6h120q18 0 24 -6t6 -24v-185q0 -73 -47.5 -119t-127.5 -46t-127.5 46t-47.5 119v390q0 73 47.5 119t127.5 46t127.5 -46t47.5 -119v-55q0 -18 -6 -24t-24 -6h1h1h1h1h1v0h-1v0h-1h-1h-1h-1h-1h-1h-1
h-1h-2h-1h-1h-2h-1h-2h-1h-2h-2h-1h-2h-2h-2h-2h-2h-3h-2h-2h-3h-3h-2h-4h-3h-9q-18 0 -24 6t-6 24v60q0 17 -11.5 28.5t-28.5 11.5t-28.5 -11.5t-11.5 -28.5v-400q0 -17 11.5 -28.5t28.5 -11.5t28.5 11.5t11.5 28.5zM255 880q0 12 4 16t16 4h50q12 0 16 -4t4 -16
q0 -53 -35.5 -86.5t-94.5 -33.5t-94.5 33.5t-35.5 86.5q0 12 4 16t16 4h50q12 0 16 -4t4 -16q0 -13 10.5 -21.5t29.5 -8.5t29.5 8.5t10.5 21.5z" />
    <glyph glyph-name="gbreve" unicode="&#x11f;" horiz-adv-x="425" 
d="M270 150v80q0 12 -4 16t-16 4h-10q-18 0 -24 6t-6 24v60q0 18 6 24t24 6h120q18 0 24 -6t6 -24v-185q0 -73 -47.5 -119t-127.5 -46t-127.5 46t-47.5 119v390q0 73 47.5 119t127.5 46t127.5 -46t47.5 -119v-55q0 -18 -6 -24t-24 -6h1h1h1h1h1v0h-1v0h-1h-1h-1h-1h-1h-1h-1
h-1h-2h-1h-1h-2h-1h-2h-1h-2h-2h-1h-2h-2h-2h-2h-2h-3h-2h-2h-3h-3h-2h-4h-3h-9q-18 0 -24 6t-6 24v60q0 17 -11.5 28.5t-28.5 11.5t-28.5 -11.5t-11.5 -28.5v-400q0 -17 11.5 -28.5t28.5 -11.5t28.5 11.5t11.5 28.5zM255 880q0 12 4 16t16 4h50q12 0 16 -4t4 -16
q0 -53 -35.5 -86.5t-94.5 -33.5t-94.5 33.5t-35.5 86.5q0 12 4 16t16 4h50q12 0 16 -4t4 -16q0 -13 10.5 -21.5t29.5 -8.5t29.5 8.5t10.5 21.5z" />
    <glyph glyph-name="Gcommaaccent" unicode="&#x122;" horiz-adv-x="425" 
d="M270 150v80q0 12 -4 16t-16 4h-10q-18 0 -24 6t-6 24v60q0 18 6 24t24 6h120q18 0 24 -6t6 -24v-185q0 -73 -47.5 -119t-127.5 -46t-127.5 46t-47.5 119v390q0 73 47.5 119t127.5 46t127.5 -46t47.5 -119v-55q0 -18 -6 -24t-24 -6h1h1h1h1h1v0h-1v0h-1h-1h-1h-1h-1h-1h-1
h-1h-2h-1h-1h-2h-1h-2h-1h-2h-2h-1h-2h-2h-2h-2h-2h-3h-2h-2h-3h-3h-2h-4h-3h-9q-18 0 -24 6t-6 24v60q0 17 -11.5 28.5t-28.5 11.5t-28.5 -11.5t-11.5 -28.5v-400q0 -17 11.5 -28.5t28.5 -11.5t28.5 11.5t11.5 28.5zM295 -140q0 -56 -23 -99.5t-50 -68.5q-13 -13 -24 0
l-8 11q-9 12 0 21q21 24 24 55q1 9 -11 13q-20 5 -34 24t-14 44q0 29 20.5 49.5t49.5 20.5t49.5 -20.5t20.5 -49.5z" />
    <glyph glyph-name="gcommaaccent" unicode="&#x123;" horiz-adv-x="425" 
d="M270 150v80q0 12 -4 16t-16 4h-10q-18 0 -24 6t-6 24v60q0 18 6 24t24 6h120q18 0 24 -6t6 -24v-185q0 -73 -47.5 -119t-127.5 -46t-127.5 46t-47.5 119v390q0 73 47.5 119t127.5 46t127.5 -46t47.5 -119v-55q0 -18 -6 -24t-24 -6h1h1h1h1h1v0h-1v0h-1h-1h-1h-1h-1h-1h-1
h-1h-2h-1h-1h-2h-1h-2h-1h-2h-2h-1h-2h-2h-2h-2h-2h-3h-2h-2h-3h-3h-2h-4h-3h-9q-18 0 -24 6t-6 24v60q0 17 -11.5 28.5t-28.5 11.5t-28.5 -11.5t-11.5 -28.5v-400q0 -17 11.5 -28.5t28.5 -11.5t28.5 11.5t11.5 28.5zM295 -140q0 -56 -23 -99.5t-50 -68.5q-13 -13 -24 0
l-8 11q-9 12 0 21q21 24 24 55q1 9 -11 13q-20 5 -34 24t-14 44q0 29 20.5 49.5t49.5 20.5t49.5 -20.5t20.5 -49.5z" />
    <glyph glyph-name="Imacron" unicode="&#x12a;" horiz-adv-x="350" 
d="M20 610v60q0 18 6 24t24 6h250q18 0 24 -6t6 -24v-60q0 -18 -6 -24t-24 -6h-30q-12 0 -16 -4t-4 -16v-420q0 -12 4 -16t16 -4h30q18 0 24 -6t6 -24v-60q0 -18 -6 -24t-24 -6h-250q-18 0 -24 6t-6 24v60q0 18 6 24t24 6h30q12 0 16 4t4 16v420q0 12 -4 16t-16 4h-30
q-18 0 -24 6t-6 24zM50 810v40q0 18 6 24t24 6h190q18 0 24 -6t6 -24v-40q0 -18 -6 -24t-24 -6h-190q-18 0 -24 6t-6 24z" />
    <glyph glyph-name="imacron" unicode="&#x12b;" horiz-adv-x="350" 
d="M20 610v60q0 18 6 24t24 6h250q18 0 24 -6t6 -24v-60q0 -18 -6 -24t-24 -6h-30q-12 0 -16 -4t-4 -16v-420q0 -12 4 -16t16 -4h30q18 0 24 -6t6 -24v-60q0 -18 -6 -24t-24 -6h-250q-18 0 -24 6t-6 24v60q0 18 6 24t24 6h30q12 0 16 4t4 16v420q0 12 -4 16t-16 4h-30
q-18 0 -24 6t-6 24zM50 810v40q0 18 6 24t24 6h190q18 0 24 -6t6 -24v-40q0 -18 -6 -24t-24 -6h-190q-18 0 -24 6t-6 24z" />
    <glyph glyph-name="Iogonek" unicode="&#x12e;" horiz-adv-x="350" 
d="M236 0h-186q-18 0 -24 6t-6 24v60q0 18 6 24t24 6h30q12 0 16 4t4 16v420q0 12 -4 16t-16 4h-30q-18 0 -24 6t-6 24v60q0 18 6 24t24 6h250q18 0 24 -6t6 -24v-60q0 -18 -6 -24t-24 -6h-30q-12 0 -16 -4t-4 -16v-420q0 -12 4 -16t16 -4h30q18 0 24 -6t6 -24v-60
q0 -30 -22 -50q-68 -65 -68 -120q0 -20 20 -20h35q15 0 20 -5t5 -20v-20q0 -15 -5 -20t-20 -5h-35q-44 0 -72 26t-28 64q0 77 79 133q10 7 -3 7z" />
    <glyph glyph-name="iogonek" unicode="&#x12f;" horiz-adv-x="350" 
d="M236 0h-186q-18 0 -24 6t-6 24v60q0 18 6 24t24 6h30q12 0 16 4t4 16v420q0 12 -4 16t-16 4h-30q-18 0 -24 6t-6 24v60q0 18 6 24t24 6h250q18 0 24 -6t6 -24v-60q0 -18 -6 -24t-24 -6h-30q-12 0 -16 -4t-4 -16v-420q0 -12 4 -16t16 -4h30q18 0 24 -6t6 -24v-60
q0 -30 -22 -50q-68 -65 -68 -120q0 -20 20 -20h35q15 0 20 -5t5 -20v-20q0 -15 -5 -20t-20 -5h-35q-44 0 -72 26t-28 64q0 77 79 133q10 7 -3 7z" />
    <glyph glyph-name="Idotaccent" unicode="&#x130;" horiz-adv-x="350" 
d="M20 610v60q0 18 6 24t24 6h250q18 0 24 -6t6 -24v-60q0 -18 -6 -24t-24 -6h-30q-12 0 -16 -4t-4 -16v-420q0 -12 4 -16t16 -4h30q18 0 24 -6t6 -24v-60q0 -18 -6 -24t-24 -6h-250q-18 0 -24 6t-6 24v60q0 18 6 24t24 6h30q12 0 16 4t4 16v420q0 12 -4 16t-16 4h-30
q-18 0 -24 6t-6 24zM255 830q0 -34 -23 -57t-57 -23t-57 23t-23 57t23 57t57 23t57 -23t23 -57z" />
    <glyph glyph-name="dotlessi" unicode="&#x131;" horiz-adv-x="350" 
d="M20 610v60q0 18 6 24t24 6h250q18 0 24 -6t6 -24v-60q0 -18 -6 -24t-24 -6h-30q-12 0 -16 -4t-4 -16v-420q0 -12 4 -16t16 -4h30q18 0 24 -6t6 -24v-60q0 -18 -6 -24t-24 -6h-250q-18 0 -24 6t-6 24v60q0 18 6 24t24 6h30q12 0 16 4t4 16v420q0 12 -4 16t-16 4h-30
q-18 0 -24 6t-6 24z" />
    <glyph glyph-name="Kcommaaccent" unicode="&#x136;" horiz-adv-x="440" 
d="M400 255v-225q0 -18 -6 -24t-24 -6h-90q-18 0 -24 6t-6 24v235q0 15 -10 25t-25 10h-10q-9 0 -12 -3t-3 -12v-255q0 -18 -6 -24t-24 -6h-90q-18 0 -24 6t-6 24v640q0 18 6 24t24 6h90q18 0 24 -6t6 -24v-235q0 -9 3 -12t12 -3h10q15 0 25 10t10 25v215q0 18 6 24t24 6h90
q18 0 24 -6t6 -24v-205q0 -40 -17.5 -65t-34.5 -30l-18 -5v-10q3 0 7.5 -1.5t16.5 -8t21.5 -16.5t17 -29.5t7.5 -44.5zM290 -140q0 -56 -23 -99.5t-50 -68.5q-13 -13 -24 0l-8 11q-9 12 0 21q21 24 24 55q1 9 -11 13q-20 5 -34 24t-14 44q0 29 20.5 49.5t49.5 20.5
t49.5 -20.5t20.5 -49.5z" />
    <glyph glyph-name="kcommaaccent" unicode="&#x137;" horiz-adv-x="440" 
d="M400 255v-225q0 -18 -6 -24t-24 -6h-90q-18 0 -24 6t-6 24v235q0 15 -10 25t-25 10h-10q-9 0 -12 -3t-3 -12v-255q0 -18 -6 -24t-24 -6h-90q-18 0 -24 6t-6 24v640q0 18 6 24t24 6h90q18 0 24 -6t6 -24v-235q0 -9 3 -12t12 -3h10q15 0 25 10t10 25v215q0 18 6 24t24 6h90
q18 0 24 -6t6 -24v-205q0 -40 -17.5 -65t-34.5 -30l-18 -5v-10q3 0 7.5 -1.5t16.5 -8t21.5 -16.5t17 -29.5t7.5 -44.5zM290 -140q0 -56 -23 -99.5t-50 -68.5q-13 -13 -24 0l-8 11q-9 12 0 21q21 24 24 55q1 9 -11 13q-20 5 -34 24t-14 44q0 29 20.5 49.5t49.5 20.5
t49.5 -20.5t20.5 -49.5z" />
    <glyph glyph-name="Lacute" unicode="&#x139;" horiz-adv-x="350" 
d="M40 30v640q0 18 6 24t24 6h90q18 0 24 -6t6 -24v-530q0 -12 4 -16t16 -4h100q18 0 24 -6t6 -24v-60q0 -18 -6 -24t-24 -6h-240q-18 0 -24 6t-6 24zM237 913l-64 -126q-7 -16 -16 -21.5t-27 -5.5h-30q-18 0 -23 6t-1 23l27 122q5 17 12 23t25 6h80q18 0 21.5 -5t-4.5 -22z
" />
    <glyph glyph-name="lacute" unicode="&#x13a;" horiz-adv-x="350" 
d="M40 30v640q0 18 6 24t24 6h90q18 0 24 -6t6 -24v-530q0 -12 4 -16t16 -4h100q18 0 24 -6t6 -24v-60q0 -18 -6 -24t-24 -6h-240q-18 0 -24 6t-6 24zM237 913l-64 -126q-7 -16 -16 -21.5t-27 -5.5h-30q-18 0 -23 6t-1 23l27 122q5 17 12 23t25 6h80q18 0 21.5 -5t-4.5 -22z
" />
    <glyph glyph-name="Lcommaaccent" unicode="&#x13b;" horiz-adv-x="350" 
d="M40 30v640q0 18 6 24t24 6h90q18 0 24 -6t6 -24v-530q0 -12 4 -16t16 -4h100q18 0 24 -6t6 -24v-60q0 -18 -6 -24t-24 -6h-240q-18 0 -24 6t-6 24zM260 -140q0 -56 -23 -99.5t-50 -68.5q-13 -13 -24 0l-8 11q-9 12 0 21q21 24 24 55q1 9 -11 13q-20 5 -34 24t-14 44
q0 29 20.5 49.5t49.5 20.5t49.5 -20.5t20.5 -49.5z" />
    <glyph glyph-name="lcommaaccent" unicode="&#x13c;" horiz-adv-x="350" 
d="M40 30v640q0 18 6 24t24 6h90q18 0 24 -6t6 -24v-530q0 -12 4 -16t16 -4h100q18 0 24 -6t6 -24v-60q0 -18 -6 -24t-24 -6h-240q-18 0 -24 6t-6 24zM260 -140q0 -56 -23 -99.5t-50 -68.5q-13 -13 -24 0l-8 11q-9 12 0 21q21 24 24 55q1 9 -11 13q-20 5 -34 24t-14 44
q0 29 20.5 49.5t49.5 20.5t49.5 -20.5t20.5 -49.5z" />
    <glyph glyph-name="Lcaron" unicode="&#x13d;" horiz-adv-x="380" 
d="M40 30v640q0 18 6 24t24 6h90q18 0 24 -6t6 -24v-530q0 -12 4 -16t16 -4h100q18 0 24 -6t6 -24v-60q0 -18 -6 -24t-24 -6h-240q-18 0 -24 6t-6 24zM360 640q0 -56 -23 -99.5t-50 -68.5q-13 -13 -24 0l-8 11q-9 12 0 21q21 24 24 55q1 9 -11 13q-20 5 -34 24t-14 44
q0 29 20.5 49.5t49.5 20.5t49.5 -20.5t20.5 -49.5z" />
    <glyph glyph-name="lcaron" unicode="&#x13e;" horiz-adv-x="380" 
d="M40 30v640q0 18 6 24t24 6h90q18 0 24 -6t6 -24v-530q0 -12 4 -16t16 -4h100q18 0 24 -6t6 -24v-60q0 -18 -6 -24t-24 -6h-240q-18 0 -24 6t-6 24zM360 640q0 -56 -23 -99.5t-50 -68.5q-13 -13 -24 0l-8 11q-9 12 0 21q21 24 24 55q1 9 -11 13q-20 5 -34 24t-14 44
q0 29 20.5 49.5t49.5 20.5t49.5 -20.5t20.5 -49.5z" />
    <glyph glyph-name="Lslash" unicode="&#x141;" horiz-adv-x="395" 
d="M10 240v80q0 18 5 27t21 18l32 20q17 10 17 30v255q0 18 6 24t24 6h90q18 0 24 -6t6 -24v-165q0 -12 3.5 -14t13.5 4l32 20q16 9 21 6t5 -21v-90q0 -18 -5 -27t-21 -18l-32 -18q-17 -10 -17 -30v-177q0 -12 4 -16t16 -4h100q18 0 24 -6t6 -24v-60q0 -18 -6 -24t-24 -6
h-240q-18 0 -24 6t-6 24v202q0 12 -3.5 14t-13.5 -4l-32 -18q-16 -8 -21 -5t-5 21z" />
    <glyph glyph-name="lslash" unicode="&#x142;" horiz-adv-x="395" 
d="M10 240v80q0 18 5 27t21 18l32 20q17 10 17 30v255q0 18 6 24t24 6h90q18 0 24 -6t6 -24v-165q0 -12 3.5 -14t13.5 4l32 20q16 9 21 6t5 -21v-90q0 -18 -5 -27t-21 -18l-32 -18q-17 -10 -17 -30v-177q0 -12 4 -16t16 -4h100q18 0 24 -6t6 -24v-60q0 -18 -6 -24t-24 -6
h-240q-18 0 -24 6t-6 24v202q0 12 -3.5 14t-13.5 -4l-32 -18q-16 -8 -21 -5t-5 21z" />
    <glyph glyph-name="Nacute" unicode="&#x143;" 
d="M160 290v-260q0 -18 -6 -24t-24 -6h-60q-18 0 -24 6t-6 24v640q0 18 6 24t24 6h70q18 0 26 -6t13 -23l81 -261h10v260q0 18 6 24t24 6h60q18 0 24 -6t6 -24v-640q0 -18 -6 -24t-24 -6h-70q-18 0 -26 6t-13 23l-81 261h-10zM337 903l-64 -126q-7 -16 -16 -21.5t-27 -5.5
h-30q-18 0 -23 6t-1 23l27 122q5 17 12 23t25 6h80q18 0 21.5 -5t-4.5 -22z" />
    <glyph glyph-name="nacute" unicode="&#x144;" 
d="M160 290v-260q0 -18 -6 -24t-24 -6h-60q-18 0 -24 6t-6 24v640q0 18 6 24t24 6h70q18 0 26 -6t13 -23l81 -261h10v260q0 18 6 24t24 6h60q18 0 24 -6t6 -24v-640q0 -18 -6 -24t-24 -6h-70q-18 0 -26 6t-13 23l-81 261h-10zM337 903l-64 -126q-7 -16 -16 -21.5t-27 -5.5
h-30q-18 0 -23 6t-1 23l27 122q5 17 12 23t25 6h80q18 0 21.5 -5t-4.5 -22z" />
    <glyph glyph-name="Ncommaaccent" unicode="&#x145;" 
d="M160 290v-260q0 -18 -6 -24t-24 -6h-60q-18 0 -24 6t-6 24v640q0 18 6 24t24 6h70q18 0 26 -6t13 -23l81 -261h10v260q0 18 6 24t24 6h60q18 0 24 -6t6 -24v-640q0 -18 -6 -24t-24 -6h-70q-18 0 -26 6t-13 23l-81 261h-10zM290 -140q0 -56 -23 -99.5t-50 -68.5
q-13 -13 -24 0l-8 11q-9 12 0 21q21 24 24 55q1 9 -11 13q-20 5 -34 24t-14 44q0 29 20.5 49.5t49.5 20.5t49.5 -20.5t20.5 -49.5z" />
    <glyph glyph-name="ncommaaccent" unicode="&#x146;" 
d="M160 290v-260q0 -18 -6 -24t-24 -6h-60q-18 0 -24 6t-6 24v640q0 18 6 24t24 6h70q18 0 26 -6t13 -23l81 -261h10v260q0 18 6 24t24 6h60q18 0 24 -6t6 -24v-640q0 -18 -6 -24t-24 -6h-70q-18 0 -26 6t-13 23l-81 261h-10zM290 -140q0 -56 -23 -99.5t-50 -68.5
q-13 -13 -24 0l-8 11q-9 12 0 21q21 24 24 55q1 9 -11 13q-20 5 -34 24t-14 44q0 29 20.5 49.5t49.5 20.5t49.5 -20.5t20.5 -49.5z" />
    <glyph glyph-name="Ncaron" unicode="&#x147;" 
d="M160 290v-260q0 -18 -6 -24t-24 -6h-60q-18 0 -24 6t-6 24v640q0 18 6 24t24 6h70q18 0 26 -6t13 -23l81 -261h10v260q0 18 6 24t24 6h60q18 0 24 -6t6 -24v-640q0 -18 -6 -24t-24 -6h-70q-18 0 -26 6t-13 23l-81 261h-10zM241 750h-51q-18 0 -27 5t-19 20l-62 100
q-10 15 -7 20t21 5h60q18 0 26 -5.5t15 -22.5l16 -42h5l16 42q7 17 15 22.5t26 5.5h60q18 0 21 -5t-7 -20l-62 -100q-10 -15 -19 -20t-27 -5z" />
    <glyph glyph-name="ncaron" unicode="&#x148;" 
d="M160 290v-260q0 -18 -6 -24t-24 -6h-60q-18 0 -24 6t-6 24v640q0 18 6 24t24 6h70q18 0 26 -6t13 -23l81 -261h10v260q0 18 6 24t24 6h60q18 0 24 -6t6 -24v-640q0 -18 -6 -24t-24 -6h-70q-18 0 -26 6t-13 23l-81 261h-10zM241 750h-51q-18 0 -27 5t-19 20l-62 100
q-10 15 -7 20t21 5h60q18 0 26 -5.5t15 -22.5l16 -42h5l16 42q7 17 15 22.5t26 5.5h60q18 0 21 -5t-7 -20l-62 -100q-10 -15 -19 -20t-27 -5z" />
    <glyph glyph-name="Omacron" unicode="&#x14c;" horiz-adv-x="450" 
d="M190 555v-410q0 -15 10 -25t25 -10t25 10t10 25v410q0 15 -10 25t-25 10t-25 -10t-10 -25zM40 165v370q0 79 49.5 127t135.5 48t135.5 -48t49.5 -127v-370q0 -79 -49.5 -127t-135.5 -48t-135.5 48t-49.5 127zM100 810v40q0 18 6 24t24 6h190q18 0 24 -6t6 -24v-40
q0 -18 -6 -24t-24 -6h-190q-18 0 -24 6t-6 24z" />
    <glyph glyph-name="omacron" unicode="&#x14d;" horiz-adv-x="450" 
d="M190 555v-410q0 -15 10 -25t25 -10t25 10t10 25v410q0 15 -10 25t-25 10t-25 -10t-10 -25zM40 165v370q0 79 49.5 127t135.5 48t135.5 -48t49.5 -127v-370q0 -79 -49.5 -127t-135.5 -48t-135.5 48t-49.5 127zM100 810v40q0 18 6 24t24 6h190q18 0 24 -6t6 -24v-40
q0 -18 -6 -24t-24 -6h-190q-18 0 -24 6t-6 24z" />
    <glyph glyph-name="Ohungarumlaut" unicode="&#x150;" horiz-adv-x="450" 
d="M190 555v-410q0 -15 10 -25t25 -10t25 10t10 25v410q0 15 -10 25t-25 10t-25 -10t-10 -25zM40 165v370q0 79 49.5 127t135.5 48t135.5 -48t49.5 -127v-370q0 -79 -49.5 -127t-135.5 -48t-135.5 48t-49.5 127zM253 912l-48 -124q-7 -17 -15 -22.5t-26 -5.5h-20
q-18 0 -23 6t-2 24l20 120q3 18 10 24t25 6h60q18 0 22 -6t-3 -22zM393 912l-48 -124q-7 -17 -15 -22.5t-26 -5.5h-20q-18 0 -23 6t-2 24l20 120q3 18 10 24t25 6h60q18 0 22 -6t-3 -22z" />
    <glyph glyph-name="ohungarumlaut" unicode="&#x151;" horiz-adv-x="450" 
d="M190 555v-410q0 -15 10 -25t25 -10t25 10t10 25v410q0 15 -10 25t-25 10t-25 -10t-10 -25zM40 165v370q0 79 49.5 127t135.5 48t135.5 -48t49.5 -127v-370q0 -79 -49.5 -127t-135.5 -48t-135.5 48t-49.5 127zM253 912l-48 -124q-7 -17 -15 -22.5t-26 -5.5h-20
q-18 0 -23 6t-2 24l20 120q3 18 10 24t25 6h60q18 0 22 -6t-3 -22zM393 912l-48 -124q-7 -17 -15 -22.5t-26 -5.5h-20q-18 0 -23 6t-2 24l20 120q3 18 10 24t25 6h60q18 0 22 -6t-3 -22z" />
    <glyph glyph-name="OE" unicode="&#x152;" horiz-adv-x="581" 
d="M531 0h-306q-86 0 -135.5 48t-49.5 127v350q0 79 49.5 127t135.5 48h306q18 0 24 -6t6 -24v-60q0 -18 -6 -24t-24 -6h-110q-12 0 -16 -4t-4 -16v-120q0 -12 4 -16t16 -4h60q18 0 24 -6t6 -24v-60q0 -18 -6 -24t-24 -6h-60q-12 0 -16 -4t-4 -16v-140q0 -12 4 -16t16 -4
h110q18 0 24 -6t6 -24v-60q0 -18 -6 -24t-24 -6zM225 120h11q9 0 12 3t3 12v430q0 9 -3 12t-12 3h-11q-15 0 -25 -10t-10 -25v-390q0 -15 10 -25t25 -10z" />
    <glyph glyph-name="oe" unicode="&#x153;" horiz-adv-x="581" 
d="M531 0h-306q-86 0 -135.5 48t-49.5 127v350q0 79 49.5 127t135.5 48h306q18 0 24 -6t6 -24v-60q0 -18 -6 -24t-24 -6h-110q-12 0 -16 -4t-4 -16v-120q0 -12 4 -16t16 -4h60q18 0 24 -6t6 -24v-60q0 -18 -6 -24t-24 -6h-60q-12 0 -16 -4t-4 -16v-140q0 -12 4 -16t16 -4
h110q18 0 24 -6t6 -24v-60q0 -18 -6 -24t-24 -6zM225 120h11q9 0 12 3t3 12v430q0 9 -3 12t-12 3h-11q-15 0 -25 -10t-10 -25v-390q0 -15 10 -25t25 -10z" />
    <glyph glyph-name="Racute" unicode="&#x154;" horiz-adv-x="440" 
d="M205 395h10q15 0 25 10t10 25v115q0 15 -10 25t-25 10h-10q-9 0 -12 -3t-3 -12v-155q0 -9 3 -12t12 -3zM240 115v125q0 35 -25 35h-10q-9 0 -12 -3t-3 -12v-230q0 -18 -6 -24t-24 -6h-90q-18 0 -24 6t-6 24v640q0 18 6 24t24 6h145q86 0 135.5 -48t49.5 -127v-75
q0 -40 -17.5 -67.5t-34.5 -34.5l-18 -8v-10q2 -1 6.5 -3t14.5 -10t18 -19t14.5 -32t6.5 -46v-80q0 -15 6 -20.5t14 -5t14 -5t6 -19.5v-70q0 -15 -5 -20t-20 -5h-45q-64 0 -92 27.5t-28 92.5zM332 903l-64 -126q-7 -16 -16 -21.5t-27 -5.5h-30q-18 0 -23 6t-1 23l27 122
q5 17 12 23t25 6h80q18 0 21.5 -5t-4.5 -22z" />
    <glyph glyph-name="racute" unicode="&#x155;" horiz-adv-x="440" 
d="M205 395h10q15 0 25 10t10 25v115q0 15 -10 25t-25 10h-10q-9 0 -12 -3t-3 -12v-155q0 -9 3 -12t12 -3zM240 115v125q0 35 -25 35h-10q-9 0 -12 -3t-3 -12v-230q0 -18 -6 -24t-24 -6h-90q-18 0 -24 6t-6 24v640q0 18 6 24t24 6h145q86 0 135.5 -48t49.5 -127v-75
q0 -40 -17.5 -67.5t-34.5 -34.5l-18 -8v-10q2 -1 6.5 -3t14.5 -10t18 -19t14.5 -32t6.5 -46v-80q0 -15 6 -20.5t14 -5t14 -5t6 -19.5v-70q0 -15 -5 -20t-20 -5h-45q-64 0 -92 27.5t-28 92.5zM332 903l-64 -126q-7 -16 -16 -21.5t-27 -5.5h-30q-18 0 -23 6t-1 23l27 122
q5 17 12 23t25 6h80q18 0 21.5 -5t-4.5 -22z" />
    <glyph glyph-name="Rcommaaccent" unicode="&#x156;" horiz-adv-x="440" 
d="M205 395h10q15 0 25 10t10 25v115q0 15 -10 25t-25 10h-10q-9 0 -12 -3t-3 -12v-155q0 -9 3 -12t12 -3zM240 115v125q0 35 -25 35h-10q-9 0 -12 -3t-3 -12v-230q0 -18 -6 -24t-24 -6h-90q-18 0 -24 6t-6 24v640q0 18 6 24t24 6h145q86 0 135.5 -48t49.5 -127v-75
q0 -40 -17.5 -67.5t-34.5 -34.5l-18 -8v-10q2 -1 6.5 -3t14.5 -10t18 -19t14.5 -32t6.5 -46v-80q0 -15 6 -20.5t14 -5t14 -5t6 -19.5v-70q0 -15 -5 -20t-20 -5h-45q-64 0 -92 27.5t-28 92.5zM290 -140q0 -56 -23 -99.5t-50 -68.5q-13 -13 -24 0l-8 11q-9 12 0 21
q21 24 24 55q1 9 -11 13q-20 5 -34 24t-14 44q0 29 20.5 49.5t49.5 20.5t49.5 -20.5t20.5 -49.5z" />
    <glyph glyph-name="rcommaaccent" unicode="&#x157;" horiz-adv-x="440" 
d="M205 395h10q15 0 25 10t10 25v115q0 15 -10 25t-25 10h-10q-9 0 -12 -3t-3 -12v-155q0 -9 3 -12t12 -3zM240 115v125q0 35 -25 35h-10q-9 0 -12 -3t-3 -12v-230q0 -18 -6 -24t-24 -6h-90q-18 0 -24 6t-6 24v640q0 18 6 24t24 6h145q86 0 135.5 -48t49.5 -127v-75
q0 -40 -17.5 -67.5t-34.5 -34.5l-18 -8v-10q2 -1 6.5 -3t14.5 -10t18 -19t14.5 -32t6.5 -46v-80q0 -15 6 -20.5t14 -5t14 -5t6 -19.5v-70q0 -15 -5 -20t-20 -5h-45q-64 0 -92 27.5t-28 92.5zM290 -140q0 -56 -23 -99.5t-50 -68.5q-13 -13 -24 0l-8 11q-9 12 0 21
q21 24 24 55q1 9 -11 13q-20 5 -34 24t-14 44q0 29 20.5 49.5t49.5 20.5t49.5 -20.5t20.5 -49.5z" />
    <glyph glyph-name="Rcaron" unicode="&#x158;" horiz-adv-x="440" 
d="M205 395h10q15 0 25 10t10 25v115q0 15 -10 25t-25 10h-10q-9 0 -12 -3t-3 -12v-155q0 -9 3 -12t12 -3zM240 115v125q0 35 -25 35h-10q-9 0 -12 -3t-3 -12v-230q0 -18 -6 -24t-24 -6h-90q-18 0 -24 6t-6 24v640q0 18 6 24t24 6h145q86 0 135.5 -48t49.5 -127v-75
q0 -40 -17.5 -67.5t-34.5 -34.5l-18 -8v-10q2 -1 6.5 -3t14.5 -10t18 -19t14.5 -32t6.5 -46v-80q0 -15 6 -20.5t14 -5t14 -5t6 -19.5v-70q0 -15 -5 -20t-20 -5h-45q-64 0 -92 27.5t-28 92.5zM236 750h-51q-18 0 -27 5t-19 20l-62 100q-10 15 -7 20t21 5h60q18 0 26 -5.5
t15 -22.5l16 -42h5l16 42q7 17 15 22.5t26 5.5h60q18 0 21 -5t-7 -20l-62 -100q-10 -15 -19 -20t-27 -5z" />
    <glyph glyph-name="rcaron" unicode="&#x159;" horiz-adv-x="440" 
d="M205 395h10q15 0 25 10t10 25v115q0 15 -10 25t-25 10h-10q-9 0 -12 -3t-3 -12v-155q0 -9 3 -12t12 -3zM240 115v125q0 35 -25 35h-10q-9 0 -12 -3t-3 -12v-230q0 -18 -6 -24t-24 -6h-90q-18 0 -24 6t-6 24v640q0 18 6 24t24 6h145q86 0 135.5 -48t49.5 -127v-75
q0 -40 -17.5 -67.5t-34.5 -34.5l-18 -8v-10q2 -1 6.5 -3t14.5 -10t18 -19t14.5 -32t6.5 -46v-80q0 -15 6 -20.5t14 -5t14 -5t6 -19.5v-70q0 -15 -5 -20t-20 -5h-45q-64 0 -92 27.5t-28 92.5zM236 750h-51q-18 0 -27 5t-19 20l-62 100q-10 15 -7 20t21 5h60q18 0 26 -5.5
t15 -22.5l16 -42h5l16 42q7 17 15 22.5t26 5.5h60q18 0 21 -5t-7 -20l-62 -100q-10 -15 -19 -20t-27 -5z" />
    <glyph glyph-name="Sacute" unicode="&#x15a;" horiz-adv-x="400" 
d="M230 155q0 41 -20.5 77t-50 65.5t-59 61.5t-50 80t-20.5 106q0 73 47.5 119t127.5 46q79 0 127 -46t48 -119v-25q0 -18 -6 -24t-24 -6h1h1h1h1h1v0h-1v0h-1h-1h-1h-1h-1h-1h-1h-1h-2h-1h-1h-2h-1h-2h-1h-2h-2h-1h-2h-2h-2h-2h-2h-3h-2h-2h-3h-3h-2h-4h-3h-9q-18 0 -24 6
t-6 24v30q0 17 -11.5 28.5t-28.5 11.5t-28.5 -11.5t-11.5 -28.5q0 -41 20.5 -77t50 -65.5t59 -61.5t50 -80t20.5 -106q0 -77 -48.5 -123.5t-131.5 -46.5t-131.5 46.5t-48.5 123.5v30q0 18 6 24t24 6h-1h-1h-1h-1h-1v0h1v0h1h1h1h1h1h1h1h1h2h1h1h2h1h2h1h2h2h1h2h2h2h2h2h3
h2h2h3h3h2h4h3h9q18 0 24 -6t6 -24v-35q0 -19 13 -32t32 -13t32 13t13 32zM322 913l-64 -126q-7 -16 -16 -21.5t-27 -5.5h-30q-18 0 -23 6t-1 23l27 122q5 17 12 23t25 6h80q18 0 21.5 -5t-4.5 -22z" />
    <glyph glyph-name="sacute" unicode="&#x15b;" horiz-adv-x="400" 
d="M230 155q0 41 -20.5 77t-50 65.5t-59 61.5t-50 80t-20.5 106q0 73 47.5 119t127.5 46q79 0 127 -46t48 -119v-25q0 -18 -6 -24t-24 -6h1h1h1h1h1v0h-1v0h-1h-1h-1h-1h-1h-1h-1h-1h-2h-1h-1h-2h-1h-2h-1h-2h-2h-1h-2h-2h-2h-2h-2h-3h-2h-2h-3h-3h-2h-4h-3h-9q-18 0 -24 6
t-6 24v30q0 17 -11.5 28.5t-28.5 11.5t-28.5 -11.5t-11.5 -28.5q0 -41 20.5 -77t50 -65.5t59 -61.5t50 -80t20.5 -106q0 -77 -48.5 -123.5t-131.5 -46.5t-131.5 46.5t-48.5 123.5v30q0 18 6 24t24 6h-1h-1h-1h-1h-1v0h1v0h1h1h1h1h1h1h1h1h2h1h1h2h1h2h1h2h2h1h2h2h2h2h2h3
h2h2h3h3h2h4h3h9q18 0 24 -6t6 -24v-35q0 -19 13 -32t32 -13t32 13t13 32zM322 913l-64 -126q-7 -16 -16 -21.5t-27 -5.5h-30q-18 0 -23 6t-1 23l27 122q5 17 12 23t25 6h80q18 0 21.5 -5t-4.5 -22z" />
    <glyph glyph-name="Scedilla" unicode="&#x15e;" horiz-adv-x="400" 
d="M138 -2q-56 16 -87 58.5t-31 103.5v30q0 18 6 24t24 6h-1h-1h-1h-1h-1v0h1v0h1h1h1h1h1h1h1h1h2h1h1h2h1h2h1h2h2h1h2h2h2h2h2h3h2h2h3h3h2h4h3h9q18 0 24 -6t6 -24v-35q0 -19 13 -32t32 -13t32 13t13 32q0 41 -20.5 77t-50 65.5t-59 61.5t-50 80t-20.5 106
q0 73 47.5 119t127.5 46q79 0 127 -46t48 -119v-25q0 -18 -6 -24t-24 -6h1h1h1h1h1v0h-1v0h-1h-1h-1h-1h-1h-1h-1h-1h-2h-1h-1h-2h-1h-2h-1h-2h-2h-1h-2h-2h-2h-2h-2h-3h-2h-2h-3h-3h-2h-4h-3h-9q-18 0 -24 6t-6 24v30q0 17 -11.5 28.5t-28.5 11.5t-28.5 -11.5t-11.5 -28.5
q0 -41 20.5 -77t50 -65.5t59 -61.5t50 -80t20.5 -106q0 -66 -36.5 -110.5t-101.5 -55.5q-13 -3 -14 -14l-2 -21q-1 -8 7 -10q15 -2 29 -8t28.5 -27.5t14.5 -53.5v-20q0 -38 -28 -64t-72 -26h-55q-15 0 -20 5t-5 20v20q0 15 5 20t20 5h55q20 0 20 20v20q0 20 -20 20h-45
q-15 0 -19 5t-2 20l9 75q2 15 -10 18z" />
    <glyph glyph-name="scedilla" unicode="&#x15f;" horiz-adv-x="400" 
d="M138 -2q-56 16 -87 58.5t-31 103.5v30q0 18 6 24t24 6h-1h-1h-1h-1h-1v0h1v0h1h1h1h1h1h1h1h1h2h1h1h2h1h2h1h2h2h1h2h2h2h2h2h3h2h2h3h3h2h4h3h9q18 0 24 -6t6 -24v-35q0 -19 13 -32t32 -13t32 13t13 32q0 41 -20.5 77t-50 65.5t-59 61.5t-50 80t-20.5 106
q0 73 47.5 119t127.5 46q79 0 127 -46t48 -119v-25q0 -18 -6 -24t-24 -6h1h1h1h1h1v0h-1v0h-1h-1h-1h-1h-1h-1h-1h-1h-2h-1h-1h-2h-1h-2h-1h-2h-2h-1h-2h-2h-2h-2h-2h-3h-2h-2h-3h-3h-2h-4h-3h-9q-18 0 -24 6t-6 24v30q0 17 -11.5 28.5t-28.5 11.5t-28.5 -11.5t-11.5 -28.5
q0 -41 20.5 -77t50 -65.5t59 -61.5t50 -80t20.5 -106q0 -66 -36.5 -110.5t-101.5 -55.5q-13 -3 -14 -14l-2 -21q-1 -8 7 -10q15 -2 29 -8t28.5 -27.5t14.5 -53.5v-20q0 -38 -28 -64t-72 -26h-55q-15 0 -20 5t-5 20v20q0 15 5 20t20 5h55q20 0 20 20v20q0 20 -20 20h-45
q-15 0 -19 5t-2 20l9 75q2 15 -10 18z" />
    <glyph glyph-name="Scaron" unicode="&#x160;" horiz-adv-x="400" 
d="M230 155q0 41 -20.5 77t-50 65.5t-59 61.5t-50 80t-20.5 106q0 73 47.5 119t127.5 46q79 0 127 -46t48 -119v-25q0 -18 -6 -24t-24 -6h1h1h1h1h1v0h-1v0h-1h-1h-1h-1h-1h-1h-1h-1h-2h-1h-1h-2h-1h-2h-1h-2h-2h-1h-2h-2h-2h-2h-2h-3h-2h-2h-3h-3h-2h-4h-3h-9q-18 0 -24 6
t-6 24v30q0 17 -11.5 28.5t-28.5 11.5t-28.5 -11.5t-11.5 -28.5q0 -41 20.5 -77t50 -65.5t59 -61.5t50 -80t20.5 -106q0 -77 -48.5 -123.5t-131.5 -46.5t-131.5 46.5t-48.5 123.5v30q0 18 6 24t24 6h-1h-1h-1h-1h-1v0h1v0h1h1h1h1h1h1h1h1h2h1h1h2h1h2h1h2h2h1h2h2h2h2h2h3
h2h2h3h3h2h4h3h9q18 0 24 -6t6 -24v-35q0 -19 13 -32t32 -13t32 13t13 32zM226 760h-51q-18 0 -27 5t-19 20l-62 100q-10 15 -7 20t21 5h60q18 0 26 -5.5t15 -22.5l16 -42h5l16 42q7 17 15 22.5t26 5.5h60q18 0 21 -5t-7 -20l-62 -100q-10 -15 -19 -20t-27 -5z" />
    <glyph glyph-name="scaron" unicode="&#x161;" horiz-adv-x="400" 
d="M230 155q0 41 -20.5 77t-50 65.5t-59 61.5t-50 80t-20.5 106q0 73 47.5 119t127.5 46q79 0 127 -46t48 -119v-25q0 -18 -6 -24t-24 -6h1h1h1h1h1v0h-1v0h-1h-1h-1h-1h-1h-1h-1h-1h-2h-1h-1h-2h-1h-2h-1h-2h-2h-1h-2h-2h-2h-2h-2h-3h-2h-2h-3h-3h-2h-4h-3h-9q-18 0 -24 6
t-6 24v30q0 17 -11.5 28.5t-28.5 11.5t-28.5 -11.5t-11.5 -28.5q0 -41 20.5 -77t50 -65.5t59 -61.5t50 -80t20.5 -106q0 -77 -48.5 -123.5t-131.5 -46.5t-131.5 46.5t-48.5 123.5v30q0 18 6 24t24 6h-1h-1h-1h-1h-1v0h1v0h1h1h1h1h1h1h1h1h2h1h1h2h1h2h1h2h2h1h2h2h2h2h2h3
h2h2h3h3h2h4h3h9q18 0 24 -6t6 -24v-35q0 -19 13 -32t32 -13t32 13t13 32zM226 760h-51q-18 0 -27 5t-19 20l-62 100q-10 15 -7 20t21 5h60q18 0 26 -5.5t15 -22.5l16 -42h5l16 42q7 17 15 22.5t26 5.5h60q18 0 21 -5t-7 -20l-62 -100q-10 -15 -19 -20t-27 -5z" />
    <glyph glyph-name="Tcommaaccent" unicode="&#x162;" horiz-adv-x="390" 
d="M10 610v60q0 18 6 24t24 6h310q18 0 24 -6t6 -24v-60q0 -18 -6 -24t-24 -6h-60q-12 0 -16 -4t-4 -16v-530q0 -18 -6 -24t-24 -6h-90q-18 0 -24 6t-6 24v530q0 12 -4 16t-16 4h-60q-18 0 -24 6t-6 24zM265 -140q0 -56 -23 -99.5t-50 -68.5q-13 -13 -24 0l-8 11q-9 12 0 21
q21 24 24 55q1 9 -11 13q-20 5 -34 24t-14 44q0 29 20.5 49.5t49.5 20.5t49.5 -20.5t20.5 -49.5z" />
    <glyph glyph-name="tcommaaccent" unicode="&#x163;" horiz-adv-x="390" 
d="M10 610v60q0 18 6 24t24 6h310q18 0 24 -6t6 -24v-60q0 -18 -6 -24t-24 -6h-60q-12 0 -16 -4t-4 -16v-530q0 -18 -6 -24t-24 -6h-90q-18 0 -24 6t-6 24v530q0 12 -4 16t-16 4h-60q-18 0 -24 6t-6 24zM265 -140q0 -56 -23 -99.5t-50 -68.5q-13 -13 -24 0l-8 11q-9 12 0 21
q21 24 24 55q1 9 -11 13q-20 5 -34 24t-14 44q0 29 20.5 49.5t49.5 20.5t49.5 -20.5t20.5 -49.5z" />
    <glyph glyph-name="Tcaron" unicode="&#x164;" horiz-adv-x="390" 
d="M10 610v60q0 18 6 24t24 6h310q18 0 24 -6t6 -24v-60q0 -18 -6 -24t-24 -6h-60q-12 0 -16 -4t-4 -16v-530q0 -18 -6 -24t-24 -6h-90q-18 0 -24 6t-6 24v530q0 12 -4 16t-16 4h-60q-18 0 -24 6t-6 24zM221 750h-51q-18 0 -27 5t-19 20l-62 100q-10 15 -7 20t21 5h60
q18 0 26 -5.5t15 -22.5l16 -42h5l16 42q7 17 15 22.5t26 5.5h60q18 0 21 -5t-7 -20l-62 -100q-10 -15 -19 -20t-27 -5z" />
    <glyph glyph-name="tcaron" unicode="&#x165;" horiz-adv-x="390" 
d="M10 610v60q0 18 6 24t24 6h310q18 0 24 -6t6 -24v-60q0 -18 -6 -24t-24 -6h-60q-12 0 -16 -4t-4 -16v-530q0 -18 -6 -24t-24 -6h-90q-18 0 -24 6t-6 24v530q0 12 -4 16t-16 4h-60q-18 0 -24 6t-6 24zM221 750h-51q-18 0 -27 5t-19 20l-62 100q-10 15 -7 20t21 5h60
q18 0 26 -5.5t15 -22.5l16 -42h5l16 42q7 17 15 22.5t26 5.5h60q18 0 21 -5t-7 -20l-62 -100q-10 -15 -19 -20t-27 -5z" />
    <glyph glyph-name="Umacron" unicode="&#x16a;" 
d="M270 150v520q0 18 6 24t24 6h60q18 0 24 -6t6 -24v-515q0 -73 -47.5 -119t-127.5 -46t-127.5 46t-47.5 119v515q0 18 6 24t24 6h90q18 0 24 -6t6 -24v-520q0 -17 11.5 -28.5t28.5 -11.5t28.5 11.5t11.5 28.5zM90 810v40q0 18 6 24t24 6h190q18 0 24 -6t6 -24v-40
q0 -18 -6 -24t-24 -6h-190q-18 0 -24 6t-6 24z" />
    <glyph glyph-name="umacron" unicode="&#x16b;" 
d="M270 150v520q0 18 6 24t24 6h60q18 0 24 -6t6 -24v-515q0 -73 -47.5 -119t-127.5 -46t-127.5 46t-47.5 119v515q0 18 6 24t24 6h90q18 0 24 -6t6 -24v-520q0 -17 11.5 -28.5t28.5 -11.5t28.5 11.5t11.5 28.5zM90 810v40q0 18 6 24t24 6h190q18 0 24 -6t6 -24v-40
q0 -18 -6 -24t-24 -6h-190q-18 0 -24 6t-6 24z" />
    <glyph glyph-name="Uring" unicode="&#x16e;" 
d="M270 150v520q0 18 6 24t24 6h60q18 0 24 -6t6 -24v-515q0 -73 -47.5 -119t-127.5 -46t-127.5 46t-47.5 119v515q0 18 6 24t24 6h90q18 0 24 -6t6 -24v-520q0 -17 11.5 -28.5t28.5 -11.5t28.5 11.5t11.5 28.5zM110 860q0 49 31 79.5t79 30.5t79 -30.5t31 -79.5t-31 -79.5
t-79 -30.5t-79 30.5t-31 79.5zM185 860q0 -15 10 -25.5t25 -10.5t25 10.5t10 25.5t-10 25.5t-25 10.5t-25 -10.5t-10 -25.5z" />
    <glyph glyph-name="uring" unicode="&#x16f;" 
d="M270 150v520q0 18 6 24t24 6h60q18 0 24 -6t6 -24v-515q0 -73 -47.5 -119t-127.5 -46t-127.5 46t-47.5 119v515q0 18 6 24t24 6h90q18 0 24 -6t6 -24v-520q0 -17 11.5 -28.5t28.5 -11.5t28.5 11.5t11.5 28.5zM110 860q0 49 31 79.5t79 30.5t79 -30.5t31 -79.5t-31 -79.5
t-79 -30.5t-79 30.5t-31 79.5zM185 860q0 -15 10 -25.5t25 -10.5t25 10.5t10 25.5t-10 25.5t-25 10.5t-25 -10.5t-10 -25.5z" />
    <glyph glyph-name="Uhungarumlaut" unicode="&#x170;" 
d="M270 150v520q0 18 6 24t24 6h60q18 0 24 -6t6 -24v-515q0 -73 -47.5 -119t-127.5 -46t-127.5 46t-47.5 119v515q0 18 6 24t24 6h90q18 0 24 -6t6 -24v-520q0 -17 11.5 -28.5t28.5 -11.5t28.5 11.5t11.5 28.5zM244 902l-48 -124q-7 -17 -15 -22.5t-26 -5.5h-20
q-18 0 -23 6t-2 24l20 120q3 18 10 24t25 6h60q18 0 22 -6t-3 -22zM384 902l-48 -124q-7 -17 -15 -22.5t-26 -5.5h-20q-18 0 -23 6t-2 24l20 120q3 18 10 24t25 6h60q18 0 22 -6t-3 -22z" />
    <glyph glyph-name="uhungarumlaut" unicode="&#x171;" 
d="M270 150v520q0 18 6 24t24 6h60q18 0 24 -6t6 -24v-515q0 -73 -47.5 -119t-127.5 -46t-127.5 46t-47.5 119v515q0 18 6 24t24 6h90q18 0 24 -6t6 -24v-520q0 -17 11.5 -28.5t28.5 -11.5t28.5 11.5t11.5 28.5zM244 902l-48 -124q-7 -17 -15 -22.5t-26 -5.5h-20
q-18 0 -23 6t-2 24l20 120q3 18 10 24t25 6h60q18 0 22 -6t-3 -22zM384 902l-48 -124q-7 -17 -15 -22.5t-26 -5.5h-20q-18 0 -23 6t-2 24l20 120q3 18 10 24t25 6h60q18 0 22 -6t-3 -22z" />
    <glyph glyph-name="Uogonek" unicode="&#x172;" 
d="M230 -230q-44 0 -72 26t-28 64q0 65 61 119q4 3 3.5 7.5t-6.5 5.5q-69 9 -108.5 52.5t-39.5 110.5v515q0 18 6 24t24 6h90q18 0 24 -6t6 -24v-520q0 -17 11.5 -28.5t28.5 -11.5t28.5 11.5t11.5 28.5v520q0 18 6 24t24 6h60q18 0 24 -6t6 -24v-515q0 -46 -18 -78t-65 -72
l-5 -4q-5 -4 -11.5 -9.5t-15.5 -14t-17.5 -18t-17.5 -21.5t-15.5 -24t-10.5 -26.5t-4 -27.5q0 -20 20 -20h35q15 0 20 -5t5 -20v-20q0 -15 -5 -20t-20 -5h-35z" />
    <glyph glyph-name="uogonek" unicode="&#x173;" 
d="M230 -230q-44 0 -72 26t-28 64q0 65 61 119q4 3 3.5 7.5t-6.5 5.5q-69 9 -108.5 52.5t-39.5 110.5v515q0 18 6 24t24 6h90q18 0 24 -6t6 -24v-520q0 -17 11.5 -28.5t28.5 -11.5t28.5 11.5t11.5 28.5v520q0 18 6 24t24 6h60q18 0 24 -6t6 -24v-515q0 -46 -18 -78t-65 -72
l-5 -4q-5 -4 -11.5 -9.5t-15.5 -14t-17.5 -18t-17.5 -21.5t-15.5 -24t-10.5 -26.5t-4 -27.5q0 -20 20 -20h35q15 0 20 -5t5 -20v-20q0 -15 -5 -20t-20 -5h-35z" />
    <glyph glyph-name="Ydieresis" unicode="&#x178;" horiz-adv-x="392" 
d="M271 160v-130q0 -18 -6 -24t-24 -6h-90q-18 0 -24 6t-6 24v130q0 32 -7 59l-101 452q-4 17 0.5 23t22.5 6h105q18 0 24.5 -6t9.5 -24l31 -210h10l31 210q3 18 9.5 24t24.5 6h75q18 0 22.5 -6t0.5 -23l-101 -452q-7 -27 -7 -59zM51 835q0 29 18.5 47t46.5 18t46.5 -18
t18.5 -47t-18.5 -47t-46.5 -18t-46.5 18t-18.5 47zM221 835q0 29 18.5 47t46.5 18t46.5 -18t18.5 -47t-18.5 -47t-46.5 -18t-46.5 18t-18.5 47z" />
    <glyph glyph-name="Zacute" unicode="&#x179;" horiz-adv-x="380" 
d="M20 610v60q0 18 6 24t24 6h280q18 0 24 -6t6 -24v-70q0 -32 -12 -58l-164 -394q-5 -10 -2.5 -14t14.5 -4h134q18 0 24 -6t6 -24v-70q0 -18 -6 -24t-24 -6h-280q-18 0 -24 6t-6 24v70q0 32 12 58l168 404q5 10 2.5 14t-14.5 4h-138q-18 0 -24 6t-6 24zM312 903l-64 -126
q-7 -16 -16 -21.5t-27 -5.5h-30q-18 0 -23 6t-1 23l27 122q5 17 12 23t25 6h80q18 0 21.5 -5t-4.5 -22z" />
    <glyph glyph-name="zacute" unicode="&#x17a;" horiz-adv-x="380" 
d="M20 610v60q0 18 6 24t24 6h280q18 0 24 -6t6 -24v-70q0 -32 -12 -58l-164 -394q-5 -10 -2.5 -14t14.5 -4h134q18 0 24 -6t6 -24v-70q0 -18 -6 -24t-24 -6h-280q-18 0 -24 6t-6 24v70q0 32 12 58l168 404q5 10 2.5 14t-14.5 4h-138q-18 0 -24 6t-6 24zM312 903l-64 -126
q-7 -16 -16 -21.5t-27 -5.5h-30q-18 0 -23 6t-1 23l27 122q5 17 12 23t25 6h80q18 0 21.5 -5t-4.5 -22z" />
    <glyph glyph-name="Zdotaccent" unicode="&#x17b;" horiz-adv-x="380" 
d="M20 610v60q0 18 6 24t24 6h280q18 0 24 -6t6 -24v-70q0 -32 -12 -58l-164 -394q-5 -10 -2.5 -14t14.5 -4h134q18 0 24 -6t6 -24v-70q0 -18 -6 -24t-24 -6h-280q-18 0 -24 6t-6 24v70q0 32 12 58l168 404q5 10 2.5 14t-14.5 4h-138q-18 0 -24 6t-6 24zM270 830
q0 -34 -23 -57t-57 -23t-57 23t-23 57t23 57t57 23t57 -23t23 -57z" />
    <glyph glyph-name="zdotaccent" unicode="&#x17c;" horiz-adv-x="380" 
d="M20 610v60q0 18 6 24t24 6h280q18 0 24 -6t6 -24v-70q0 -32 -12 -58l-164 -394q-5 -10 -2.5 -14t14.5 -4h134q18 0 24 -6t6 -24v-70q0 -18 -6 -24t-24 -6h-280q-18 0 -24 6t-6 24v70q0 32 12 58l168 404q5 10 2.5 14t-14.5 4h-138q-18 0 -24 6t-6 24zM270 830
q0 -34 -23 -57t-57 -23t-57 23t-23 57t23 57t57 23t57 -23t23 -57z" />
    <glyph glyph-name="Zcaron" unicode="&#x17d;" horiz-adv-x="380" 
d="M20 610v60q0 18 6 24t24 6h280q18 0 24 -6t6 -24v-70q0 -32 -12 -58l-164 -394q-5 -10 -2.5 -14t14.5 -4h134q18 0 24 -6t6 -24v-70q0 -18 -6 -24t-24 -6h-280q-18 0 -24 6t-6 24v70q0 32 12 58l168 404q5 10 2.5 14t-14.5 4h-138q-18 0 -24 6t-6 24zM216 750h-51
q-18 0 -27 5t-19 20l-62 100q-10 15 -7 20t21 5h60q18 0 26 -5.5t15 -22.5l16 -42h5l16 42q7 17 15 22.5t26 5.5h60q18 0 21 -5t-7 -20l-62 -100q-10 -15 -19 -20t-27 -5z" />
    <glyph glyph-name="zcaron" unicode="&#x17e;" horiz-adv-x="380" 
d="M20 610v60q0 18 6 24t24 6h280q18 0 24 -6t6 -24v-70q0 -32 -12 -58l-164 -394q-5 -10 -2.5 -14t14.5 -4h134q18 0 24 -6t6 -24v-70q0 -18 -6 -24t-24 -6h-280q-18 0 -24 6t-6 24v70q0 32 12 58l168 404q5 10 2.5 14t-14.5 4h-138q-18 0 -24 6t-6 24zM216 750h-51
q-18 0 -27 5t-19 20l-62 100q-10 15 -7 20t21 5h60q18 0 26 -5.5t15 -22.5l16 -42h5l16 42q7 17 15 22.5t26 5.5h60q18 0 21 -5t-7 -20l-62 -100q-10 -15 -19 -20t-27 -5z" />
    <glyph glyph-name="florin" unicode="&#x192;" horiz-adv-x="310" 
d="M40 -50v600q0 71 45.5 110.5t124.5 39.5h50q18 0 24 -6t6 -24v-60q0 -18 -6 -24t-24 -6h-50q-14 0 -22 -8t-8 -22v-50q0 -12 4 -16t16 -4h60q18 0 24 -6t6 -24v-60q0 -18 -6 -24t-24 -6h-60q-12 0 -16 -4t-4 -16v-390q0 -71 -45.5 -110.5t-124.5 -39.5h-20q-18 0 -24 6
t-6 24v60q0 18 6 24t24 6h20q14 0 22 8t8 22z" />
    <glyph glyph-name="Scommaaccent" unicode="&#x218;" horiz-adv-x="400" 
d="M230 155q0 41 -20.5 77t-50 65.5t-59 61.5t-50 80t-20.5 106q0 73 47.5 119t127.5 46q79 0 127 -46t48 -119v-25q0 -18 -6 -24t-24 -6h1h1h1h1h1v0h-1v0h-1h-1h-1h-1h-1h-1h-1h-1h-2h-1h-1h-2h-1h-2h-1h-2h-2h-1h-2h-2h-2h-2h-2h-3h-2h-2h-3h-3h-2h-4h-3h-9q-18 0 -24 6
t-6 24v30q0 17 -11.5 28.5t-28.5 11.5t-28.5 -11.5t-11.5 -28.5q0 -41 20.5 -77t50 -65.5t59 -61.5t50 -80t20.5 -106q0 -77 -48.5 -123.5t-131.5 -46.5t-131.5 46.5t-48.5 123.5v30q0 18 6 24t24 6h-1h-1h-1h-1h-1v0h1v0h1h1h1h1h1h1h1h1h2h1h1h2h1h2h1h2h2h1h2h2h2h2h2h3
h2h2h3h3h2h4h3h9q18 0 24 -6t6 -24v-35q0 -19 13 -32t32 -13t32 13t13 32zM275 -140q0 -56 -23 -99.5t-50 -68.5q-13 -13 -24 0l-8 11q-9 12 0 21q21 24 24 55q1 9 -11 13q-20 5 -34 24t-14 44q0 29 20.5 49.5t49.5 20.5t49.5 -20.5t20.5 -49.5z" />
    <glyph glyph-name="scommaaccent" unicode="&#x219;" horiz-adv-x="400" 
d="M230 155q0 41 -20.5 77t-50 65.5t-59 61.5t-50 80t-20.5 106q0 73 47.5 119t127.5 46q79 0 127 -46t48 -119v-25q0 -18 -6 -24t-24 -6h1h1h1h1h1v0h-1v0h-1h-1h-1h-1h-1h-1h-1h-1h-2h-1h-1h-2h-1h-2h-1h-2h-2h-1h-2h-2h-2h-2h-2h-3h-2h-2h-3h-3h-2h-4h-3h-9q-18 0 -24 6
t-6 24v30q0 17 -11.5 28.5t-28.5 11.5t-28.5 -11.5t-11.5 -28.5q0 -41 20.5 -77t50 -65.5t59 -61.5t50 -80t20.5 -106q0 -77 -48.5 -123.5t-131.5 -46.5t-131.5 46.5t-48.5 123.5v30q0 18 6 24t24 6h-1h-1h-1h-1h-1v0h1v0h1h1h1h1h1h1h1h1h2h1h1h2h1h2h1h2h2h1h2h2h2h2h2h3
h2h2h3h3h2h4h3h9q18 0 24 -6t6 -24v-35q0 -19 13 -32t32 -13t32 13t13 32zM275 -140q0 -56 -23 -99.5t-50 -68.5q-13 -13 -24 0l-8 11q-9 12 0 21q21 24 24 55q1 9 -11 13q-20 5 -34 24t-14 44q0 29 20.5 49.5t49.5 20.5t49.5 -20.5t20.5 -49.5z" />
    <glyph glyph-name="uni021A" unicode="&#x21a;" horiz-adv-x="390" 
d="M10 610v60q0 18 6 24t24 6h310q18 0 24 -6t6 -24v-60q0 -18 -6 -24t-24 -6h-60q-12 0 -16 -4t-4 -16v-530q0 -18 -6 -24t-24 -6h-90q-18 0 -24 6t-6 24v530q0 12 -4 16t-16 4h-60q-18 0 -24 6t-6 24zM265 -140q0 -56 -23 -99.5t-50 -68.5q-13 -13 -24 0l-8 11q-9 12 0 21
q21 24 24 55q1 9 -11 13q-20 5 -34 24t-14 44q0 29 20.5 49.5t49.5 20.5t49.5 -20.5t20.5 -49.5z" />
    <glyph glyph-name="uni021B" unicode="&#x21b;" horiz-adv-x="390" 
d="M10 610v60q0 18 6 24t24 6h310q18 0 24 -6t6 -24v-60q0 -18 -6 -24t-24 -6h-60q-12 0 -16 -4t-4 -16v-530q0 -18 -6 -24t-24 -6h-90q-18 0 -24 6t-6 24v530q0 12 -4 16t-16 4h-60q-18 0 -24 6t-6 24zM265 -140q0 -56 -23 -99.5t-50 -68.5q-13 -13 -24 0l-8 11q-9 12 0 21
q21 24 24 55q1 9 -11 13q-20 5 -34 24t-14 44q0 29 20.5 49.5t49.5 20.5t49.5 -20.5t20.5 -49.5z" />
    <glyph glyph-name="afii57929" unicode="&#x2bc;" horiz-adv-x="200" 
d="M170 630q0 -56 -23 -99.5t-50 -68.5q-13 -13 -24 0l-8 11q-9 12 0 21q21 24 24 55q1 9 -11 13q-20 5 -34 24t-14 44q0 29 20.5 49.5t49.5 20.5t49.5 -20.5t20.5 -49.5z" />
    <glyph glyph-name="circumflex" unicode="&#x2c6;" horiz-adv-x="363" 
d="M156 700h51q18 0 27 -5t19 -20l72 -110q10 -15 7 -20t-21 -5h-60q-18 0 -27 5.5t-17 21.5l-23 43h-5l-23 -43q-8 -16 -17 -21.5t-27 -5.5h-60q-18 0 -21 5t7 20l72 110q10 15 19 20t27 5z" />
    <glyph glyph-name="caron" unicode="&#x2c7;" horiz-adv-x="343" 
d="M197 550h-51q-18 0 -27 5t-19 20l-62 100q-10 15 -7 20t21 5h60q18 0 26 -5.5t15 -22.5l16 -42h5l16 42q7 17 15 22.5t26 5.5h60q18 0 21 -5t-7 -20l-62 -100q-10 -15 -19 -20t-27 -5z" />
    <glyph glyph-name="breve" unicode="&#x2d8;" horiz-adv-x="320" 
d="M200 690q0 12 4 16t16 4h50q12 0 16 -4t4 -16q0 -53 -35.5 -86.5t-94.5 -33.5t-94.5 33.5t-35.5 86.5q0 12 4 16t16 4h50q12 0 16 -4t4 -16q0 -13 10.5 -21.5t29.5 -8.5t29.5 8.5t10.5 21.5z" />
    <glyph glyph-name="dotaccent" unicode="&#x2d9;" horiz-adv-x="220" 
d="M190 630q0 -34 -23 -57t-57 -23t-57 23t-23 57t23 57t57 23t57 -23t23 -57z" />
    <glyph glyph-name="ring" unicode="&#x2da;" horiz-adv-x="280" 
d="M30 600q0 49 31 79.5t79 30.5t79 -30.5t31 -79.5t-31 -79.5t-79 -30.5t-79 30.5t-31 79.5zM105 600q0 -15 10 -25.5t25 -10.5t25 10.5t10 25.5t-10 25.5t-25 10.5t-25 -10.5t-10 -25.5z" />
    <glyph glyph-name="ogonek" unicode="&#x2db;" horiz-adv-x="230" 
d="M130 -230q-44 0 -72 26t-28 64q0 25 9.5 49t22.5 39.5t26 28t22 17.5l10 6h80q-10 -8 -25 -21.5t-40 -50.5t-25 -68q0 -20 20 -20h3h4h4h4h4h5h5h6q15 0 20 -5t5 -20v-20q0 -15 -5 -20t-20 -5h2h2h1h2h1h1h1h1h1h1h1h1v0h1v0v0v0h-1v0v0h-1v0h-1h-1v0h-1h-1h-1h-1h-1h-1
h-1h-1h-1h-1h-1h-1h-1h-1h-1h-1h-1h-1h-1h-1h-1h-1h-1h-1h-1h-1h-1h-1h-1h-1h-1h-1h-1h-1h-1h-1h-1h-10z" />
    <glyph glyph-name="tilde" unicode="&#x2dc;" horiz-adv-x="340" 
d="M90 690q29 0 60.5 -17.5t49.5 -17.5q20 0 20 15q0 12 4 16t16 4h40q18 0 24 -6t6 -24v-50q0 -26 -17 -43t-43 -17q-29 0 -60.5 17.5t-49.5 17.5q-20 0 -20 -15q0 -12 -4 -16t-16 -4h-40q-18 0 -24 6t-6 24v50q0 26 17 43t43 17z" />
    <glyph glyph-name="hungarumlaut" unicode="&#x2dd;" horiz-adv-x="341" 
d="M166 672l-48 -124q-7 -17 -15 -22.5t-26 -5.5h-20q-18 0 -23 6t-2 24l20 120q3 18 10 24t25 6h60q18 0 22 -6t-3 -22zM306 672l-48 -124q-7 -17 -15 -22.5t-26 -5.5h-20q-18 0 -23 6t-2 24l20 120q3 18 10 24t25 6h60q18 0 22 -6t-3 -22z" />
    <glyph glyph-name="afii10023" unicode="&#x401;" horiz-adv-x="380" 
d="M40 30v640q0 18 6 24t24 6h260q18 0 24 -6t6 -24v-60q0 -18 -6 -24t-24 -6h-120q-12 0 -16 -4t-4 -16v-120q0 -12 4 -16t16 -4h70q18 0 24 -6t6 -24v-60q0 -18 -6 -24t-24 -6h-70q-12 0 -16 -4t-4 -16v-140q0 -12 4 -16t16 -4h120q18 0 24 -6t6 -24v-60q0 -18 -6 -24
t-24 -6h-260q-18 0 -24 6t-6 24zM50 835q0 29 18 47t47 18t47 -18t18 -47t-18 -47t-47 -18t-47 18t-18 47zM220 835q0 29 18 47t47 18t47 -18t18 -47t-18 -47t-47 -18t-47 18t-18 47z" />
    <glyph glyph-name="afii10051" unicode="&#x402;" horiz-adv-x="500" 
d="M320 -20v355q0 15 -10 25t-25 10h-10q-9 0 -12 -3t-3 -12v-325q0 -18 -6 -24t-24 -6h-90q-18 0 -24 6t-6 24v530q0 12 -4 16t-16 4h-60q-18 0 -24 6t-6 24v60q0 18 6 24t24 6h310q18 0 24 -6t6 -24v-60q0 -18 -6 -24t-24 -6h-60q-12 0 -16 -4t-4 -16v-55q0 -9 3 -12
t12 -3h10q86 0 135.5 -48t49.5 -127v-335q0 -70 -47.5 -110t-132.5 -40h-20q-18 0 -24 6t-6 24v60q0 18 6 24t24 6h20q14 0 22 8t8 22z" />
    <glyph glyph-name="afii10052" unicode="&#x403;" horiz-adv-x="340" 
d="M40 30v640q0 18 6 24t24 6h240q18 0 24 -6t6 -24v-60q0 -18 -6 -24t-24 -6h-100q-12 0 -16 -4t-4 -16v-530q0 -18 -6 -24t-24 -6h-90q-18 0 -24 6t-6 24zM312 903l-64 -126q-7 -16 -16 -21.5t-27 -5.5h-30q-18 0 -23 6t-1 23l27 122q5 17 12 23t25 6h80q18 0 21.5 -5
t-4.5 -22z" />
    <glyph glyph-name="afii10053" unicode="&#x404;" horiz-adv-x="420" 
d="M190 280v-130q0 -17 11.5 -28.5t28.5 -11.5t28.5 11.5t11.5 28.5v60q0 18 6 24t24 6h60q18 0 24 -6t6 -24v-55q0 -73 -47.5 -119t-127.5 -46t-127.5 46t-47.5 119v390q0 73 47.5 119t127.5 46t127.5 -46t47.5 -119v-45q0 -18 -6 -24t-24 -6h-60q-18 0 -24 6t-6 24v50
q0 17 -11.5 28.5t-28.5 11.5t-28.5 -11.5t-11.5 -28.5v-110q0 -12 4 -16t16 -4h40q18 0 24 -6t6 -24v-60q0 -18 -6 -24t-24 -6h-40q-12 0 -16 -4t-4 -16z" />
    <glyph glyph-name="afii10054" unicode="&#x405;" horiz-adv-x="400" 
d="M230 155q0 41 -20.5 77t-50 65.5t-59 61.5t-50 80t-20.5 106q0 73 47.5 119t127.5 46q79 0 127 -46t48 -119v-25q0 -18 -6 -24t-24 -6h1h1h1h1h1v0h-1v0h-1h-1h-1h-1h-1h-1h-1h-1h-2h-1h-1h-2h-1h-2h-1h-2h-2h-1h-2h-2h-2h-2h-2h-3h-2h-2h-3h-3h-2h-4h-3h-9q-18 0 -24 6
t-6 24v30q0 17 -11.5 28.5t-28.5 11.5t-28.5 -11.5t-11.5 -28.5q0 -41 20.5 -77t50 -65.5t59 -61.5t50 -80t20.5 -106q0 -77 -48.5 -123.5t-131.5 -46.5t-131.5 46.5t-48.5 123.5v30q0 18 6 24t24 6h-1h-1h-1h-1h-1v0h1v0h1h1h1h1h1h1h1h1h2h1h1h2h1h2h1h2h2h1h2h2h2h2h2h3
h2h2h3h3h2h4h3h9q18 0 24 -6t6 -24v-35q0 -19 13 -32t32 -13t32 13t13 32z" />
    <glyph glyph-name="afii10055" unicode="&#x406;" horiz-adv-x="350" 
d="M20 610v60q0 18 6 24t24 6h250q18 0 24 -6t6 -24v-60q0 -18 -6 -24t-24 -6h-30q-12 0 -16 -4t-4 -16v-420q0 -12 4 -16t16 -4h30q18 0 24 -6t6 -24v-60q0 -18 -6 -24t-24 -6h-250q-18 0 -24 6t-6 24v60q0 18 6 24t24 6h30q12 0 16 4t4 16v420q0 12 -4 16t-16 4h-30
q-18 0 -24 6t-6 24z" />
    <glyph glyph-name="afii10056" unicode="&#x407;" horiz-adv-x="350" 
d="M20 610v60q0 18 6 24t24 6h250q18 0 24 -6t6 -24v-60q0 -18 -6 -24t-24 -6h-30q-12 0 -16 -4t-4 -16v-420q0 -12 4 -16t16 -4h30q18 0 24 -6t6 -24v-60q0 -18 -6 -24t-24 -6h-250q-18 0 -24 6t-6 24v60q0 18 6 24t24 6h30q12 0 16 4t4 16v420q0 12 -4 16t-16 4h-30
q-18 0 -24 6t-6 24zM25 835q0 29 18.5 47t46.5 18t46.5 -18t18.5 -47t-18.5 -47t-46.5 -18t-46.5 18t-18.5 47zM195 835q0 29 18.5 47t46.5 18t46.5 -18t18.5 -47t-18.5 -47t-46.5 -18t-46.5 18t-18.5 47z" />
    <glyph glyph-name="afii10057" unicode="&#x408;" horiz-adv-x="410" 
d="M220 150v410q0 12 -4 16t-16 4h-85q-18 0 -24 6t-6 24v60q0 18 6 24t24 6h225q18 0 24 -6t6 -24v-515q0 -73 -47.5 -119t-127.5 -46t-127.5 46t-47.5 119v55q0 18 6 24t24 6h-1h-1h-1h-1h-1v0h1v0h1h1h1h1h1h1h1h1h2h1h1h2h1h2h1h2h2h1h2h2h2h2h2h3h2h2h3h3h2h4h3h9
q18 0 24 -6t6 -24v-60q0 -17 11.5 -28.5t28.5 -11.5t28.5 11.5t11.5 28.5z" />
    <glyph glyph-name="afii10058" unicode="&#x409;" horiz-adv-x="620" 
d="M390 670v-155q0 -9 3 -12t12 -3q86 0 135.5 -48t49.5 -127v-150q0 -79 -49.5 -127t-135.5 -48h-135q-18 0 -24 6t-6 24v535q0 9 -3 12t-12 3h-7q-15 0 -16 -15l-23 -415q-5 -89 -35.5 -122t-118.5 -33q-15 0 -20 5t-5 20v70q0 15 5 20t20 5t24.5 10t10.5 25l28 520
q2 18 8 24t24 6h240q18 0 24 -6t6 -24zM405 380q-9 0 -12 -3t-3 -12v-230q0 -9 3 -12t12 -3q15 0 25 10t10 25v190q0 15 -10 25t-25 10z" />
    <glyph glyph-name="afii10059" unicode="&#x40a;" horiz-adv-x="620" 
d="M405 440q86 0 135.5 -48t49.5 -127v-90q0 -79 -49.5 -127t-135.5 -48h-135q-18 0 -24 6t-6 24v270q0 12 -4 16t-16 4h-10q-12 0 -16 -4t-4 -16v-270q0 -18 -6 -24t-24 -6h-90q-18 0 -24 6t-6 24v640q0 18 6 24t24 6h90q18 0 24 -6t6 -24v-210q0 -12 4 -16t16 -4h10
q12 0 16 4t4 16v210q0 18 6 24t24 6h90q18 0 24 -6t6 -24v-215q0 -9 3 -12t12 -3zM405 320q-9 0 -12 -3t-3 -12v-170q0 -9 3 -12t12 -3q15 0 25 10t10 25v130q0 15 -10 25t-25 10z" />
    <glyph glyph-name="afii10060" unicode="&#x40b;" horiz-adv-x="500" 
d="M110 30v530q0 12 -4 16t-16 4h-60q-18 0 -24 6t-6 24v60q0 18 6 24t24 6h310q18 0 24 -6t6 -24v-60q0 -18 -6 -24t-24 -6h-60q-12 0 -16 -4t-4 -16v-55q0 -9 3 -12t12 -3h10q86 0 135.5 -48t49.5 -127v-285q0 -18 -6 -24t-24 -6h-90q-18 0 -24 6t-6 24v305q0 15 -10 25
t-25 10h-10q-9 0 -12 -3t-3 -12v-325q0 -18 -6 -24t-24 -6h-90q-18 0 -24 6t-6 24z" />
    <glyph glyph-name="afii10061" unicode="&#x40c;" horiz-adv-x="450" 
d="M330 365v-10q2 0 6.5 -1.5t14.5 -8t18 -16.5t14.5 -29.5t6.5 -44.5v-115q0 -15 4.5 -20t15.5 -5t15.5 -5t4.5 -20v-70q0 -15 -5 -20t-20 -5h-45q-64 0 -92 27.5t-28 92.5v160q0 25 -23 25h-4q-14 0 -18.5 -5t-4.5 -20v-250q0 -15 -5 -20t-20 -5h-100q-15 0 -20 5t-5 20
v650q0 15 5 20t20 5h100q15 0 20 -5t5 -20v-230q0 -15 4.5 -20t18.5 -5h4q23 0 23 25v140q0 65 28 92.5t92 27.5h45q15 0 20 -5t5 -20v-70q0 -15 -4.5 -20t-15.5 -5t-15.5 -5t-4.5 -20v-95q0 -25 -6 -44.5t-15 -29.5t-18 -16.5t-15 -8.5zM342 903l-64 -126q-7 -16 -16 -21.5
t-27 -5.5h-30q-18 0 -23 6t-1 23l27 122q5 17 12 23t25 6h80q18 0 21.5 -5t-4.5 -22z" />
    <glyph glyph-name="afii10062" unicode="&#x40e;" horiz-adv-x="402" 
d="M136 145q4 19 -3 47l-120 479q-4 17 0.5 23t22.5 6h105q18 0 25 -6t10 -24l35 -190h10l35 190q3 18 10 24t25 6h75q18 0 22.5 -6t0.5 -23l-135 -556q-17 -71 -37.5 -95.5t-80.5 -24.5h-45q-15 0 -20 5t-5 20v70q0 15 4.5 20t15.5 5h20q12 0 19 6.5t11 23.5zM207 740
q-67 0 -103.5 34.5t-36.5 95.5q0 12 4 16t16 4h60q12 0 16 -4t4 -16v-10q0 -40 40 -40t40 40v10q0 12 4 16t16 4h60q12 0 16 -4t4 -16q0 -61 -36.5 -95.5t-103.5 -34.5z" />
    <glyph glyph-name="afii10145" unicode="&#x40f;" horiz-adv-x="450" 
d="M160 -90v70q0 12 -4 16t-16 4h-70q-18 0 -24 6t-6 24v640q0 18 6 24t24 6h90q18 0 24 -6t6 -24v-510q0 -12 4 -16t16 -4h30q12 0 16 4t4 16v510q0 18 6 24t24 6h90q18 0 24 -6t6 -24v-640q0 -18 -6 -24t-24 -6h-70q-12 0 -16 -4t-4 -16v-70q0 -18 -6 -24t-24 -6h-70
q-18 0 -24 6t-6 24z" />
    <glyph glyph-name="afii10017" unicode="&#x410;" 
d="M360 0h-90q-18 0 -24 6t-6 24v200q0 12 -4 16t-16 4h-40q-12 0 -16 -4t-4 -16v-200q0 -18 -6 -24t-24 -6h-60q-18 0 -24 6t-6 24v515q0 73 47.5 119t127.5 46t127.5 -46t47.5 -119v-515q0 -18 -6 -24t-24 -6zM160 550v-160q0 -12 4 -16t16 -4h40q12 0 16 4t4 16v160
q0 17 -11.5 28.5t-28.5 11.5t-28.5 -11.5t-11.5 -28.5z" />
    <glyph glyph-name="afii10018" unicode="&#x411;" horiz-adv-x="425" 
d="M210 470h5q86 0 135.5 -48t49.5 -127v-120q0 -79 -49.5 -127t-135.5 -48h-145q-18 0 -24 6t-6 24v640q0 18 6 24t24 6h260q18 0 24 -6t6 -24v-60q0 -18 -6 -24t-24 -6h-120q-12 0 -16 -4t-4 -16v-70q0 -12 4 -16t16 -4zM215 350h-10q-9 0 -12 -3t-3 -12v-200q0 -9 3 -12
t12 -3h10q15 0 25 10t10 25v160q0 15 -10 25t-25 10z" />
    <glyph glyph-name="afii10019" unicode="&#x412;" horiz-adv-x="435" 
d="M70 700h156q77 0 120.5 -41.5t43.5 -113.5v-40q0 -27 -6 -48.5t-15 -33.5t-18 -20t-15 -11l-6 -2v-10q3 -1 8.5 -3t19.5 -10.5t24.5 -20t19 -33t8.5 -48.5v-90q0 -79 -49.5 -127t-135.5 -48h-155q-18 0 -24 6t-6 24v640q0 18 6 24t24 6zM240 455v100q0 25 -25 25h-10
q-9 0 -12 -3t-3 -12v-120q0 -9 3 -12t12 -3h-2h-1h-1h1h1h1h1h1h9q25 0 25 25zM225 310h-20q-9 0 -12 -3t-3 -12v-160q0 -9 3 -12t12 -3h20q15 0 25 10t10 25v120q0 15 -10 25t-25 10z" />
    <glyph glyph-name="afii10020" unicode="&#x413;" horiz-adv-x="350" 
d="M40 30v640q0 18 6 24t24 6h240q18 0 24 -6t6 -24v-60q0 -18 -6 -24t-24 -6h-100q-12 0 -16 -4t-4 -16v-530q0 -18 -6 -24t-24 -6h-90q-18 0 -24 6t-6 24z" />
    <glyph glyph-name="afii10021" unicode="&#x414;" horiz-adv-x="450" 
d="M415 120q14 0 19.5 -6t5.5 -24v-180q0 -18 -6 -24t-24 -6h-70q-18 0 -24 6t-6 24v60q0 18 -6 24t-24 6h-120q-18 0 -24 -6t-6 -24v-60q0 -18 -6 -24t-24 -6h-70q-18 0 -24 6t-6 24v180q0 18 6 24t24 6q15 0 16 15l32 535q2 18 8 24t24 6h260q18 0 24 -6t6 -24v-535
q0 -9 3 -12t12 -3zM184 120h46q12 0 16 4t4 16v425q0 9 -3 12t-12 3h-29q-15 0 -16 -15l-25 -425q-1 -12 3 -16t16 -4z" />
    <glyph glyph-name="afii10022" unicode="&#x415;" horiz-adv-x="380" 
d="M40 30v640q0 18 6 24t24 6h260q18 0 24 -6t6 -24v-60q0 -18 -6 -24t-24 -6h-120q-12 0 -16 -4t-4 -16v-120q0 -12 4 -16t16 -4h70q18 0 24 -6t6 -24v-60q0 -18 -6 -24t-24 -6h-70q-12 0 -16 -4t-4 -16v-140q0 -12 4 -16t16 -4h120q18 0 24 -6t6 -24v-60q0 -18 -6 -24
t-24 -6h-260q-18 0 -24 6t-6 24z" />
    <glyph glyph-name="afii10024" unicode="&#x416;" horiz-adv-x="640" 
d="M120 355v10q-2 0 -6.5 1.5t-14.5 8t-18 16t-14.5 29.5t-6.5 45v95q0 15 -4.5 20t-15.5 5t-15.5 5t-4.5 20v70q0 15 5 20t20 5h45q64 0 92 -27.5t28 -92.5v-130q0 -35 24 -35h1q10 0 10 10v240q0 18 6 24t24 6h90q18 0 24 -6t6 -24v-240q0 -10 10 -10h1q24 0 24 35v130
q0 65 28 92.5t92 27.5h45q15 0 20 -5t5 -20v-70q0 -15 -4.5 -20t-15.5 -5t-15.5 -5t-4.5 -20v-95q0 -40 -15 -65t-30 -30l-15 -5v-10q2 0 6.5 -1.5t14.5 -8t18 -16t14.5 -29.5t6.5 -45v-115q0 -15 4.5 -20t15.5 -5t15.5 -5t4.5 -20v-70q0 -15 -5 -20t-20 -5h-45
q-64 0 -92 27.5t-28 92.5v150q0 35 -24 35h-1q-10 0 -10 -10v-260q0 -18 -6 -24t-24 -6h-90q-18 0 -24 6t-6 24v260q0 10 -10 10h-1q-24 0 -24 -35v-150q0 -65 -28 -92.5t-92 -27.5h-45q-15 0 -20 5t-5 20v70q0 15 4.5 20t15.5 5t15.5 5t4.5 20v115q0 40 15 65t30 30z" />
    <glyph glyph-name="afii10025" unicode="&#x417;" horiz-adv-x="415" 
d="M240 160v115q0 15 -10 25t-25 10h-25q-18 0 -24 6t-6 24v60q0 18 6 24t24 6h20q14 0 22 8t8 22v85q0 20 -12.5 32.5t-32.5 12.5t-32.5 -12.5t-12.5 -32.5v-25q0 -18 -6 -24t-24 -6h1h1h1h1h1v0h-1v0h-1h-1h-1h-1h-1h-1h-1h-1h-2h-1h-1h-2h-1h-2h-1h-2h-2h-1h-2h-2h-2h-2
h-2h-3h-2h-2h-3h-3h-2h-4h-3h-9q-18 0 -24 6t-6 24v20q0 76 49 123t131 47t131 -47t49 -123v-60q0 -25 -8 -44.5t-20 -29.5t-24 -16.5t-20 -7.5l-8 -2v-10q4 0 10 -1.5t21.5 -9t27.5 -18.5t21.5 -33.5t9.5 -51.5v-91q0 -79 -49.5 -127t-135.5 -48t-135.5 48t-49.5 127v20
q0 18 6 24t24 6h-1h-1h-1h-1h-1v0h1v0h1h1h1h1h1h1h1h1h2h1h1h2h1h2h1h2h2h1h2h2h2h2h2h3h2h2h3h3h2h4h3h9q18 0 24 -6t6 -24v-25q0 -22 14 -36t36 -14t36 14t14 36z" />
    <glyph glyph-name="afii10026" unicode="&#x418;" horiz-adv-x="450" 
d="M260 30v260h-10l-63 -261q-5 -17 -12 -23t-25 -6h-80q-18 0 -24 6t-6 24v640q0 18 6 24t24 6h90q18 0 24 -6t6 -24v-260h10l63 261q5 17 12 23t25 6h80q18 0 24 -6t6 -24v-640q0 -18 -6 -24t-24 -6h-90q-18 0 -24 6t-6 24z" />
    <glyph glyph-name="afii10027" unicode="&#x419;" horiz-adv-x="450" 
d="M260 30v260h-10l-63 -261q-5 -17 -12 -23t-25 -6h-80q-18 0 -24 6t-6 24v640q0 18 6 24t24 6h90q18 0 24 -6t6 -24v-260h10l63 261q5 17 12 23t25 6h80q18 0 24 -6t6 -24v-640q0 -18 -6 -24t-24 -6h-90q-18 0 -24 6t-6 24zM226 740q-67 0 -103.5 34.5t-36.5 95.5
q0 12 4 16t16 4h60q12 0 16 -4t4 -16v-10q0 -40 40 -40t40 40v10q0 12 4 16t16 4h60q12 0 16 -4t4 -16q0 -61 -36.5 -95.5t-103.5 -34.5z" />
    <glyph glyph-name="afii10028" unicode="&#x41a;" horiz-adv-x="450" 
d="M330 365v-10q2 0 6.5 -1.5t14.5 -8t18 -16.5t14.5 -29.5t6.5 -44.5v-115q0 -15 4.5 -20t15.5 -5t15.5 -5t4.5 -20v-70q0 -15 -5 -20t-20 -5h-45q-64 0 -92 27.5t-28 92.5v160q0 25 -23 25h-4q-14 0 -18.5 -5t-4.5 -20v-250q0 -15 -5 -20t-20 -5h-100q-15 0 -20 5t-5 20
v650q0 15 5 20t20 5h100q15 0 20 -5t5 -20v-230q0 -15 4.5 -20t18.5 -5h4q23 0 23 25v140q0 65 28 92.5t92 27.5h45q15 0 20 -5t5 -20v-70q0 -15 -4.5 -20t-15.5 -5t-15.5 -5t-4.5 -20v-95q0 -25 -6 -44.5t-15 -29.5t-18 -16.5t-15 -8.5z" />
    <glyph glyph-name="afii10029" unicode="&#x41b;" horiz-adv-x="450" 
d="M25 115q15 0 24.5 10t10.5 25l28 520q2 18 8 24t24 6h260q18 0 24 -6t6 -24v-640q0 -18 -6 -24t-24 -6h-90q-18 0 -24 6t-6 24v535q0 9 -3 12t-12 3h-27q-15 0 -16 -15l-22 -415q-5 -89 -36 -122t-119 -33q-15 0 -20 5t-5 20v70q0 15 5 20t20 5z" />
    <glyph glyph-name="afii10030" unicode="&#x41c;" horiz-adv-x="580" 
d="M285 375h10l64 297q4 17 12.5 22.5t27.5 5.5h111q18 0 24 -6t6 -24v-640q0 -18 -6 -24t-24 -6h-90q-18 0 -24 6t-6 24v295h-10l-62 -297q-4 -17 -12.5 -22.5t-27.5 -5.5h8h-1h-2h-3h-8q-19 0 -27.5 5.5t-12.5 22.5l-62 297h-10v-295q0 -18 -6 -24t-24 -6h-60q-18 0 -24 6
t-6 24v640q0 18 6 24t24 6h112q19 0 27.5 -5.5t12.5 -22.5z" />
    <glyph glyph-name="afii10031" unicode="&#x41d;" horiz-adv-x="450" 
d="M260 30v250q0 12 -4 16t-16 4h-30q-12 0 -16 -4t-4 -16v-250q0 -18 -6 -24t-24 -6h-90q-18 0 -24 6t-6 24v640q0 18 6 24t24 6h90q18 0 24 -6t6 -24v-230q0 -12 4 -16t16 -4h30q12 0 16 4t4 16v230q0 18 6 24t24 6h90q18 0 24 -6t6 -24v-640q0 -18 -6 -24t-24 -6h-90
q-18 0 -24 6t-6 24z" />
    <glyph glyph-name="afii10032" unicode="&#x41e;" horiz-adv-x="450" 
d="M190 555v-410q0 -15 10 -25t25 -10t25 10t10 25v410q0 15 -10 25t-25 10t-25 -10t-10 -25zM40 165v370q0 79 49.5 127t135.5 48t135.5 -48t49.5 -127v-370q0 -79 -49.5 -127t-135.5 -48t-135.5 48t-49.5 127z" />
    <glyph glyph-name="afii10033" unicode="&#x41f;" horiz-adv-x="450" 
d="M260 30v530q0 12 -4 16t-16 4h-30q-12 0 -16 -4t-4 -16v-530q0 -18 -6 -24t-24 -6h-90q-18 0 -24 6t-6 24v640q0 18 6 24t24 6h310q18 0 24 -6t6 -24v-640q0 -18 -6 -24t-24 -6h-90q-18 0 -24 6t-6 24z" />
    <glyph glyph-name="afii10034" unicode="&#x420;" 
d="M215 180h-25v-150q0 -18 -6 -24t-24 -6h-90q-18 0 -24 6t-6 24v640q0 18 6 24t24 6h145q86 0 135.5 -48t49.5 -127v-170q0 -79 -49.5 -127t-135.5 -48zM205 300h10q15 0 25 10t10 25v210q0 15 -10 25t-25 10h-10q-9 0 -12 -3t-3 -12v-250q0 -9 3 -12t12 -3z" />
    <glyph glyph-name="afii10035" unicode="&#x421;" horiz-adv-x="420" 
d="M190 550v-400q0 -17 11.5 -28.5t28.5 -11.5t28.5 11.5t11.5 28.5v60q0 18 6 24t24 6h-1h-1h-1h-1h-1v0h1v0h1h1h1h1h1h1h1h1h2h1h1h2h1h2h1h2h2h1h2h2h2h2h2h3h2h2h3h3h2h4h3h9q18 0 24 -6t6 -24v-55q0 -73 -47.5 -119t-127.5 -46t-127.5 46t-47.5 119v390q0 73 47.5 119
t127.5 46t127.5 -46t47.5 -119v-55q0 -18 -6 -24t-24 -6h1h1h1h1h1v0h-1v0h-1h-1h-1h-1h-1h-1h-1h-1h-2h-1h-1h-2h-1h-2h-1h-2h-2h-1h-2h-2h-2h-2h-2h-3h-2h-2h-3h-3h-2h-4h-3h-9q-18 0 -24 6t-6 24v60q0 17 -11.5 28.5t-28.5 11.5t-28.5 -11.5t-11.5 -28.5z" />
    <glyph glyph-name="afii10036" unicode="&#x422;" horiz-adv-x="390" 
d="M10 610v60q0 18 6 24t24 6h310q18 0 24 -6t6 -24v-60q0 -18 -6 -24t-24 -6h-60q-12 0 -16 -4t-4 -16v-530q0 -18 -6 -24t-24 -6h-90q-18 0 -24 6t-6 24v530q0 12 -4 16t-16 4h-60q-18 0 -24 6t-6 24z" />
    <glyph glyph-name="afii10037" unicode="&#x423;" horiz-adv-x="402" 
d="M136 145q4 19 -3 47l-120 479q-4 17 0.5 23t22.5 6h105q18 0 25 -6t10 -24l35 -190h10l35 190q3 18 10 24t25 6h75q18 0 22.5 -6t0.5 -23l-135 -556q-17 -71 -37.5 -95.5t-80.5 -24.5h-45q-15 0 -20 5t-5 20v70q0 15 4.5 20t15.5 5h20q12 0 19 6.5t11 23.5z" />
    <glyph glyph-name="afii10038" unicode="&#x424;" horiz-adv-x="590" 
d="M360 510v-320q0 -10 10 -10q15 0 25 10t10 25v270q0 15 -10 25t-25 10q-10 0 -10 -10zM555 465v-230q0 -79 -48.5 -127t-126.5 -48q-10 0 -10 -10v-40q0 -18 -6 -24t-24 -6h-90q-18 0 -24 6t-6 24v40q0 10 -10 10q-78 0 -126.5 48t-48.5 127v230q0 79 48.5 127t126.5 48
q10 0 10 10v40q0 18 6 24t24 6h90q18 0 24 -6t6 -24v-40q0 -10 10 -10q78 0 126.5 -48t48.5 -127zM230 190v320q0 10 -10 10q-15 0 -25 -10t-10 -25v-270q0 -15 10 -25t25 -10q10 0 10 10z" />
    <glyph glyph-name="afii10039" unicode="&#x425;" horiz-adv-x="400" 
d="M382 671l-84 -292q-8 -29 0 -58l84 -292q5 -17 0.5 -23t-22.5 -6h-108q-18 0 -25 6t-11 23l-26 121h-10l-26 -121q-4 -17 -11 -23t-25 -6h-78q-18 0 -22.5 6t0.5 23l84 292q8 29 0 58l-84 292q-5 17 -0.5 23t22.5 6h108q18 0 25 -6t11 -23l26 -131h10l26 131q4 17 11 23
t25 6h78q18 0 22.5 -6t-0.5 -23z" />
    <glyph glyph-name="afii10040" unicode="&#x426;" horiz-adv-x="450" 
d="M290 0h-220q-18 0 -24 6t-6 24v640q0 18 6 24t24 6h90q18 0 24 -6t6 -24v-530q0 -12 4 -16t16 -4h20q12 0 16 4t4 16v530q0 18 6 24t24 6h90q18 0 24 -6t6 -24v-530q0 -12 4 -16t16 -4t16 -4t4 -16v-190q0 -18 -6 -24t-24 -6h-70q-18 0 -24 6t-6 24v70q0 12 -4 16t-16 4z
" />
    <glyph glyph-name="afii10041" unicode="&#x427;" 
d="M390 670v-640q0 -18 -6 -24t-24 -6h-90q-18 0 -24 6t-6 24v170q0 12 -4 16t-16 4h-5q-86 0 -135.5 48t-49.5 127v275q0 18 6 24t24 6h90q18 0 24 -6t6 -24v-295q0 -15 10 -25t25 -10h10q9 0 12 3t3 12v315q0 18 6 24t24 6h90q18 0 24 -6t6 -24z" />
    <glyph glyph-name="afii10042" unicode="&#x428;" horiz-adv-x="650" 
d="M400 670v-530q0 -12 4 -16t16 -4h20q12 0 16 4t4 16v530q0 18 6 24t24 6h90q18 0 24 -6t6 -24v-640q0 -18 -6 -24t-24 -6h-510q-18 0 -24 6t-6 24v640q0 18 6 24t24 6h90q18 0 24 -6t6 -24v-530q0 -12 4 -16t16 -4h20q12 0 16 4t4 16v530q0 18 6 24t24 6h90q18 0 24 -6
t6 -24z" />
    <glyph glyph-name="afii10043" unicode="&#x429;" horiz-adv-x="660" 
d="M500 0h-430q-18 0 -24 6t-6 24v640q0 18 6 24t24 6h90q18 0 24 -6t6 -24v-530q0 -12 4 -16t16 -4h20q12 0 16 4t4 16v530q0 18 6 24t24 6h90q18 0 24 -6t6 -24v-530q0 -12 4 -16t16 -4h20q12 0 16 4t4 16v530q0 18 6 24t24 6h90q18 0 24 -6t6 -24v-530q0 -12 4 -16t16 -4
t16 -4t4 -16v-190q0 -18 -6 -24t-24 -6h-70q-18 0 -24 6t-6 24v70q0 12 -4 16t-16 4z" />
    <glyph glyph-name="afii10044" unicode="&#x42a;" horiz-adv-x="460" 
d="M0 610v60q0 18 6 24t24 6h160q18 0 24 -6t6 -24v-150q0 -12 4 -16t16 -4h5q86 0 135.5 -48t49.5 -127v-150q0 -79 -49.5 -127t-135.5 -48h-145q-18 0 -24 6t-6 24v530q0 12 -4 16t-16 4h-20q-18 0 -24 6t-6 24zM245 380h-10q-9 0 -12 -3t-3 -12v-230q0 -9 3 -12t12 -3h10
q15 0 25 10t10 25v190q0 15 -10 25t-25 10z" />
    <glyph glyph-name="afii10045" unicode="&#x42b;" horiz-adv-x="620" 
d="M205 500q86 0 135.5 -48t49.5 -127v-150q0 -79 -49.5 -127t-135.5 -48h-135q-18 0 -24 6t-6 24v640q0 18 6 24t24 6h90q18 0 24 -6t6 -24v-155q0 -9 3 -12t12 -3zM580 670v-640q0 -18 -6 -24t-24 -6h-90q-18 0 -24 6t-6 24v640q0 18 6 24t24 6h90q18 0 24 -6t6 -24z
M205 380q-9 0 -12 -3t-3 -12v-230q0 -9 3 -12t12 -3q15 0 25 10t10 25v190q0 15 -10 25t-25 10z" />
    <glyph glyph-name="afii10046" unicode="&#x42c;" 
d="M210 500h5q86 0 135.5 -48t49.5 -127v-150q0 -79 -49.5 -127t-135.5 -48h-145q-18 0 -24 6t-6 24v640q0 18 6 24t24 6h90q18 0 24 -6t6 -24v-150q0 -12 4 -16t16 -4zM215 380h-10q-9 0 -12 -3t-3 -12v-230q0 -9 3 -12t12 -3h10q15 0 25 10t10 25v190q0 15 -10 25t-25 10z
" />
    <glyph glyph-name="afii10047" unicode="&#x42d;" horiz-adv-x="420" 
d="M230 150v130q0 12 -4 16t-16 4h-40q-18 0 -24 6t-6 24v60q0 18 6 24t24 6h40q12 0 16 4t4 16v110q0 17 -11.5 28.5t-28.5 11.5t-28.5 -11.5t-11.5 -28.5v-50q0 -18 -6 -24t-24 -6h-60q-18 0 -24 6t-6 24v45q0 73 47.5 119t127.5 46t127.5 -46t47.5 -119v-390
q0 -73 -47.5 -119t-127.5 -46t-127.5 46t-47.5 119v55q0 18 6 24t24 6h60q18 0 24 -6t6 -24v-60q0 -17 11.5 -28.5t28.5 -11.5t28.5 11.5t11.5 28.5z" />
    <glyph glyph-name="afii10048" unicode="&#x42e;" horiz-adv-x="630" 
d="M410 710q82 0 131 -47t49 -123v-380q0 -76 -49 -123t-131 -47t-131 47t-49 123v125q0 9 -3 12t-12 3h-10q-9 0 -12 -3t-3 -12v-255q0 -18 -6 -24t-24 -6h-90q-18 0 -24 6t-6 24v640q0 18 6 24t24 6h90q18 0 24 -6t6 -24v-235q0 -9 3 -12t12 -3h10q9 0 12 3t3 12v105
q0 76 49 123t131 47zM380 560v-420q0 -13 8.5 -21.5t21.5 -8.5t21.5 8.5t8.5 21.5v420q0 13 -8.5 21.5t-21.5 8.5t-21.5 -8.5t-8.5 -21.5z" />
    <glyph glyph-name="afii10049" unicode="&#x42f;" horiz-adv-x="440" 
d="M225 395h10q9 0 12 3t3 12v155q0 9 -3 12t-12 3h-10q-15 0 -25 -10t-10 -25v-115q0 -15 10 -25t25 -10zM200 240v-125q0 -65 -28 -92.5t-92 -27.5h-45q-15 0 -20 5t-5 20v70q0 14 6 19.5t14 5t14 5t6 20.5v80q0 25 6 45.5t15 32t18 19.5t15 11l6 2v10l-7.5 2.5t-16.5 10
t-21.5 19.5t-17 32t-7.5 46v75q0 79 49.5 127t135.5 48h145q18 0 24 -6t6 -24v-640q0 -18 -6 -24t-24 -6h-90q-18 0 -24 6t-6 24v230q0 9 -3 12t-12 3h-10q-25 0 -25 -35z" />
    <glyph glyph-name="afii10065" unicode="&#x430;" 
d="M360 0h-90q-18 0 -24 6t-6 24v200q0 12 -4 16t-16 4h-40q-12 0 -16 -4t-4 -16v-200q0 -18 -6 -24t-24 -6h-60q-18 0 -24 6t-6 24v515q0 73 47.5 119t127.5 46t127.5 -46t47.5 -119v-515q0 -18 -6 -24t-24 -6zM160 550v-160q0 -12 4 -16t16 -4h40q12 0 16 4t4 16v160
q0 17 -11.5 28.5t-28.5 11.5t-28.5 -11.5t-11.5 -28.5z" />
    <glyph glyph-name="afii10066" unicode="&#x431;" horiz-adv-x="425" 
d="M210 470h5q86 0 135.5 -48t49.5 -127v-120q0 -79 -49.5 -127t-135.5 -48h-145q-18 0 -24 6t-6 24v640q0 18 6 24t24 6h260q18 0 24 -6t6 -24v-60q0 -18 -6 -24t-24 -6h-120q-12 0 -16 -4t-4 -16v-70q0 -12 4 -16t16 -4zM215 350h-10q-9 0 -12 -3t-3 -12v-200q0 -9 3 -12
t12 -3h10q15 0 25 10t10 25v160q0 15 -10 25t-25 10z" />
    <glyph glyph-name="afii10067" unicode="&#x432;" horiz-adv-x="435" 
d="M70 700h156q77 0 120.5 -41.5t43.5 -113.5v-40q0 -27 -6 -48.5t-15 -33.5t-18 -20t-15 -11l-6 -2v-10q3 -1 8.5 -3t19.5 -10.5t24.5 -20t19 -33t8.5 -48.5v-90q0 -79 -49.5 -127t-135.5 -48h-155q-18 0 -24 6t-6 24v640q0 18 6 24t24 6zM240 455v100q0 25 -25 25h-10
q-9 0 -12 -3t-3 -12v-120q0 -9 3 -12t12 -3h-2h-1h-1h1h1h1h1h1h9q25 0 25 25zM225 310h-20q-9 0 -12 -3t-3 -12v-160q0 -9 3 -12t12 -3h20q15 0 25 10t10 25v120q0 15 -10 25t-25 10z" />
    <glyph glyph-name="afii10068" unicode="&#x433;" horiz-adv-x="350" 
d="M40 30v640q0 18 6 24t24 6h240q18 0 24 -6t6 -24v-60q0 -18 -6 -24t-24 -6h-100q-12 0 -16 -4t-4 -16v-530q0 -18 -6 -24t-24 -6h-90q-18 0 -24 6t-6 24z" />
    <glyph glyph-name="afii10069" unicode="&#x434;" horiz-adv-x="450" 
d="M415 120q14 0 19.5 -6t5.5 -24v-180q0 -18 -6 -24t-24 -6h-70q-18 0 -24 6t-6 24v60q0 18 -6 24t-24 6h-120q-18 0 -24 -6t-6 -24v-60q0 -18 -6 -24t-24 -6h-70q-18 0 -24 6t-6 24v180q0 18 6 24t24 6q15 0 16 15l32 535q2 18 8 24t24 6h260q18 0 24 -6t6 -24v-535
q0 -9 3 -12t12 -3zM184 120h46q12 0 16 4t4 16v425q0 9 -3 12t-12 3h-29q-15 0 -16 -15l-25 -425q-1 -12 3 -16t16 -4z" />
    <glyph glyph-name="afii10070" unicode="&#x435;" horiz-adv-x="380" 
d="M40 30v640q0 18 6 24t24 6h260q18 0 24 -6t6 -24v-60q0 -18 -6 -24t-24 -6h-120q-12 0 -16 -4t-4 -16v-120q0 -12 4 -16t16 -4h70q18 0 24 -6t6 -24v-60q0 -18 -6 -24t-24 -6h-70q-12 0 -16 -4t-4 -16v-140q0 -12 4 -16t16 -4h120q18 0 24 -6t6 -24v-60q0 -18 -6 -24
t-24 -6h-260q-18 0 -24 6t-6 24z" />
    <glyph glyph-name="afii10072" unicode="&#x436;" horiz-adv-x="640" 
d="M120 355v10q-2 0 -6.5 1.5t-14.5 8t-18 16t-14.5 29.5t-6.5 45v95q0 15 -4.5 20t-15.5 5t-15.5 5t-4.5 20v70q0 15 5 20t20 5h45q64 0 92 -27.5t28 -92.5v-130q0 -35 24 -35h1q10 0 10 10v240q0 18 6 24t24 6h90q18 0 24 -6t6 -24v-240q0 -10 10 -10h1q24 0 24 35v130
q0 65 28 92.5t92 27.5h45q15 0 20 -5t5 -20v-70q0 -15 -4.5 -20t-15.5 -5t-15.5 -5t-4.5 -20v-95q0 -40 -15 -65t-30 -30l-15 -5v-10q2 0 6.5 -1.5t14.5 -8t18 -16t14.5 -29.5t6.5 -45v-115q0 -15 4.5 -20t15.5 -5t15.5 -5t4.5 -20v-70q0 -15 -5 -20t-20 -5h-45
q-64 0 -92 27.5t-28 92.5v150q0 35 -24 35h-1q-10 0 -10 -10v-260q0 -18 -6 -24t-24 -6h-90q-18 0 -24 6t-6 24v260q0 10 -10 10h-1q-24 0 -24 -35v-150q0 -65 -28 -92.5t-92 -27.5h-45q-15 0 -20 5t-5 20v70q0 15 4.5 20t15.5 5t15.5 5t4.5 20v115q0 40 15 65t30 30z" />
    <glyph glyph-name="afii10073" unicode="&#x437;" horiz-adv-x="415" 
d="M240 160v115q0 15 -10 25t-25 10h-25q-18 0 -24 6t-6 24v60q0 18 6 24t24 6h20q14 0 22 8t8 22v85q0 20 -12.5 32.5t-32.5 12.5t-32.5 -12.5t-12.5 -32.5v-25q0 -18 -6 -24t-24 -6h1h1h1h1h1v0h-1v0h-1h-1h-1h-1h-1h-1h-1h-1h-2h-1h-1h-2h-1h-2h-1h-2h-2h-1h-2h-2h-2h-2
h-2h-3h-2h-2h-3h-3h-2h-4h-3h-9q-18 0 -24 6t-6 24v20q0 76 49 123t131 47t131 -47t49 -123v-60q0 -25 -8 -44.5t-20 -29.5t-24 -16.5t-20 -7.5l-8 -2v-10q4 0 10 -1.5t21.5 -9t27.5 -18.5t21.5 -33.5t9.5 -51.5v-91q0 -79 -49.5 -127t-135.5 -48t-135.5 48t-49.5 127v20
q0 18 6 24t24 6h-1h-1h-1h-1h-1v0h1v0h1h1h1h1h1h1h1h1h2h1h1h2h1h2h1h2h2h1h2h2h2h2h2h3h2h2h3h3h2h4h3h9q18 0 24 -6t6 -24v-25q0 -22 14 -36t36 -14t36 14t14 36z" />
    <glyph glyph-name="afii10074" unicode="&#x438;" horiz-adv-x="450" 
d="M260 30v260h-10l-63 -261q-5 -17 -12 -23t-25 -6h-80q-18 0 -24 6t-6 24v640q0 18 6 24t24 6h90q18 0 24 -6t6 -24v-260h10l63 261q5 17 12 23t25 6h80q18 0 24 -6t6 -24v-640q0 -18 -6 -24t-24 -6h-90q-18 0 -24 6t-6 24z" />
    <glyph glyph-name="afii10075" unicode="&#x439;" horiz-adv-x="450" 
d="M260 30v260h-10l-63 -261q-5 -17 -12 -23t-25 -6h-80q-18 0 -24 6t-6 24v640q0 18 6 24t24 6h90q18 0 24 -6t6 -24v-260h10l63 261q5 17 12 23t25 6h80q18 0 24 -6t6 -24v-640q0 -18 -6 -24t-24 -6h-90q-18 0 -24 6t-6 24zM226 740q-67 0 -103.5 34.5t-36.5 95.5
q0 12 4 16t16 4h60q12 0 16 -4t4 -16v-10q0 -40 40 -40t40 40v10q0 12 4 16t16 4h60q12 0 16 -4t4 -16q0 -61 -36.5 -95.5t-103.5 -34.5z" />
    <glyph glyph-name="afii10076" unicode="&#x43a;" horiz-adv-x="450" 
d="M330 365v-10q2 0 6.5 -1.5t14.5 -8t18 -16.5t14.5 -29.5t6.5 -44.5v-115q0 -15 4.5 -20t15.5 -5t15.5 -5t4.5 -20v-70q0 -15 -5 -20t-20 -5h-45q-64 0 -92 27.5t-28 92.5v160q0 25 -23 25h-4q-14 0 -18.5 -5t-4.5 -20v-250q0 -15 -5 -20t-20 -5h-100q-15 0 -20 5t-5 20
v650q0 15 5 20t20 5h100q15 0 20 -5t5 -20v-230q0 -15 4.5 -20t18.5 -5h4q23 0 23 25v140q0 65 28 92.5t92 27.5h45q15 0 20 -5t5 -20v-70q0 -15 -4.5 -20t-15.5 -5t-15.5 -5t-4.5 -20v-95q0 -25 -6 -44.5t-15 -29.5t-18 -16.5t-15 -8.5z" />
    <glyph glyph-name="afii10077" unicode="&#x43b;" horiz-adv-x="450" 
d="M25 115q15 0 24.5 10t10.5 25l28 520q2 18 8 24t24 6h260q18 0 24 -6t6 -24v-640q0 -18 -6 -24t-24 -6h-90q-18 0 -24 6t-6 24v535q0 9 -3 12t-12 3h-27q-15 0 -16 -15l-22 -415q-5 -89 -36 -122t-119 -33q-15 0 -20 5t-5 20v70q0 15 5 20t20 5z" />
    <glyph glyph-name="afii10078" unicode="&#x43c;" horiz-adv-x="580" 
d="M285 375h10l64 297q4 17 12.5 22.5t27.5 5.5h111q18 0 24 -6t6 -24v-640q0 -18 -6 -24t-24 -6h-90q-18 0 -24 6t-6 24v295h-10l-62 -297q-4 -17 -12.5 -22.5t-27.5 -5.5h8h-1h-2h-3h-8q-19 0 -27.5 5.5t-12.5 22.5l-62 297h-10v-295q0 -18 -6 -24t-24 -6h-60q-18 0 -24 6
t-6 24v640q0 18 6 24t24 6h112q19 0 27.5 -5.5t12.5 -22.5z" />
    <glyph glyph-name="afii10079" unicode="&#x43d;" horiz-adv-x="450" 
d="M260 30v250q0 12 -4 16t-16 4h-30q-12 0 -16 -4t-4 -16v-250q0 -18 -6 -24t-24 -6h-90q-18 0 -24 6t-6 24v640q0 18 6 24t24 6h90q18 0 24 -6t6 -24v-230q0 -12 4 -16t16 -4h30q12 0 16 4t4 16v230q0 18 6 24t24 6h90q18 0 24 -6t6 -24v-640q0 -18 -6 -24t-24 -6h-90
q-18 0 -24 6t-6 24z" />
    <glyph glyph-name="afii10080" unicode="&#x43e;" horiz-adv-x="450" 
d="M190 555v-410q0 -15 10 -25t25 -10t25 10t10 25v410q0 15 -10 25t-25 10t-25 -10t-10 -25zM40 165v370q0 79 49.5 127t135.5 48t135.5 -48t49.5 -127v-370q0 -79 -49.5 -127t-135.5 -48t-135.5 48t-49.5 127z" />
    <glyph glyph-name="afii10081" unicode="&#x43f;" horiz-adv-x="450" 
d="M260 30v530q0 12 -4 16t-16 4h-30q-12 0 -16 -4t-4 -16v-530q0 -18 -6 -24t-24 -6h-90q-18 0 -24 6t-6 24v640q0 18 6 24t24 6h310q18 0 24 -6t6 -24v-640q0 -18 -6 -24t-24 -6h-90q-18 0 -24 6t-6 24z" />
    <glyph glyph-name="afii10082" unicode="&#x440;" 
d="M215 180h-25v-150q0 -18 -6 -24t-24 -6h-90q-18 0 -24 6t-6 24v640q0 18 6 24t24 6h145q86 0 135.5 -48t49.5 -127v-170q0 -79 -49.5 -127t-135.5 -48zM205 300h10q15 0 25 10t10 25v210q0 15 -10 25t-25 10h-10q-9 0 -12 -3t-3 -12v-250q0 -9 3 -12t12 -3z" />
    <glyph glyph-name="afii10083" unicode="&#x441;" horiz-adv-x="420" 
d="M190 550v-400q0 -17 11.5 -28.5t28.5 -11.5t28.5 11.5t11.5 28.5v60q0 18 6 24t24 6h-1h-1h-1h-1h-1v0h1v0h1h1h1h1h1h1h1h1h2h1h1h2h1h2h1h2h2h1h2h2h2h2h2h3h2h2h3h3h2h4h3h9q18 0 24 -6t6 -24v-55q0 -73 -47.5 -119t-127.5 -46t-127.5 46t-47.5 119v390q0 73 47.5 119
t127.5 46t127.5 -46t47.5 -119v-55q0 -18 -6 -24t-24 -6h1h1h1h1h1v0h-1v0h-1h-1h-1h-1h-1h-1h-1h-1h-2h-1h-1h-2h-1h-2h-1h-2h-2h-1h-2h-2h-2h-2h-2h-3h-2h-2h-3h-3h-2h-4h-3h-9q-18 0 -24 6t-6 24v60q0 17 -11.5 28.5t-28.5 11.5t-28.5 -11.5t-11.5 -28.5z" />
    <glyph glyph-name="afii10084" unicode="&#x442;" horiz-adv-x="390" 
d="M10 610v60q0 18 6 24t24 6h310q18 0 24 -6t6 -24v-60q0 -18 -6 -24t-24 -6h-60q-12 0 -16 -4t-4 -16v-530q0 -18 -6 -24t-24 -6h-90q-18 0 -24 6t-6 24v530q0 12 -4 16t-16 4h-60q-18 0 -24 6t-6 24z" />
    <glyph glyph-name="afii10085" unicode="&#x443;" horiz-adv-x="402" 
d="M136 145q4 19 -3 47l-120 479q-4 17 0.5 23t22.5 6h105q18 0 25 -6t10 -24l35 -190h10l35 190q3 18 10 24t25 6h75q18 0 22.5 -6t0.5 -23l-135 -556q-17 -71 -37.5 -95.5t-80.5 -24.5h-45q-15 0 -20 5t-5 20v70q0 15 4.5 20t15.5 5h20q12 0 19 6.5t11 23.5z" />
    <glyph glyph-name="afii10086" unicode="&#x444;" horiz-adv-x="590" 
d="M360 510v-320q0 -10 10 -10q15 0 25 10t10 25v270q0 15 -10 25t-25 10q-10 0 -10 -10zM555 465v-230q0 -79 -48.5 -127t-126.5 -48q-10 0 -10 -10v-40q0 -18 -6 -24t-24 -6h-90q-18 0 -24 6t-6 24v40q0 10 -10 10q-78 0 -126.5 48t-48.5 127v230q0 79 48.5 127t126.5 48
q10 0 10 10v40q0 18 6 24t24 6h90q18 0 24 -6t6 -24v-40q0 -10 10 -10q78 0 126.5 -48t48.5 -127zM230 190v320q0 10 -10 10q-15 0 -25 -10t-10 -25v-270q0 -15 10 -25t25 -10q10 0 10 10z" />
    <glyph glyph-name="afii10087" unicode="&#x445;" horiz-adv-x="400" 
d="M382 671l-84 -292q-8 -29 0 -58l84 -292q5 -17 0.5 -23t-22.5 -6h-108q-18 0 -25 6t-11 23l-26 121h-10l-26 -121q-4 -17 -11 -23t-25 -6h-78q-18 0 -22.5 6t0.5 23l84 292q8 29 0 58l-84 292q-5 17 -0.5 23t22.5 6h108q18 0 25 -6t11 -23l26 -131h10l26 131q4 17 11 23
t25 6h78q18 0 22.5 -6t-0.5 -23z" />
    <glyph glyph-name="afii10088" unicode="&#x446;" horiz-adv-x="450" 
d="M290 0h-220q-18 0 -24 6t-6 24v640q0 18 6 24t24 6h90q18 0 24 -6t6 -24v-530q0 -12 4 -16t16 -4h20q12 0 16 4t4 16v530q0 18 6 24t24 6h90q18 0 24 -6t6 -24v-530q0 -12 4 -16t16 -4t16 -4t4 -16v-190q0 -18 -6 -24t-24 -6h-70q-18 0 -24 6t-6 24v70q0 12 -4 16t-16 4z
" />
    <glyph glyph-name="afii10089" unicode="&#x447;" 
d="M390 670v-640q0 -18 -6 -24t-24 -6h-90q-18 0 -24 6t-6 24v170q0 12 -4 16t-16 4h-5q-86 0 -135.5 48t-49.5 127v275q0 18 6 24t24 6h90q18 0 24 -6t6 -24v-295q0 -15 10 -25t25 -10h10q9 0 12 3t3 12v315q0 18 6 24t24 6h90q18 0 24 -6t6 -24z" />
    <glyph glyph-name="afii10090" unicode="&#x448;" horiz-adv-x="650" 
d="M400 670v-530q0 -12 4 -16t16 -4h20q12 0 16 4t4 16v530q0 18 6 24t24 6h90q18 0 24 -6t6 -24v-640q0 -18 -6 -24t-24 -6h-510q-18 0 -24 6t-6 24v640q0 18 6 24t24 6h90q18 0 24 -6t6 -24v-530q0 -12 4 -16t16 -4h20q12 0 16 4t4 16v530q0 18 6 24t24 6h90q18 0 24 -6
t6 -24z" />
    <glyph glyph-name="afii10091" unicode="&#x449;" horiz-adv-x="660" 
d="M500 0h-430q-18 0 -24 6t-6 24v640q0 18 6 24t24 6h90q18 0 24 -6t6 -24v-530q0 -12 4 -16t16 -4h20q12 0 16 4t4 16v530q0 18 6 24t24 6h90q18 0 24 -6t6 -24v-530q0 -12 4 -16t16 -4h20q12 0 16 4t4 16v530q0 18 6 24t24 6h90q18 0 24 -6t6 -24v-530q0 -12 4 -16t16 -4
t16 -4t4 -16v-190q0 -18 -6 -24t-24 -6h-70q-18 0 -24 6t-6 24v70q0 12 -4 16t-16 4z" />
    <glyph glyph-name="afii10092" unicode="&#x44a;" horiz-adv-x="460" 
d="M0 610v60q0 18 6 24t24 6h160q18 0 24 -6t6 -24v-150q0 -12 4 -16t16 -4h5q86 0 135.5 -48t49.5 -127v-150q0 -79 -49.5 -127t-135.5 -48h-145q-18 0 -24 6t-6 24v530q0 12 -4 16t-16 4h-20q-18 0 -24 6t-6 24zM245 380h-10q-9 0 -12 -3t-3 -12v-230q0 -9 3 -12t12 -3h10
q15 0 25 10t10 25v190q0 15 -10 25t-25 10z" />
    <glyph glyph-name="afii10093" unicode="&#x44b;" horiz-adv-x="620" 
d="M205 500q86 0 135.5 -48t49.5 -127v-150q0 -79 -49.5 -127t-135.5 -48h-135q-18 0 -24 6t-6 24v640q0 18 6 24t24 6h90q18 0 24 -6t6 -24v-155q0 -9 3 -12t12 -3zM580 670v-640q0 -18 -6 -24t-24 -6h-90q-18 0 -24 6t-6 24v640q0 18 6 24t24 6h90q18 0 24 -6t6 -24z
M205 380q-9 0 -12 -3t-3 -12v-230q0 -9 3 -12t12 -3q15 0 25 10t10 25v190q0 15 -10 25t-25 10z" />
    <glyph glyph-name="afii10094" unicode="&#x44c;" 
d="M210 500h5q86 0 135.5 -48t49.5 -127v-150q0 -79 -49.5 -127t-135.5 -48h-145q-18 0 -24 6t-6 24v640q0 18 6 24t24 6h90q18 0 24 -6t6 -24v-150q0 -12 4 -16t16 -4zM215 380h-10q-9 0 -12 -3t-3 -12v-230q0 -9 3 -12t12 -3h10q15 0 25 10t10 25v190q0 15 -10 25t-25 10z
" />
    <glyph glyph-name="afii10095" unicode="&#x44d;" horiz-adv-x="420" 
d="M230 150v130q0 12 -4 16t-16 4h-40q-18 0 -24 6t-6 24v60q0 18 6 24t24 6h40q12 0 16 4t4 16v110q0 17 -11.5 28.5t-28.5 11.5t-28.5 -11.5t-11.5 -28.5v-50q0 -18 -6 -24t-24 -6h-60q-18 0 -24 6t-6 24v45q0 73 47.5 119t127.5 46t127.5 -46t47.5 -119v-390
q0 -73 -47.5 -119t-127.5 -46t-127.5 46t-47.5 119v55q0 18 6 24t24 6h60q18 0 24 -6t6 -24v-60q0 -17 11.5 -28.5t28.5 -11.5t28.5 11.5t11.5 28.5z" />
    <glyph glyph-name="afii10096" unicode="&#x44e;" horiz-adv-x="630" 
d="M410 710q82 0 131 -47t49 -123v-380q0 -76 -49 -123t-131 -47t-131 47t-49 123v125q0 9 -3 12t-12 3h-10q-9 0 -12 -3t-3 -12v-255q0 -18 -6 -24t-24 -6h-90q-18 0 -24 6t-6 24v640q0 18 6 24t24 6h90q18 0 24 -6t6 -24v-235q0 -9 3 -12t12 -3h10q9 0 12 3t3 12v105
q0 76 49 123t131 47zM380 560v-420q0 -13 8.5 -21.5t21.5 -8.5t21.5 8.5t8.5 21.5v420q0 13 -8.5 21.5t-21.5 8.5t-21.5 -8.5t-8.5 -21.5z" />
    <glyph glyph-name="afii10097" unicode="&#x44f;" horiz-adv-x="440" 
d="M225 395h10q9 0 12 3t3 12v155q0 9 -3 12t-12 3h-10q-15 0 -25 -10t-10 -25v-115q0 -15 10 -25t25 -10zM200 240v-125q0 -65 -28 -92.5t-92 -27.5h-45q-15 0 -20 5t-5 20v70q0 14 6 19.5t14 5t14 5t6 20.5v80q0 25 6 45.5t15 32t18 19.5t15 11l6 2v10l-7.5 2.5t-16.5 10
t-21.5 19.5t-17 32t-7.5 46v75q0 79 49.5 127t135.5 48h145q18 0 24 -6t6 -24v-640q0 -18 -6 -24t-24 -6h-90q-18 0 -24 6t-6 24v230q0 9 -3 12t-12 3h-10q-25 0 -25 -35z" />
    <glyph glyph-name="afii10071" unicode="&#x451;" horiz-adv-x="380" 
d="M40 30v640q0 18 6 24t24 6h260q18 0 24 -6t6 -24v-60q0 -18 -6 -24t-24 -6h-120q-12 0 -16 -4t-4 -16v-120q0 -12 4 -16t16 -4h70q18 0 24 -6t6 -24v-60q0 -18 -6 -24t-24 -6h-70q-12 0 -16 -4t-4 -16v-140q0 -12 4 -16t16 -4h120q18 0 24 -6t6 -24v-60q0 -18 -6 -24
t-24 -6h-260q-18 0 -24 6t-6 24zM50 835q0 29 18 47t47 18t47 -18t18 -47t-18 -47t-47 -18t-47 18t-18 47zM220 835q0 29 18 47t47 18t47 -18t18 -47t-18 -47t-47 -18t-47 18t-18 47z" />
    <glyph glyph-name="afii10099" unicode="&#x452;" horiz-adv-x="500" 
d="M320 -20v355q0 15 -10 25t-25 10h-10q-9 0 -12 -3t-3 -12v-325q0 -18 -6 -24t-24 -6h-90q-18 0 -24 6t-6 24v530q0 12 -4 16t-16 4h-60q-18 0 -24 6t-6 24v60q0 18 6 24t24 6h310q18 0 24 -6t6 -24v-60q0 -18 -6 -24t-24 -6h-60q-12 0 -16 -4t-4 -16v-55q0 -9 3 -12
t12 -3h10q86 0 135.5 -48t49.5 -127v-335q0 -70 -47.5 -110t-132.5 -40h-20q-18 0 -24 6t-6 24v60q0 18 6 24t24 6h20q14 0 22 8t8 22z" />
    <glyph glyph-name="afii10100" unicode="&#x453;" horiz-adv-x="340" 
d="M40 30v640q0 18 6 24t24 6h240q18 0 24 -6t6 -24v-60q0 -18 -6 -24t-24 -6h-100q-12 0 -16 -4t-4 -16v-530q0 -18 -6 -24t-24 -6h-90q-18 0 -24 6t-6 24zM312 903l-64 -126q-7 -16 -16 -21.5t-27 -5.5h-30q-18 0 -23 6t-1 23l27 122q5 17 12 23t25 6h80q18 0 21.5 -5
t-4.5 -22z" />
    <glyph glyph-name="afii10101" unicode="&#x454;" horiz-adv-x="420" 
d="M190 280v-130q0 -17 11.5 -28.5t28.5 -11.5t28.5 11.5t11.5 28.5v60q0 18 6 24t24 6h60q18 0 24 -6t6 -24v-55q0 -73 -47.5 -119t-127.5 -46t-127.5 46t-47.5 119v390q0 73 47.5 119t127.5 46t127.5 -46t47.5 -119v-45q0 -18 -6 -24t-24 -6h-60q-18 0 -24 6t-6 24v50
q0 17 -11.5 28.5t-28.5 11.5t-28.5 -11.5t-11.5 -28.5v-110q0 -12 4 -16t16 -4h40q18 0 24 -6t6 -24v-60q0 -18 -6 -24t-24 -6h-40q-12 0 -16 -4t-4 -16z" />
    <glyph glyph-name="afii10102" unicode="&#x455;" horiz-adv-x="400" 
d="M230 155q0 41 -20.5 77t-50 65.5t-59 61.5t-50 80t-20.5 106q0 73 47.5 119t127.5 46q79 0 127 -46t48 -119v-25q0 -18 -6 -24t-24 -6h1h1h1h1h1v0h-1v0h-1h-1h-1h-1h-1h-1h-1h-1h-2h-1h-1h-2h-1h-2h-1h-2h-2h-1h-2h-2h-2h-2h-2h-3h-2h-2h-3h-3h-2h-4h-3h-9q-18 0 -24 6
t-6 24v30q0 17 -11.5 28.5t-28.5 11.5t-28.5 -11.5t-11.5 -28.5q0 -41 20.5 -77t50 -65.5t59 -61.5t50 -80t20.5 -106q0 -77 -48.5 -123.5t-131.5 -46.5t-131.5 46.5t-48.5 123.5v30q0 18 6 24t24 6h-1h-1h-1h-1h-1v0h1v0h1h1h1h1h1h1h1h1h2h1h1h2h1h2h1h2h2h1h2h2h2h2h2h3
h2h2h3h3h2h4h3h9q18 0 24 -6t6 -24v-35q0 -19 13 -32t32 -13t32 13t13 32z" />
    <glyph glyph-name="afii10103" unicode="&#x456;" horiz-adv-x="350" 
d="M20 610v60q0 18 6 24t24 6h250q18 0 24 -6t6 -24v-60q0 -18 -6 -24t-24 -6h-30q-12 0 -16 -4t-4 -16v-420q0 -12 4 -16t16 -4h30q18 0 24 -6t6 -24v-60q0 -18 -6 -24t-24 -6h-250q-18 0 -24 6t-6 24v60q0 18 6 24t24 6h30q12 0 16 4t4 16v420q0 12 -4 16t-16 4h-30
q-18 0 -24 6t-6 24z" />
    <glyph glyph-name="afii10104" unicode="&#x457;" horiz-adv-x="350" 
d="M20 610v60q0 18 6 24t24 6h250q18 0 24 -6t6 -24v-60q0 -18 -6 -24t-24 -6h-30q-12 0 -16 -4t-4 -16v-420q0 -12 4 -16t16 -4h30q18 0 24 -6t6 -24v-60q0 -18 -6 -24t-24 -6h-250q-18 0 -24 6t-6 24v60q0 18 6 24t24 6h30q12 0 16 4t4 16v420q0 12 -4 16t-16 4h-30
q-18 0 -24 6t-6 24zM25 835q0 29 18.5 47t46.5 18t46.5 -18t18.5 -47t-18.5 -47t-46.5 -18t-46.5 18t-18.5 47zM195 835q0 29 18.5 47t46.5 18t46.5 -18t18.5 -47t-18.5 -47t-46.5 -18t-46.5 18t-18.5 47z" />
    <glyph glyph-name="afii10105" unicode="&#x458;" horiz-adv-x="410" 
d="M220 150v410q0 12 -4 16t-16 4h-85q-18 0 -24 6t-6 24v60q0 18 6 24t24 6h225q18 0 24 -6t6 -24v-515q0 -73 -47.5 -119t-127.5 -46t-127.5 46t-47.5 119v55q0 18 6 24t24 6h-1h-1h-1h-1h-1v0h1v0h1h1h1h1h1h1h1h1h2h1h1h2h1h2h1h2h2h1h2h2h2h2h2h3h2h2h3h3h2h4h3h9
q18 0 24 -6t6 -24v-60q0 -17 11.5 -28.5t28.5 -11.5t28.5 11.5t11.5 28.5z" />
    <glyph glyph-name="afii10106" unicode="&#x459;" horiz-adv-x="620" 
d="M390 670v-155q0 -9 3 -12t12 -3q86 0 135.5 -48t49.5 -127v-150q0 -79 -49.5 -127t-135.5 -48h-135q-18 0 -24 6t-6 24v535q0 9 -3 12t-12 3h-7q-15 0 -16 -15l-23 -415q-5 -89 -35.5 -122t-118.5 -33q-15 0 -20 5t-5 20v70q0 15 5 20t20 5t24.5 10t10.5 25l28 520
q2 18 8 24t24 6h240q18 0 24 -6t6 -24zM405 380q-9 0 -12 -3t-3 -12v-230q0 -9 3 -12t12 -3q15 0 25 10t10 25v190q0 15 -10 25t-25 10z" />
    <glyph glyph-name="afii10107" unicode="&#x45a;" horiz-adv-x="620" 
d="M405 440q86 0 135.5 -48t49.5 -127v-90q0 -79 -49.5 -127t-135.5 -48h-135q-18 0 -24 6t-6 24v270q0 12 -4 16t-16 4h-10q-12 0 -16 -4t-4 -16v-270q0 -18 -6 -24t-24 -6h-90q-18 0 -24 6t-6 24v640q0 18 6 24t24 6h90q18 0 24 -6t6 -24v-210q0 -12 4 -16t16 -4h10
q12 0 16 4t4 16v210q0 18 6 24t24 6h90q18 0 24 -6t6 -24v-215q0 -9 3 -12t12 -3zM405 320q-9 0 -12 -3t-3 -12v-170q0 -9 3 -12t12 -3q15 0 25 10t10 25v130q0 15 -10 25t-25 10z" />
    <glyph glyph-name="afii10108" unicode="&#x45b;" horiz-adv-x="500" 
d="M110 30v530q0 12 -4 16t-16 4h-60q-18 0 -24 6t-6 24v60q0 18 6 24t24 6h310q18 0 24 -6t6 -24v-60q0 -18 -6 -24t-24 -6h-60q-12 0 -16 -4t-4 -16v-55q0 -9 3 -12t12 -3h10q86 0 135.5 -48t49.5 -127v-285q0 -18 -6 -24t-24 -6h-90q-18 0 -24 6t-6 24v305q0 15 -10 25
t-25 10h-10q-9 0 -12 -3t-3 -12v-325q0 -18 -6 -24t-24 -6h-90q-18 0 -24 6t-6 24z" />
    <glyph glyph-name="afii10109" unicode="&#x45c;" horiz-adv-x="450" 
d="M330 365v-10q2 0 6.5 -1.5t14.5 -8t18 -16.5t14.5 -29.5t6.5 -44.5v-115q0 -15 4.5 -20t15.5 -5t15.5 -5t4.5 -20v-70q0 -15 -5 -20t-20 -5h-45q-64 0 -92 27.5t-28 92.5v160q0 25 -23 25h-4q-14 0 -18.5 -5t-4.5 -20v-250q0 -15 -5 -20t-20 -5h-100q-15 0 -20 5t-5 20
v650q0 15 5 20t20 5h100q15 0 20 -5t5 -20v-230q0 -15 4.5 -20t18.5 -5h4q23 0 23 25v140q0 65 28 92.5t92 27.5h45q15 0 20 -5t5 -20v-70q0 -15 -4.5 -20t-15.5 -5t-15.5 -5t-4.5 -20v-95q0 -25 -6 -44.5t-15 -29.5t-18 -16.5t-15 -8.5zM342 903l-64 -126q-7 -16 -16 -21.5
t-27 -5.5h-30q-18 0 -23 6t-1 23l27 122q5 17 12 23t25 6h80q18 0 21.5 -5t-4.5 -22z" />
    <glyph glyph-name="afii10110" unicode="&#x45e;" horiz-adv-x="402" 
d="M136 145q4 19 -3 47l-120 479q-4 17 0.5 23t22.5 6h105q18 0 25 -6t10 -24l35 -190h10l35 190q3 18 10 24t25 6h75q18 0 22.5 -6t0.5 -23l-135 -556q-17 -71 -37.5 -95.5t-80.5 -24.5h-45q-15 0 -20 5t-5 20v70q0 15 4.5 20t15.5 5h20q12 0 19 6.5t11 23.5zM207 740
q-67 0 -103.5 34.5t-36.5 95.5q0 12 4 16t16 4h60q12 0 16 -4t4 -16v-10q0 -40 40 -40t40 40v10q0 12 4 16t16 4h60q12 0 16 -4t4 -16q0 -61 -36.5 -95.5t-103.5 -34.5z" />
    <glyph glyph-name="afii10193" unicode="&#x45f;" horiz-adv-x="450" 
d="M160 -90v70q0 12 -4 16t-16 4h-70q-18 0 -24 6t-6 24v640q0 18 6 24t24 6h90q18 0 24 -6t6 -24v-510q0 -12 4 -16t16 -4h30q12 0 16 4t4 16v510q0 18 6 24t24 6h90q18 0 24 -6t6 -24v-640q0 -18 -6 -24t-24 -6h-70q-12 0 -16 -4t-4 -16v-70q0 -18 -6 -24t-24 -6h-70
q-18 0 -24 6t-6 24z" />
    <glyph glyph-name="afii10050" unicode="&#x490;" horiz-adv-x="350" 
d="M40 30v640q0 18 6 24t24 6h120q12 0 16 4t4 16v40q0 18 6 24t24 6h70q18 0 24 -6t6 -24v-150q0 -18 -6 -24t-24 -6h-100q-12 0 -16 -4t-4 -16v-530q0 -18 -6 -24t-24 -6h-90q-18 0 -24 6t-6 24z" />
    <glyph glyph-name="afii10098" unicode="&#x491;" horiz-adv-x="350" 
d="M40 30v640q0 18 6 24t24 6h120q12 0 16 4t4 16v40q0 18 6 24t24 6h70q18 0 24 -6t6 -24v-150q0 -18 -6 -24t-24 -6h-100q-12 0 -16 -4t-4 -16v-530q0 -18 -6 -24t-24 -6h-90q-18 0 -24 6t-6 24z" />
    <glyph glyph-name="uni1E9E" unicode="&#x1e9e;" horiz-adv-x="460" 
d="M250 -10q-9 0 -12 3t-3 12v90q0 9 3 12t12 3q13 0 21.5 8.5t8.5 21.5v165q0 15 -8.5 25t-21.5 10q-20 0 -20 20v60q0 20 5 39l29 102q4 11 1 15t-15 4h-25q-15 0 -25 -10t-10 -25v-515q0 -18 -6 -24t-24 -6h-90q-18 0 -24 6t-6 24v495q0 79 49.5 127t135.5 48v0v0h1v0h1
v0h1h1h1h1h1h1h1h1h1h1h1h1h1h1h1h1h1h1h1h1h1h1h1h1h1h2h1h1h1h1h2h1h1h2h1h1h2h1h1h2h1h2h1h1h2h1h2h1h2h2h1h2h1h2h2h1h2h2h1h2h2h2h1h2h2h2h2h1h2h2h2h2h2h2h2h2h2h2h2h2h2h3h2h2h2h3h2h2h3h2h3h2h3h3h3h3h9q18 0 24 -6t6 -24v1v1v1v1v1v0v-1v0v-1v-1v-1v-1v-1v-1v-1v-1
v-2v-1v-1v-2v-1v-2v-1v-2v-2v-1v-2v-2v-2v-2v-2v-3v-2v-2v-3v-3v-2v-4v-3v-9q0 -28 -8 -59l-38 -135q-3 -15 6 -19q50 -21 50 -92v-145q0 -76 -49 -123t-131 -47z" />
    <glyph glyph-name="endash" unicode="&#x2013;" 
d="M30 300v50q0 18 6 24t24 6h310q18 0 24 -6t6 -24v-50q0 -18 -6 -24t-24 -6h-310q-18 0 -24 6t-6 24z" />
    <glyph glyph-name="emdash" unicode="&#x2014;" horiz-adv-x="530" 
d="M30 300v50q0 18 6 24t24 6h410q18 0 24 -6t6 -24v-50q0 -18 -6 -24t-24 -6h-410q-18 0 -24 6t-6 24z" />
    <glyph glyph-name="quoteleft" unicode="&#x2018;" horiz-adv-x="220" 
d="M30 500q0 108 83 185q16 16 28 0l8 -11q10 -14 0 -24q-25 -27 -28 -57q-1 -7 1.5 -10t11.5 -5q23 -6 39.5 -28t16.5 -50q0 -34 -23 -57t-57 -23t-57 23t-23 57z" />
    <glyph glyph-name="quoteright" unicode="&#x2019;" horiz-adv-x="220" 
d="M190 630q0 -108 -83 -185q-16 -16 -28 0l-8 11q-10 14 0 24q25 27 28 57q1 7 -1.5 10t-11.5 5q-23 6 -39.5 28t-16.5 50q0 34 23 57t57 23t57 -23t23 -57z" />
    <glyph glyph-name="quotesinglbase" unicode="&#x201a;" horiz-adv-x="220" 
d="M190 70q0 -108 -83 -185q-16 -16 -28 0l-8 11q-10 14 0 24q25 27 28 57q1 7 -1.5 10t-11.5 5q-23 6 -39.5 28t-16.5 50q0 34 23 57t57 23t57 -23t23 -57z" />
    <glyph glyph-name="quotedblleft" unicode="&#x201c;" horiz-adv-x="410" 
d="M220 500q0 108 83 185q16 16 28 0l8 -11q10 -14 0 -24q-25 -27 -28 -57q-1 -7 1.5 -10t11.5 -5q23 -6 39.5 -28t16.5 -50q0 -34 -23 -57t-57 -23t-57 23t-23 57zM30 500q0 108 83 185q16 16 28 0l8 -11q10 -14 0 -24q-25 -27 -28 -57q-1 -7 1.5 -10t11.5 -5
q23 -6 39.5 -28t16.5 -50q0 -34 -23 -57t-57 -23t-57 23t-23 57z" />
    <glyph glyph-name="quotedblright" unicode="&#x201d;" horiz-adv-x="410" 
d="M380 630q0 -108 -83 -185q-16 -16 -28 0l-8 11q-10 14 0 24q25 27 28 57q1 7 -1.5 10t-11.5 5q-23 6 -39.5 28t-16.5 50q0 34 23 57t57 23t57 -23t23 -57zM190 630q0 -108 -83 -185q-16 -16 -28 0l-8 11q-10 14 0 24q25 27 28 57q1 7 -1.5 10t-11.5 5q-23 6 -39.5 28
t-16.5 50q0 34 23 57t57 23t57 -23t23 -57z" />
    <glyph glyph-name="quotedblbase" unicode="&#x201e;" horiz-adv-x="410" 
d="M380 70q0 -108 -83 -185q-16 -16 -28 0l-8 11q-10 14 0 24q25 27 28 57q1 7 -1.5 10t-11.5 5q-23 6 -39.5 28t-16.5 50q0 34 23 57t57 23t57 -23t23 -57zM190 70q0 -108 -83 -185q-16 -16 -28 0l-8 11q-10 14 0 24q25 27 28 57q1 7 -1.5 10t-11.5 5q-23 6 -39.5 28
t-16.5 50q0 34 23 57t57 23t57 -23t23 -57z" />
    <glyph glyph-name="dagger" unicode="&#x2020;" horiz-adv-x="440" 
d="M70 400v60q0 18 6 24t24 6h40q12 0 16 4t4 16v160q0 18 6 24t24 6h60q18 0 24 -6t6 -24v-160q0 -12 4 -16t16 -4h40q18 0 24 -6t6 -24v-60q0 -18 -6 -24t-24 -6h-40q-12 0 -16 -4t-4 -16v-500q0 -18 -6 -24t-24 -6h-60q-18 0 -24 6t-6 24v500q0 12 -4 16t-16 4h-40
q-18 0 -24 6t-6 24z" />
    <glyph glyph-name="daggerdbl" unicode="&#x2021;" horiz-adv-x="440" 
d="M70 60v60q0 18 6 24t24 6h40q12 0 16 4t4 16v180q0 12 -4 16t-16 4h-40q-18 0 -24 6t-6 24v60q0 18 6 24t24 6h40q12 0 16 4t4 16v160q0 18 6 24t24 6h60q18 0 24 -6t6 -24v-160q0 -12 4 -16t16 -4h40q18 0 24 -6t6 -24v-60q0 -18 -6 -24t-24 -6h-40q-12 0 -16 -4t-4 -16
v-180q0 -12 4 -16t16 -4h40q18 0 24 -6t6 -24v-60q0 -18 -6 -24t-24 -6h-40q-12 0 -16 -4t-4 -16v-160q0 -18 -6 -24t-24 -6h-60q-18 0 -24 6t-6 24v160q0 12 -4 16t-16 4h-40q-18 0 -24 6t-6 24z" />
    <glyph glyph-name="bullet" unicode="&#x2022;" horiz-adv-x="380" 
d="M80 315q0 49 30.5 79.5t79.5 30.5t79.5 -30.5t30.5 -79.5t-30.5 -79.5t-79.5 -30.5t-79.5 30.5t-30.5 79.5z" />
    <glyph glyph-name="ellipsis" unicode="&#x2026;" horiz-adv-x="640" 
d="M190 70q0 -34 -23 -57t-57 -23t-57 23t-23 57t23 57t57 23t57 -23t23 -57zM400 70q0 -34 -23 -57t-57 -23t-57 23t-23 57t23 57t57 23t57 -23t23 -57zM610 70q0 -34 -23 -57t-57 -23t-57 23t-23 57t23 57t57 23t57 -23t23 -57z" />
    <glyph glyph-name="perthousand" unicode="&#x2030;" horiz-adv-x="960" 
d="M170 440v170q0 20 -20 20t-20 -20v-170q0 -20 20 -20t20 20zM930 250v-150q0 -46 -33 -78t-87 -32t-87 32t-33 78v150q0 46 33 78t87 32t87 -32t33 -78zM830 90v170q0 20 -20 20t-20 -20v-170q0 -20 20 -20t20 20zM179 28l212 643q5 17 13 23t26 6h60q18 0 22 -6t-1 -23
l-143 -434l-69 -209q-5 -17 -13 -22.5t-26 -5.5h-60q-18 0 -22 6t1 22zM270 600v-150q0 -46 -33 -78t-87 -32t-87 32t-33 78v150q0 46 33 78t87 32t87 -32t33 -78zM660 250v-150q0 -46 -33 -78t-87 -32t-87 32t-33 78v150q0 46 33 78t87 32t87 -32t33 -78zM560 90v170
q0 20 -20 20t-20 -20v-170q0 -20 20 -20t20 20z" />
    <glyph glyph-name="guilsinglleft" unicode="&#x2039;" horiz-adv-x="300" 
d="M264 493l-87 -180v-6l87 -180q8 -17 4.5 -22t-21.5 -5h-90q-18 0 -27 5.5t-16 21.5l-78 165q-9 18 0 36l78 165q7 16 16 21.5t27 5.5h90q18 0 21.5 -5t-4.5 -22z" />
    <glyph glyph-name="guilsinglright" unicode="&#x203a;" horiz-adv-x="300" 
d="M36 127l87 180v6l-87 180q-8 17 -4.5 22t21.5 5h90q18 0 27 -5.5t16 -21.5l78 -165q9 -18 0 -36l-78 -165q-7 -16 -16 -21.5t-27 -5.5h-90q-18 0 -21.5 5t4.5 22z" />
    <glyph glyph-name="fraction" unicode="&#x2044;" horiz-adv-x="140" 
d="M-86 28l212 643q5 17 13 23t26 6h60q18 0 22 -6t-1 -23l-143 -434l-69 -209q-5 -17 -13 -22.5t-26 -5.5h-60q-18 0 -22 6t1 22z" />
    <glyph glyph-name="zerosuperior" unicode="&#x2070;" horiz-adv-x="300" 
d="M270 692v-122q0 -51 -33 -83t-87 -32t-87 32t-33 83v122q0 50 33 81.5t87 31.5t87 -31.5t33 -81.5zM170 555v150q0 20 -20 20t-20 -20v-150q0 -20 20 -20t20 20z" />
    <glyph glyph-name="foursuperior" unicode="&#x2074;" horiz-adv-x="280" 
d="M130 513h-90q-12 0 -16 4t-4 16v40q0 19 10 37l100 173q10 17 30 17h60q12 0 16 -4t4 -16v-177q0 -10 10 -10q12 0 16 -4t4 -16v-40q0 -12 -4 -16t-16 -4q-10 0 -10 -10v-23q0 -12 -4 -16t-16 -4h-60q-12 0 -16 4t-4 16v23q0 10 -10 10zM132 648l-27 -46q-5 -9 5 -9h20
q10 0 10 10v43q0 15 -8 2z" />
    <glyph glyph-name="fivesuperior" unicode="&#x2075;" horiz-adv-x="276" 
d="M110 559q0 -24 23 -24q11 0 17.5 6.5t6.5 17.5v42q0 17 -17 17t-17 -17h-60q-12 0 -16 4t-4 16v159q0 12 4 16t16 4h160q12 0 16 -4t4 -16v-40q0 -12 -4 -16t-16 -4h-90q-10 0 -10 -10v-35h5q17 16 53 16q75 0 75 -96v-39q0 -48 -30 -74.5t-83 -26.5t-83 26.5t-30 74.5v3
q0 9 3 12t12 3h50q9 0 12 -3t3 -12z" />
    <glyph glyph-name="sixsuperior" unicode="&#x2076;" horiz-adv-x="276" 
d="M30 559v146q0 47 29 73.5t81 26.5t81 -26.5t29 -73.5q0 -9 -3 -12t-12 -3h-50q-9 0 -12 3t-3 12q0 20 -20 20t-20 -20v-60h7q13 26 49 26q70 0 70 -84v-28q0 -48 -30.5 -76t-82.5 -28t-82.5 28t-30.5 76zM157 549v34q0 13 -14 13q-13 0 -13 -13v-34q0 -14 13 -14
q14 0 14 14z" />
    <glyph glyph-name="sevensuperior" unicode="&#x2077;" horiz-adv-x="245" 
d="M228 708l-88 -229q-5 -11 -10 -15t-17 -4h-63q-12 0 -14.5 4t1.5 15l89 232q4 9 -6 9h-85q-12 0 -16 4t-4 16v40q0 12 4 16t16 4h180q12 0 16 -4t4 -16v-33q0 -22 -7 -39z" />
    <glyph glyph-name="eightsuperior" unicode="&#x2078;" horiz-adv-x="280" 
d="M140 455q-55 0 -87.5 26.5t-32.5 72.5v9q0 31 13 50.5t26 23.5l13 4v5q-5 2 -12.5 6.5t-20 21.5t-12.5 37v4q0 40 31.5 65t81.5 25t81.5 -25t31.5 -65v-4q0 -20 -11 -36.5t-22 -22.5l-12 -6v-5q2 0 5.5 -1t12.5 -6.5t16 -13t12.5 -22.5t5.5 -35v-9q0 -46 -32.5 -72.5
t-87.5 -26.5zM140 733q-13 0 -13 -13v-35q0 -13 13 -13t13 13v35q0 13 -13 13zM140 609q-20 0 -20 -21v-41q0 -20 20 -20t20 20v41q0 21 -20 21z" />
    <glyph glyph-name="ninesuperior" unicode="&#x2079;" horiz-adv-x="276" 
d="M246 701v-146q0 -47 -29 -73.5t-81 -26.5t-81 26.5t-29 73.5q0 9 3 12t12 3h50q9 0 12 -3t3 -12q0 -20 20 -20t20 20v60h-7q-13 -26 -49 -26q-70 0 -70 84v28q0 48 30.5 76t82.5 28t82.5 -28t30.5 -76zM119 711v-34q0 -13 14 -13q13 0 13 13v34q0 14 -13 14
q-14 0 -14 -14z" />
    <glyph glyph-name="zeroinferior" unicode="&#x2080;" horiz-adv-x="300" 
d="M270 132v-122q0 -51 -33 -83t-87 -32t-87 32t-33 83v122q0 50 33 81.5t87 31.5t87 -31.5t33 -81.5zM170 -5v150q0 20 -20 20t-20 -20v-150q0 -20 20 -20t20 20z" />
    <glyph glyph-name="oneinferior" unicode="&#x2081;" horiz-adv-x="220" 
d="M30 180v40q0 12 4 16t16 4h100q12 0 16 -4t4 -16v-230q0 -10 10 -10h10q12 0 16 -4t4 -16v-40q0 -12 -4 -16t-16 -4h-140q-12 0 -16 4t-4 16v40q0 12 4 16t16 4h10q10 0 10 10v160q0 10 -10 10h-10q-12 0 -16 4t-4 16z" />
    <glyph glyph-name="twoinferior" unicode="&#x2082;" horiz-adv-x="276" 
d="M141 -20h89q12 0 16 -4t4 -16v-40q0 -12 -4 -16t-16 -4h-180q-12 0 -16 4t-4 16v60q0 31 20 57t43.5 40t43.5 31t20 34q0 23 -24 23q-23 0 -23 -23v1q0 -12 -4 -16t-16 -4h1h1h1v0v0h-1h-1h-1h-1h-1h-1h-1h-2h-1h-1h-2h-2h-2h-2h-2h-2h-2h-2h-3h-2h-3h-8q-12 0 -16 4
t-4 16q0 45 31.5 73.5t81.5 28.5t81.5 -28.5t31.5 -73.5q0 -28 -16 -52.5t-35.5 -39t-41 -30.5t-28.5 -26q-9 -15 6 -15z" />
    <glyph glyph-name="threeinferior" unicode="&#x2083;" horiz-adv-x="276" 
d="M150 123v22q0 20 -20 20t-20 -20q0 -9 -3 -12t-12 -3h-50q-9 0 -12 3t-3 12v2q0 47 29 72.5t81 25.5q110 0 110 -94v-4q0 -26 -13.5 -43t-26.5 -22l-14 -4v-5q7 -1 17 -4.5t26.5 -22t16.5 -46.5v-4q0 -48 -30 -74.5t-83 -26.5t-83 27t-30 75v2q0 9 3 12t12 3h50
q9 0 12 -3t3 -12q0 -24 23 -24q11 0 17.5 6.5t6.5 17.5v20q0 20 -20 20h-19q-9 0 -12 3t-3 12v40q0 9 3 12t12 3h19q13 0 13 14z" />
    <glyph glyph-name="fourinferior" unicode="&#x2084;" horiz-adv-x="280" 
d="M130 -47h-90q-12 0 -16 4t-4 16v40q0 19 10 37l100 173q10 17 30 17h60q12 0 16 -4t4 -16v-177q0 -10 10 -10q12 0 16 -4t4 -16v-40q0 -12 -4 -16t-16 -4q-10 0 -10 -10v-23q0 -12 -4 -16t-16 -4h-60q-12 0 -16 4t-4 16v23q0 10 -10 10zM132 88l-27 -46q-5 -9 5 -9h20
q10 0 10 10v43q0 15 -8 2z" />
    <glyph glyph-name="fiveinferior" unicode="&#x2085;" horiz-adv-x="276" 
d="M110 -1q0 -24 23 -24q11 0 17.5 6.5t6.5 17.5v42q0 17 -17 17t-17 -17h-60q-12 0 -16 4t-4 16v159q0 12 4 16t16 4h160q12 0 16 -4t4 -16v-40q0 -12 -4 -16t-16 -4h-90q-10 0 -10 -10v-35h5q17 16 53 16q75 0 75 -96v-39q0 -48 -30 -74.5t-83 -26.5t-83 26.5t-30 74.5v3
q0 9 3 12t12 3h50q9 0 12 -3t3 -12z" />
    <glyph glyph-name="sixinferior" unicode="&#x2086;" horiz-adv-x="276" 
d="M30 -1v146q0 47 29 73.5t81 26.5t81 -26.5t29 -73.5q0 -9 -3 -12t-12 -3h-50q-9 0 -12 3t-3 12q0 20 -20 20t-20 -20v-60h7q13 26 49 26q70 0 70 -84v-28q0 -48 -30.5 -76t-82.5 -28t-82.5 28t-30.5 76zM157 -11v34q0 13 -14 13q-13 0 -13 -13v-34q0 -14 13 -14
q14 0 14 14z" />
    <glyph glyph-name="seveninferior" unicode="&#x2087;" horiz-adv-x="245" 
d="M228 148l-88 -229q-5 -11 -10 -15t-17 -4h-63q-12 0 -14.5 4t1.5 15l89 232q4 9 -6 9h-85q-12 0 -16 4t-4 16v40q0 12 4 16t16 4h180q12 0 16 -4t4 -16v-33q0 -21 -7 -39z" />
    <glyph glyph-name="eightinferior" unicode="&#x2088;" horiz-adv-x="280" 
d="M140 -105q-55 0 -87.5 26.5t-32.5 72.5v9q0 31 13 50.5t26 23.5l13 4v5q-5 2 -12.5 6.5t-20 21.5t-12.5 37v4q0 40 31.5 65t81.5 25t81.5 -25t31.5 -65v-4q0 -20 -11 -36t-22 -23l-12 -6v-5q2 0 5.5 -1t12.5 -6.5t16 -13t12.5 -22.5t5.5 -35v-9q0 -46 -32.5 -72.5
t-87.5 -26.5zM140 173q-13 0 -13 -13v-35q0 -13 13 -13t13 13v35q0 13 -13 13zM140 49q-20 0 -20 -21v-41q0 -20 20 -20t20 20v41q0 21 -20 21z" />
    <glyph glyph-name="nineinferior" unicode="&#x2089;" horiz-adv-x="276" 
d="M246 141v-146q0 -47 -29 -73.5t-81 -26.5t-81 26.5t-29 73.5q0 9 3 12t12 3h50q9 0 12 -3t3 -12q0 -20 20 -20t20 20v60h-7q-13 -26 -49 -26q-70 0 -70 84v28q0 48 30.5 76t82.5 28t82.5 -28t30.5 -76zM119 151v-34q0 -13 14 -13q13 0 13 13v34q0 14 -13 14
q-14 0 -14 -14z" />
    <glyph glyph-name="Euro" unicode="&#x20ac;" horiz-adv-x="460" 
d="M50 330h15q9 0 12 3t3 12v10q0 9 -3 12t-12 3h-15q-12 0 -16 4t-4 16v55q0 12 4 16t16 4h15q9 0 12 3t3 12v65q0 73 47.5 119t127.5 46t127.5 -46t47.5 -119v-25q0 -18 -6 -24t-24 -6h-60q-18 0 -24 6t-6 24v30q0 17 -11.5 28.5t-28.5 11.5t-28.5 -11.5t-11.5 -28.5v-70
q0 -9 3 -12t12 -3h90q12 0 16 -4t4 -16v-55q0 -12 -4 -16t-16 -4h-90q-9 0 -12 -3t-3 -12v-10q0 -9 3 -12t12 -3h90q12 0 16 -4t4 -16v-55q0 -12 -4 -16t-16 -4h-90q-9 0 -12 -3t-3 -12v-70q0 -17 11.5 -28.5t28.5 -11.5t28.5 11.5t11.5 28.5v30q0 18 6 24t24 6h60
q18 0 24 -6t6 -24v-25q0 -73 -47.5 -119t-127.5 -46t-127.5 46t-47.5 119v65q0 9 -3 12t-12 3h-15q-12 0 -16 4t-4 16v55q0 12 4 16t16 4z" />
    <glyph glyph-name="uni20B4" unicode="&#x20b4;" 
d="M240 550q0 17 -11.5 28.5t-28.5 11.5t-28.5 -11.5t-11.5 -28.5v-30q0 -18 -6 -24t-24 -6h1h1h1h1h1v0h-1v0h-1h-1h-1h-1h-1h-1h-1h-1h-2h-1h-1h-2h-1h-2h-1h-2h-2h-1h-2h-2h-2h-2h-2h-3h-2h-2h-3h-3h-2h-4h-3h-9q-18 0 -24 6t-6 24v25q0 73 48 119t127 46q80 0 127.5 -46
t47.5 -119q0 -59 -34 -93q-5 -4 -4 -8t7 -4h6q15 0 20 -5t5 -20v-30q0 -15 -5 -20t-20 -5h-300q-15 0 -20 5t-5 20v30q0 15 5 20t20 5h84q31 0 49 12q42 29 42 98zM190 150q0 -17 11.5 -28.5t28.5 -11.5t28.5 11.5t11.5 28.5v30q0 18 6 24t24 6h-1h-1h-1h-1h-1v0h1v0h1h1h1
h1h1h1h1h1h2h1h1h2h1h2h1h2h2h1h2h2h2h2h2h3h2h2h3h3h2h4h3h9q18 0 24 -6t6 -24v-25q0 -73 -48 -119t-127 -46q-80 0 -127.5 46t-47.5 119q0 59 34 93q5 4 4 8t-7 4h-6q-15 0 -20 5t-5 20v30q0 15 5 20t20 5h300q15 0 20 -5t5 -20v-30q0 -15 -5 -20t-20 -5h-84
q-31 0 -49 -12q-42 -29 -42 -98z" />
    <glyph glyph-name="uni20BD" unicode="&#x20bd;" horiz-adv-x="475" 
d="M235 255v-5q0 -9 3 -12t12 -3h65q18 0 24 -6t6 -24v-50q0 -18 -6 -24t-24 -6h-65q-9 0 -12 -3t-3 -12v-80q0 -18 -6 -24t-24 -6h-90q-18 0 -24 6t-6 24v80q0 9 -3 12t-12 3h-20q-18 0 -24 6t-6 24v50q0 18 6 24t24 6h20q9 0 12 3t3 12v5q0 9 -3 12t-12 3h-20q-18 0 -24 6
t-6 24v50q0 18 6 24t24 6h20q9 0 12 3t3 12v275q0 18 6 24t24 6h145q86 0 135.5 -48t49.5 -127v-90q0 -75 -45 -120t-120 -45h-30q-9 0 -12 -3t-3 -12zM250 380h10q15 0 25 10t10 25v130q0 15 -10 25t-25 10h-10q-9 0 -12 -3t-3 -12v-170q0 -9 3 -12t12 -3z" />
    <glyph glyph-name="afii61352" unicode="&#x2116;" horiz-adv-x="710" 
d="M680 610v-160q0 -46 -33 -78t-87 -32t-87 32t-33 78v160q0 46 33 78t87 32t87 -32t33 -78zM580 440v180q0 20 -20 20t-20 -20v-180q0 -20 20 -20t20 20zM440 230v50q0 18 6 24t24 6h180q18 0 24 -6t6 -24v-50q0 -18 -6 -24t-24 -6h-180q-18 0 -24 6t-6 24zM160 290v-260
q0 -18 -6 -24t-24 -6h-60q-18 0 -24 6t-6 24v640q0 18 6 24t24 6h70q18 0 26 -6t13 -23l81 -261h10v260q0 18 6 24t24 6h60q18 0 24 -6t6 -24v-640q0 -18 -6 -24t-24 -6h-70q-18 0 -26 6t-13 23l-81 261h-10z" />
    <glyph glyph-name="trademark" unicode="&#x2122;" horiz-adv-x="648" 
d="M10 640v40q0 12 4 16t16 4h207q12 0 16 -4t4 -16v-40q0 -12 -4 -16t-16 -4h-44q-10 0 -10 -10v-230q0 -12 -4 -16t-16 -4h-60q-12 0 -16 4t-4 16v230q0 10 -10 10h-43q-12 0 -16 4t-4 16zM448 532h7l41 149q3 11 8 15t17 4h77q12 0 16 -4t4 -16v-300q0 -12 -4 -16t-16 -4
h-60q-12 0 -16 4t-4 16v148h-7l-41 -154q-4 -14 -19 -14h-19q-15 0 -19 14l-42 154h-6v-148q0 -12 -4 -16t-16 -4h-40q-12 0 -16 4t-4 16v300q0 12 4 16t16 4h77q12 0 17 -4t8 -15z" />
    <glyph glyph-name="minus" unicode="&#x2212;" horiz-adv-x="390" 
d="M30 320v50q0 18 6 24t24 6h270q18 0 24 -6t6 -24v-50q0 -18 -6 -24t-24 -6h-270q-18 0 -24 6t-6 24z" />
    <glyph glyph-name="commaaccent" unicode="&#xf6c3;" horiz-adv-x="200" 
d="M170 -80q0 -56 -23 -99.5t-50 -68.5q-13 -13 -24 0l-8 11q-9 12 0 21q21 24 24 55q1 9 -11 13q-20 5 -34 24t-14 44q0 29 20.5 49.5t49.5 20.5t49.5 -20.5t20.5 -49.5z" />
    <glyph glyph-name="cyrBreve" unicode="&#xf6d1;" horiz-adv-x="340" 
d="M170 710q-67 0 -103.5 34.5t-36.5 95.5q0 12 4 16t16 4h60q12 0 16 -4t4 -16v-10q0 -40 40 -40t40 40v10q0 12 4 16t16 4h60q12 0 16 -4t4 -16q0 -61 -36.5 -95.5t-103.5 -34.5z" />
    <glyph glyph-name="cyrbreve" unicode="&#xf6d4;" horiz-adv-x="320" 
d="M160 570q-59 0 -94.5 33.5t-35.5 86.5q0 12 4 16t16 4h60q12 0 16 -4t4 -16v-10q0 -30 30 -30t30 30v10q0 12 4 16t16 4h60q12 0 16 -4t4 -16q0 -53 -35.5 -86.5t-94.5 -33.5z" />
    <glyph glyph-name="germandbls" horiz-adv-x="460" 
d="M250 -10q-9 0 -12 3t-3 12v90q0 9 3 12t12 3q13 0 21.5 8.5t8.5 21.5v165q0 15 -8.5 25t-21.5 10q-20 0 -20 20v60q0 20 5 39l29 102q4 11 1 15t-15 4h-25q-15 0 -25 -10t-10 -25v-515q0 -18 -6 -24t-24 -6h-90q-18 0 -24 6t-6 24v495q0 79 49.5 127t135.5 48v0v0h1v0h1
v0h1h1h1h1h1h1h1h1h1h1h1h1h1h1h1h1h1h1h1h1h1h1h1h1h1h2h1h1h1h1h2h1h1h2h1h1h2h1h1h2h1h2h1h1h2h1h2h1h2h2h1h2h1h2h2h1h2h2h1h2h2h2h1h2h2h2h2h1h2h2h2h2h2h2h2h2h2h2h2h2h2h3h2h2h2h3h2h2h3h2h3h2h3h3h3h3h9q18 0 24 -6t6 -24v1v1v1v1v1v0v-1v0v-1v-1v-1v-1v-1v-1v-1v-1
v-2v-1v-1v-2v-1v-2v-1v-2v-2v-1v-2v-2v-2v-2v-2v-3v-2v-2v-3v-3v-2v-4v-3v-9q0 -28 -8 -59l-38 -135q-3 -15 6 -19q50 -21 50 -92v-145q0 -76 -49 -123t-131 -47z" />
    <glyph glyph-name="zero.numr" horiz-adv-x="300" 
d="M270 592v-122q0 -51 -33 -83t-87 -32t-87 32t-33 83v122q0 50 33 81.5t87 31.5t87 -31.5t33 -81.5zM170 455v150q0 20 -20 20t-20 -20v-150q0 -20 20 -20t20 20z" />
    <glyph glyph-name="one.numr" horiz-adv-x="220" 
d="M30 640v40q0 12 4 16t16 4h100q12 0 16 -4t4 -16v-230q0 -10 10 -10h10q12 0 16 -4t4 -16v-40q0 -12 -4 -16t-16 -4h-140q-12 0 -16 4t-4 16v40q0 12 4 16t16 4h10q10 0 10 10v160q0 10 -10 10h-10q-12 0 -16 4t-4 16z" />
    <glyph glyph-name="two.numr" horiz-adv-x="276" 
d="M141 440h89q12 0 16 -4t4 -16v-40q0 -12 -4 -16t-16 -4h-180q-12 0 -16 4t-4 16v60q0 31 20 57t43.5 40t43.5 31t20 34q0 23 -24 23q-23 0 -23 -23v1q0 -12 -4 -16t-16 -4h1h1h1v0v0h-1h-1h-1h-1h-1h-1h-1h-2h-1h-1h-2h-2h-2h-2h-2h-2h-2h-2h-3h-2h-3h-8q-12 0 -16 4
t-4 16q0 45 31.5 73.5t81.5 28.5t81.5 -28.5t31.5 -73.5q0 -28 -16 -52.5t-35.5 -39t-41 -30.5t-28.5 -26q-9 -15 6 -15z" />
    <glyph glyph-name="three.numr" horiz-adv-x="276" 
d="M150 583v22q0 20 -20 20t-20 -20q0 -9 -3 -12t-12 -3h-50q-9 0 -12 3t-3 12v2q0 47 29 72.5t81 25.5q110 0 110 -94v-4q0 -26 -13.5 -43t-26.5 -22l-14 -4v-5q7 -1 17 -4.5t26.5 -22t16.5 -46.5v-4q0 -48 -30 -74.5t-83 -26.5t-83 27t-30 75v2q0 9 3 12t12 3h50
q9 0 12 -3t3 -12q0 -24 23 -24q11 0 17.5 6.5t6.5 17.5v20q0 20 -20 20h-19q-9 0 -12 3t-3 12v40q0 9 3 12t12 3h19q13 0 13 14z" />
    <glyph glyph-name="four.numr" horiz-adv-x="280" 
d="M130 413h-90q-12 0 -16 4t-4 16v40q0 19 10 37l100 173q10 17 30 17h60q12 0 16 -4t4 -16v-177q0 -10 10 -10q12 0 16 -4t4 -16v-40q0 -12 -4 -16t-16 -4q-10 0 -10 -10v-23q0 -12 -4 -16t-16 -4h-60q-12 0 -16 4t-4 16v23q0 10 -10 10zM132 548l-27 -46q-5 -9 5 -9h20
q10 0 10 10v43q0 15 -8 2z" />
    <glyph glyph-name="five.numr" horiz-adv-x="276" 
d="M110 459q0 -24 23 -24q11 0 17.5 6.5t6.5 17.5v42q0 17 -17 17t-17 -17h-60q-12 0 -16 4t-4 16v159q0 12 4 16t16 4h160q12 0 16 -4t4 -16v-40q0 -12 -4 -16t-16 -4h-90q-10 0 -10 -10v-35h5q17 16 53 16q75 0 75 -96v-39q0 -48 -30 -74.5t-83 -26.5t-83 26.5t-30 74.5v3
q0 9 3 12t12 3h50q9 0 12 -3t3 -12z" />
    <glyph glyph-name="six.numr" horiz-adv-x="276" 
d="M30 459v146q0 47 29 73.5t81 26.5t81 -26.5t29 -73.5q0 -9 -3 -12t-12 -3h-50q-9 0 -12 3t-3 12q0 20 -20 20t-20 -20v-60h7q13 26 49 26q70 0 70 -84v-28q0 -48 -30.5 -76t-82.5 -28t-82.5 28t-30.5 76zM157 449v34q0 13 -14 13q-13 0 -13 -13v-34q0 -14 13 -14
q14 0 14 14z" />
    <glyph glyph-name="seven.numr" horiz-adv-x="245" 
d="M228 608l-88 -229q-5 -11 -10 -15t-17 -4h-63q-12 0 -14.5 4t1.5 15l89 232q4 9 -6 9h-85q-12 0 -16 4t-4 16v40q0 12 4 16t16 4h180q12 0 16 -4t4 -16v-33q0 -21 -7 -39z" />
    <glyph glyph-name="eight.numr" horiz-adv-x="280" 
d="M140 355q-55 0 -87.5 26.5t-32.5 72.5v9q0 31 13 50.5t26 23.5l13 4v5q-5 2 -12.5 6.5t-20 21.5t-12.5 37v4q0 40 31.5 65t81.5 25t81.5 -25t31.5 -65v-4q0 -20 -11 -36.5t-22 -22.5l-12 -6v-5q2 0 5.5 -1t12.5 -6.5t16 -13t12.5 -22.5t5.5 -35v-9q0 -46 -32.5 -72.5
t-87.5 -26.5zM140 633q-13 0 -13 -13v-35q0 -13 13 -13t13 13v35q0 13 -13 13zM140 509q-20 0 -20 -21v-41q0 -20 20 -20t20 20v41q0 21 -20 21z" />
    <glyph glyph-name="nine.numr" horiz-adv-x="276" 
d="M246 601v-146q0 -47 -29 -73.5t-81 -26.5t-81 26.5t-29 73.5q0 9 3 12t12 3h50q9 0 12 -3t3 -12q0 -20 20 -20t20 20v60h-7q-13 -26 -49 -26q-70 0 -70 84v28q0 48 30.5 76t82.5 28t82.5 -28t30.5 -76zM119 611v-34q0 -13 14 -13q13 0 13 13v34q0 14 -13 14
q-14 0 -14 -14z" />
    <glyph glyph-name="ampersand.alt2" horiz-adv-x="440" 
d="M380 470v-20q0 -12 4 -16t16 -4q18 0 24 -6t6 -24v-60q0 -18 -6 -24t-24 -6q-12 0 -16 -4t-4 -16v-135q0 -74 -48 -119.5t-128 -45.5q-79 0 -126.5 46t-47.5 119v70q0 34 8 60.5t20 41t24 23.5t20 12l8 3v10q-2 1 -6.5 3.5t-14.5 12t-18 21t-14.5 31.5t-6.5 42v40
q0 81 45.5 128t129.5 47h75q18 0 24 -6t6 -24v-60q0 -18 -6 -24t-24 -6h-75q-15 0 -25 -10t-10 -25v-80q0 -15 10 -25t25 -10h15q12 0 16 4t4 16v20q0 18 6 24t24 6h60q18 0 24 -6t6 -24zM220 110q18 0 29 11.5t11 29.5v139q0 12 -4 16t-16 4h-30q-14 0 -22 -8t-8 -22v-129
q0 -18 11 -29.5t29 -11.5z" />
    <glyph glyph-name="ampersand.alt1" horiz-adv-x="465" 
d="M360 564v-17q0 -49 -24 -92.5t-71 -94.5l30 -50v20q0 18 6 24t24 6h60q18 0 24 -6t6 -24v-160q0 -13 -2.5 -25.5t-4.5 -18.5l-3 -6h30q18 0 24 -6t6 -24v-60q0 -18 -6 -24t-24 -6h-60q-14 0 -24.5 3.5t-16 8t-14.5 13.5q-45 -35 -116 -35q-81 0 -130 47t-49 123v47
q0 43 22 80t63 83q-34 53 -47 90.5t-13 86.5v17q0 60 44.5 103t110.5 43q67 0 111 -42.5t44 -103.5zM220 110q11 0 21 5t15 10l4 5l-75 120q-10 -20 -10 -48v-46q0 -20 11.5 -33t33.5 -13zM240 544v11q0 13 -10.5 24t-24.5 11q-13 0 -24 -11t-11 -24v-11q0 -32 35 -84
q35 52 35 84z" />
    </font>
</defs>
</svg>
