<svg width="11" height="7" viewBox="0 0 11 7" fill="none" xmlns="http://www.w3.org/2000/svg">
<path d="M10.165 0H0.834954C0.669806 3.89637e-05 0.508377 0.0541799 0.371073 0.155579C0.233769 0.256978 0.126756 0.401082 0.0635614 0.569673C0.000367165 0.738265 -0.0161715 0.923773 0.016037 1.10275C0.0482464 1.28172 0.127758 1.44613 0.244517 1.57518L4.90956 6.72982C5.06617 6.90282 5.27855 7 5.5 7C5.72145 7 5.93383 6.90282 6.09044 6.72982L10.7555 1.57518C10.8722 1.44613 10.9518 1.28172 10.984 1.10275C11.0162 0.923773 10.9996 0.738265 10.9364 0.569673C10.8732 0.401082 10.7662 0.256978 10.6289 0.155579C10.4916 0.0541799 10.3302 3.89637e-05 10.165 0Z" fill="#AC8E62"/>
</svg>
