<svg width="24" height="17" viewBox="0 0 24 17" fill="none" xmlns="http://www.w3.org/2000/svg">
<g opacity="0.5">
<path d="M23.5869 3.63325L15.4458 9.97696C14.5381 10.6825 13.3083 11.0787 12.0262 11.0787C10.744 11.0787 9.51423 10.6825 8.60648 9.97696L0.465385 3.63325C0.451846 3.75231 0.420898 3.86008 0.420898 3.97839V13.0215C0.422434 14.0204 0.932383 14.9781 1.83889 15.6845C2.74539 16.3908 3.97443 16.7882 5.25642 16.7894H18.7959C20.0779 16.7882 21.3069 16.3908 22.2134 15.6845C23.1199 14.9781 23.6299 14.0204 23.6314 13.0215V3.97839C23.6314 3.86008 23.6005 3.75231 23.5869 3.63325Z" fill="#F5F5F7"/>
<path d="M14.0784 8.91138L22.9119 2.02735C22.484 1.47446 21.8804 1.01682 21.1595 0.698571C20.4385 0.380325 19.6245 0.212213 18.7959 0.210449H5.25642C4.42783 0.212213 3.6138 0.380325 2.89285 0.698571C2.17189 1.01682 1.56835 1.47446 1.14042 2.02735L9.97396 8.91138C10.519 9.33438 11.2569 9.57188 12.0262 9.57188C12.7954 9.57188 13.5333 9.33438 14.0784 8.91138Z" fill="#F5F5F7"/>
</g>
</svg>
