<svg width="26" height="19" viewBox="0 0 26 19" fill="none" xmlns="http://www.w3.org/2000/svg">
<path d="M25.9515 4.11609L17.1126 11.0035C16.127 11.7696 14.7918 12.1998 13.3998 12.1998C12.0078 12.1998 10.6726 11.7696 9.68701 11.0035L0.848105 4.11609C0.833405 4.24536 0.799805 4.36236 0.799805 4.49081V14.309C0.801472 15.3936 1.35513 16.4334 2.33934 17.2003C3.32354 17.9672 4.65793 18.3986 6.04981 18.3999H20.7498C22.1417 18.3986 23.4761 17.9672 24.4603 17.2003C25.4445 16.4334 25.9981 15.3936 25.9998 14.309V4.49081C25.9998 4.36236 25.9662 4.24536 25.9515 4.11609Z" fill="white"/>
<path d="M15.6279 9.84663L25.2186 2.37254C24.754 1.77225 24.0987 1.27539 23.316 0.929864C22.5332 0.584339 21.6494 0.401817 20.7498 0.399902H6.04981C5.15019 0.401817 4.26638 0.584339 3.48363 0.929864C2.70088 1.27539 2.04561 1.77225 1.581 2.37254L11.1717 9.84663C11.7635 10.3059 12.5646 10.5637 13.3998 10.5637C14.235 10.5637 15.0362 10.3059 15.6279 9.84663Z" fill="white"/>
</svg>
