<svg width="8" height="5" viewBox="0 0 8 5" fill="none" xmlns="http://www.w3.org/2000/svg">
<path d="M7.39276 0H0.607239C0.487132 2.78312e-05 0.369728 0.0386999 0.269871 0.111128C0.170013 0.183555 0.0921855 0.286487 0.046226 0.40691C0.000266552 0.527332 -0.0117617 0.659838 0.0116634 0.787678C0.0350881 0.915517 0.0929146 1.03295 0.17783 1.12513L3.57059 4.80702C3.68449 4.93058 3.83895 5 4 5C4.16105 5 4.31551 4.93058 4.42941 4.80702L7.82217 1.12513C7.90709 1.03295 7.96491 0.915517 7.98834 0.787678C8.01176 0.659838 7.99973 0.527332 7.95377 0.40691C7.90781 0.286487 7.82999 0.183555 7.73013 0.111128C7.63027 0.0386999 7.51287 2.78312e-05 7.39276 0Z" fill="white"/>
</svg>
