<svg width="16" height="26" viewBox="0 0 16 26" fill="none" xmlns="http://www.w3.org/2000/svg">
<path d="M8.49802 6.55673e-07C12.6336 2.9413e-07 15.998 3.43073 15.998 7.64776L15.998 18.3522C15.998 22.5693 12.6336 26 8.49802 26C4.36246 26 0.998049 22.5693 0.998048 18.3522L0.998048 7.64776C0.998047 3.43073 4.36246 1.01722e-06 8.49802 6.55673e-07ZM2.52786 18.3522C2.52786 21.709 5.20612 24.4401 8.49802 24.4401C11.7899 24.4401 14.4682 21.709 14.4682 18.3522L14.4682 7.64776C14.4682 4.29102 11.7899 1.55995 8.49802 1.55995C5.20617 1.55995 2.52786 4.29102 2.52786 7.64776L2.52786 18.3522Z" fill="#B1B1B8"/>
<path d="M8.49787 5.17217C8.92038 5.17217 9.26276 5.52129 9.26276 5.95212L9.26276 9.5421C9.26276 9.97273 8.92038 10.3221 8.49782 10.3221C8.07552 10.3221 7.73294 9.97273 7.73294 9.5421L7.73294 5.95212C7.73294 5.52129 8.07532 5.17217 8.49787 5.17217Z" fill="#B1B1B8"/>
</svg>
