<svg width="14" height="10" viewBox="0 0 14 10" fill="none" xmlns="http://www.w3.org/2000/svg">
<path d="M13 5.63375C13.35 5.63375 13.6337 5.35001 13.6337 5C13.6337 4.64999 13.35 4.36625 13 4.36625V5.63375ZM0.551871 4.55187C0.304377 4.79937 0.304377 5.20063 0.551871 5.44813L4.58503 9.48129C4.83252 9.72878 5.23379 9.72878 5.48129 9.48129C5.72878 9.23379 5.72878 8.83252 5.48129 8.58503L1.89626 5L5.48129 1.41497C5.72878 1.16748 5.72878 0.766208 5.48129 0.518713C5.23379 0.271218 4.83252 0.271218 4.58503 0.518713L0.551871 4.55187ZM13 4.36625L1 4.36625V5.63375L13 5.63375V4.36625Z" fill="#0D0D0D" fill-opacity="0.76"/>
</svg>
