<svg width="22" height="14" viewBox="0 0 22 14" fill="none" xmlns="http://www.w3.org/2000/svg">
<path d="M11.0563 13.0876H12.3367C12.3367 13.0876 12.7238 13.0434 12.9207 12.8238C13.1029 12.6222 13.0962 12.2439 13.0962 12.2439C13.0962 12.2439 13.0707 10.4723 13.869 10.2113C14.6552 9.95446 15.6651 11.9235 16.7353 12.6816C17.5443 13.2547 18.159 13.129 18.159 13.129L21.0213 13.0876C21.0213 13.0876 22.5187 12.9923 21.8089 11.7785C21.7513 11.6791 21.395 10.881 19.6806 9.24056C17.8858 7.5228 18.1269 7.80173 20.2887 4.83155C21.6053 3.02265 22.1316 1.91798 21.9669 1.44573C21.8102 0.995581 20.8418 1.11433 20.8418 1.11433L17.6219 1.13366C17.6219 1.13366 17.3835 1.10052 17.2054 1.20961C17.0326 1.31732 16.9214 1.56587 16.9214 1.56587C16.9214 1.56587 16.4111 2.96604 15.7307 4.15632C14.2963 6.66806 13.7217 6.80062 13.4873 6.64459C12.9421 6.28143 13.0788 5.18366 13.0788 4.40487C13.0788 1.97045 13.4364 0.955536 12.3809 0.693177C12.03 0.606184 11.7729 0.548189 10.8768 0.538523C9.72761 0.526096 8.75388 0.542666 8.2034 0.820214C7.83641 1.00525 7.55379 1.41812 7.72658 1.44159C7.93954 1.47059 8.42172 1.57553 8.67754 1.93455C9.00837 2.39713 8.99631 3.43828 8.99631 3.43828C8.99631 3.43828 9.1865 6.30352 8.55298 6.65978C8.11768 6.90419 7.52165 6.4057 6.24254 4.12594C5.58758 2.95913 5.09201 1.66805 5.09201 1.66805C5.09201 1.66805 4.99691 1.42778 4.82681 1.29937C4.62054 1.14333 4.33124 1.09362 4.33124 1.09362L1.26941 1.11295C1.26941 1.11295 0.809998 1.12676 0.641236 1.33251C0.491225 1.51616 0.629182 1.89451 0.629182 1.89451C0.629182 1.89451 3.02668 7.67607 5.74027 10.591C8.23018 13.2629 11.0563 13.0876 11.0563 13.0876Z" fill="#79AFFF"/>
</svg>
