<svg width="22" height="21" viewBox="0 0 22 21" fill="none" xmlns="http://www.w3.org/2000/svg">
<path opacity="0.5" fill-rule="evenodd" clip-rule="evenodd" d="M18.2558 3.05183C16.2817 1.08488 13.6563 0.00114844 10.8593 0C5.09599 0 0.405439 4.66797 0.403131 10.4053C0.402339 12.2393 0.883739 14.0296 1.7988 15.6077L0.31543 21L5.85843 19.5529C7.38574 20.3821 9.10524 20.819 10.8551 20.8195H10.8595C16.6222 20.8195 21.3133 16.1512 21.3154 10.4136C21.3166 7.63301 20.23 5.01867 18.2558 3.05183ZM10.8593 19.0621H10.8557C9.29634 19.0614 7.76695 18.6444 6.43241 17.8565L6.11523 17.669L2.82592 18.5277L3.70385 15.3361L3.49713 15.0089C2.62717 13.6318 2.16777 12.0401 2.16856 10.4059C2.17037 5.63719 6.06911 1.7575 10.8628 1.7575C13.1841 1.75826 15.3662 2.65906 17.007 4.29391C18.6478 5.92876 19.5509 8.10183 19.5501 10.4129C19.5481 15.182 15.6496 19.0621 10.8593 19.0621ZM15.6264 12.5843C15.3652 12.4541 14.0806 11.8253 13.8411 11.7384C13.6018 11.6516 13.4274 11.6084 13.2534 11.8686C13.0792 12.1288 12.5785 12.7145 12.426 12.888C12.2736 13.0615 12.1213 13.0833 11.86 12.9531C11.5987 12.823 10.7569 12.5483 9.75895 11.6625C8.98233 10.9731 8.45804 10.1216 8.30555 9.86144C8.15333 9.60097 8.30423 9.47382 8.42015 9.33076C8.70297 8.98124 8.98619 8.61479 9.07326 8.44138C9.16044 8.2678 9.11678 8.11594 9.05137 7.98584C8.98619 7.85574 8.46371 6.57592 8.24604 6.05515C8.03381 5.54836 7.81858 5.61678 7.65811 5.60887C7.50589 5.60129 7.33164 5.59975 7.15739 5.59975C6.98324 5.59975 6.70016 5.66472 6.46063 5.92518C6.2212 6.18552 5.54636 6.81447 5.54636 8.09429C5.54636 9.3741 6.48252 10.6104 6.61312 10.784C6.74368 10.9576 8.45546 13.5838 11.0762 14.71C11.6995 14.9781 12.1861 15.1379 12.5657 15.2578C13.1916 15.4557 13.761 15.4277 14.2112 15.3608C14.7132 15.2861 15.7568 14.7318 15.9747 14.1244C16.1924 13.5171 16.1924 12.9965 16.127 12.888C16.0618 12.7795 15.8876 12.7145 15.6264 12.5843Z" fill="white"/>
</svg>
