<svg width="26" height="26" viewBox="0 0 26 26" fill="none" xmlns="http://www.w3.org/2000/svg">
<path fill-rule="evenodd" clip-rule="evenodd" d="M21.9288 4.46224C19.5599 2.1019 16.4094 0.801427 13.0531 0.800049C6.13706 0.800049 0.508401 6.40162 0.505632 13.2864C0.504682 15.4872 1.08236 17.6356 2.18043 19.5293L0.400391 26.0001L7.05199 24.2635C8.88477 25.2585 10.9482 25.7829 13.048 25.7835H13.0533C19.9685 25.7835 25.5978 20.1815 25.6004 13.2964C25.6018 9.95966 24.2979 6.82246 21.9288 4.46224ZM13.0531 23.6746H13.0487C11.1775 23.6738 9.34221 23.1733 7.74077 22.2279L7.36016 22.0028L3.41298 23.0333L4.4665 19.2033L4.21843 18.8107C3.17449 17.1582 2.6232 15.2482 2.62415 13.2871C2.62632 7.56468 7.30481 2.90905 13.0573 2.90905C15.8428 2.90996 18.4614 3.99092 20.4303 5.95274C22.3992 7.91456 23.4829 10.5223 23.482 13.2956C23.4795 19.0185 18.8014 23.6746 13.0531 23.6746ZM18.7735 15.9012C18.4601 15.745 16.9186 14.9904 16.6312 14.8861C16.344 14.782 16.1347 14.7301 15.926 15.0424C15.7169 15.3546 15.1161 16.0575 14.9331 16.2656C14.7501 16.4739 14.5675 16.5 14.2539 16.3438C13.9403 16.1876 12.9302 15.858 11.7326 14.7951C10.8007 13.9677 10.1715 12.946 9.98854 12.6338C9.80587 12.3212 9.98695 12.1686 10.1261 11.997C10.4654 11.5775 10.8053 11.1378 10.9098 10.9297C11.0144 10.7214 10.962 10.5392 10.8835 10.3831C10.8053 10.2269 10.1783 8.69115 9.91712 8.06623C9.66245 7.45809 9.40417 7.54018 9.21161 7.53069C9.02894 7.5216 8.81984 7.51975 8.61075 7.51975C8.40177 7.51975 8.06207 7.59771 7.77463 7.91027C7.48732 8.22267 6.67751 8.97741 6.67751 10.5132C6.67751 12.049 7.8009 13.5326 7.95762 13.7408C8.11429 13.9491 10.1684 17.1006 13.3133 18.452C14.0613 18.7738 14.6452 18.9656 15.1007 19.1094C15.8518 19.3469 16.5351 19.3134 17.0753 19.233C17.6777 19.1434 18.9301 18.4782 19.1916 17.7494C19.4528 17.0205 19.4528 16.3959 19.3742 16.2656C19.2961 16.1355 19.087 16.0575 18.7735 15.9012Z" fill="white"/>
</svg>
