<svg width="18" height="18" viewBox="0 0 18 18" fill="none" xmlns="http://www.w3.org/2000/svg">
<path fill-rule="evenodd" clip-rule="evenodd" d="M15.3774 2.61585C13.6854 0.929897 11.435 0.000984375 9.03763 0C4.09762 0 0.0771505 4.00112 0.0751723 8.9188C0.074494 10.4909 0.487122 12.0254 1.27146 13.3781L0 18L4.75114 16.7596C6.06027 17.4704 7.53413 17.8449 9.03398 17.8453H9.03777C13.9772 17.8453 17.9981 13.8439 18 8.92595C18.001 6.54258 17.0696 4.30172 15.3774 2.61585ZM9.03763 16.3389H9.03452C7.69792 16.3384 6.38701 15.9809 5.24312 15.3056L4.97126 15.1448L2.15185 15.8809L2.90436 13.1452L2.72717 12.8647C1.9815 11.6844 1.58772 10.3201 1.5884 8.91934C1.58995 4.83187 4.93172 1.50643 9.04062 1.50643C11.0303 1.50708 12.9007 2.27919 14.3071 3.68049C15.7134 5.08179 16.4875 6.94443 16.4869 8.92538C16.4851 13.0132 13.1436 16.3389 9.03763 16.3389ZM13.1237 10.7866C12.8998 10.675 11.7987 10.136 11.5934 10.0615C11.3883 9.9871 11.2388 9.95006 11.0897 10.1731C10.9403 10.3961 10.5112 10.8982 10.3805 11.0468C10.2498 11.1956 10.1193 11.2143 9.89535 11.1027C9.67139 10.9911 8.94985 10.7557 8.09444 9.99644C7.42877 9.40548 6.97938 8.67566 6.84867 8.45266C6.7182 8.2294 6.84754 8.12042 6.94691 7.99779C7.18932 7.69821 7.43208 7.38411 7.50671 7.23547C7.58143 7.08668 7.54402 6.95652 7.48795 6.84501C7.43208 6.73349 6.98424 5.6365 6.79766 5.19013C6.61575 4.75574 6.43127 4.81438 6.29373 4.8076C6.16325 4.80111 6.01389 4.79978 5.86454 4.79978C5.71527 4.79978 5.47263 4.85547 5.26731 5.07873C5.06209 5.30187 4.48366 5.84097 4.48366 6.93796C4.48366 8.03495 5.28608 9.09467 5.39802 9.24342C5.50993 9.3922 6.97717 11.6433 9.22352 12.6086C9.75781 12.8384 10.1749 12.9754 10.5002 13.0781C11.0367 13.2477 11.5248 13.2238 11.9107 13.1664C12.341 13.1024 13.2355 12.6272 13.4223 12.1067C13.6088 11.5861 13.6088 11.1399 13.5527 11.0468C13.4969 10.9539 13.3475 10.8982 13.1237 10.7866Z" fill="#42E85C"/>
</svg>
